STARTFONT 2.1
FONT -FontForge-Liberation Sans-Bold-R-Normal-Sans--24-240-75-75-P-144-ISO10646-1
SIZE 24 75 75
FONTBOUNDINGBOX 30 32 -4 -7
COMMENT "Generated by fontforge, http://fontforge.sourceforge.net"
COMMENT "Digitized data (c) 2007 Ascender Corporation. All rights reserved."
STARTPROPERTIES 40
FOUNDRY "FontForge"
FAMILY_NAME "Liberation Sans"
WEIGHT_NAME "Bold"
SLANT "R"
SETWIDTH_NAME "Normal"
ADD_STYLE_NAME "Sans"
PIXEL_SIZE 24
POINT_SIZE 240
RESOLUTION_X 75
RESOLUTION_Y 75
SPACING "P"
AVERAGE_WIDTH 144
CHARSET_REGISTRY "ISO10646"
CHARSET_ENCODING "1"
FONTNAME_REGISTRY ""
CHARSET_COLLECTIONS "ASCII ISOLatin1Encoding ISO8859-2 ISO8859-5 ISO8859-7 ISO8859-9 ISO8859-4 Symbol ISO10646-1"
FONT_NAME "LiberationSans-Bold"
FACE_NAME "Liberation Sans Bold"
COPYRIGHT "Digitized data (c) 2007 Ascender Corporation. All rights reserved."
FONT_VERSION "1.04"
FONT_ASCENT 19
FONT_DESCENT 5
UNDERLINE_POSITION -9
UNDERLINE_THICKNESS 3
X_HEIGHT 12
CAP_HEIGHT 16
RAW_ASCENT 799
RAW_DESCENT 200
NORM_SPACE 7
RELATIVE_WEIGHT 70
RELATIVE_SETWIDTH 50
SUPERSCRIPT_X 0
SUPERSCRIPT_Y 11
SUPERSCRIPT_SIZE 15
SUBSCRIPT_X 0
SUBSCRIPT_Y 3
SUBSCRIPT_SIZE 15
FIGURE_WIDTH 13
AVG_LOWERCASE_WIDTH 134
AVG_UPPERCASE_WIDTH 165
ENDPROPERTIES
CHARS 682
STARTCHAR space
ENCODING 32
SWIDTH 277 0
DWIDTH 7 0
BBX 1 1 0 0
BITMAP
00
ENDCHAR
STARTCHAR exclam
ENCODING 33
SWIDTH 333 0
DWIDTH 7 0
BBX 3 17 2 0
BITMAP
E0
E0
E0
E0
E0
E0
E0
E0
E0
E0
E0
00
00
E0
E0
E0
E0
ENDCHAR
STARTCHAR quotedbl
ENCODING 34
SWIDTH 474 0
DWIDTH 11 0
BBX 8 6 2 11
BITMAP
E7
E7
E7
E7
E7
E7
ENDCHAR
STARTCHAR numbersign
ENCODING 35
SWIDTH 556 0
DWIDTH 13 0
BBX 13 17 0 0
BITMAP
0C30
0C30
0C30
1860
1860
7FF8
7FF8
1860
1860
30C0
FFF0
FFF0
30C0
30C0
6180
6180
6180
ENDCHAR
STARTCHAR dollar
ENCODING 36
SWIDTH 556 0
DWIDTH 13 0
BBX 11 20 1 -2
BITMAP
0400
0400
3F00
7FC0
F5C0
E4E0
E4E0
F400
7C00
7F80
1FC0
05E0
04E0
E4E0
E4E0
75E0
7FC0
1F00
0400
0400
ENDCHAR
STARTCHAR percent
ENCODING 37
SWIDTH 889 0
DWIDTH 18 0
BBX 18 17 0 0
BITMAP
3C0600
7E0C00
E71C00
E71800
E73800
E73000
E76000
E7EF00
7EDF80
3DF9C0
01B9C0
0339C0
0739C0
0639C0
0E39C0
0C1F80
180F00
ENDCHAR
STARTCHAR ampersand
ENCODING 38
SWIDTH 722 0
DWIDTH 17 0
BBX 15 17 1 0
BITMAP
0F80
1FC0
38E0
38E0
38E0
39C0
1F80
1F00
7C18
7E1C
E738
E7B8
E3F0
E1F0
F1F8
7FFE
3F1E
ENDCHAR
STARTCHAR quotesingle
ENCODING 39
SWIDTH 237 0
DWIDTH 6 0
BBX 3 6 1 11
BITMAP
E0
E0
E0
E0
E0
E0
ENDCHAR
STARTCHAR parenleft
ENCODING 40
SWIDTH 333 0
DWIDTH 8 0
BBX 7 22 1 -5
BITMAP
0E
1C
38
38
70
70
70
E0
E0
E0
E0
E0
E0
E0
E0
70
70
70
38
38
1C
0E
ENDCHAR
STARTCHAR parenright
ENCODING 41
SWIDTH 333 0
DWIDTH 8 0
BBX 7 22 0 -5
BITMAP
E0
70
38
38
1C
1C
1C
0E
0E
0E
0E
0E
0E
0E
0E
1C
1C
1C
38
38
70
E0
ENDCHAR
STARTCHAR asterisk
ENCODING 42
SWIDTH 389 0
DWIDTH 9 0
BBX 9 9 0 8
BITMAP
1C00
1C00
5D00
FF80
7F00
3E00
3600
7700
2200
ENDCHAR
STARTCHAR plus
ENCODING 43
SWIDTH 583 0
DWIDTH 14 0
BBX 12 12 1 2
BITMAP
0600
0600
0600
0600
0600
FFF0
FFF0
0600
0600
0600
0600
0600
ENDCHAR
STARTCHAR comma
ENCODING 44
SWIDTH 277 0
DWIDTH 7 0
BBX 3 8 2 -4
BITMAP
E0
E0
E0
E0
60
60
60
C0
ENDCHAR
STARTCHAR hyphen
ENCODING 45
SWIDTH 333 0
DWIDTH 8 0
BBX 6 3 1 5
BITMAP
FC
FC
FC
ENDCHAR
STARTCHAR period
ENCODING 46
SWIDTH 277 0
DWIDTH 7 0
BBX 3 4 2 0
BITMAP
E0
E0
E0
E0
ENDCHAR
STARTCHAR slash
ENCODING 47
SWIDTH 277 0
DWIDTH 7 0
BBX 6 17 0 0
BITMAP
1C
1C
1C
1C
38
38
38
38
30
70
70
70
70
E0
E0
E0
E0
ENDCHAR
STARTCHAR zero
ENCODING 48
SWIDTH 556 0
DWIDTH 13 0
BBX 11 17 1 0
BITMAP
1F00
3F80
71C0
61C0
E0E0
E0E0
E0E0
E0E0
E0E0
E0E0
E0E0
E0E0
E0E0
71C0
71C0
3F80
1F00
ENDCHAR
STARTCHAR one
ENCODING 49
SWIDTH 556 0
DWIDTH 13 0
BBX 11 17 1 0
BITMAP
1E00
3E00
FE00
EE00
8E00
0E00
0E00
0E00
0E00
0E00
0E00
0E00
0E00
0E00
0E00
FFE0
FFE0
ENDCHAR
STARTCHAR two
ENCODING 50
SWIDTH 556 0
DWIDTH 13 0
BBX 11 17 1 0
BITMAP
1F00
7FC0
71C0
E0E0
E0E0
00E0
01E0
01C0
07C0
0F80
1F00
3C00
7800
7000
E000
FFE0
FFE0
ENDCHAR
STARTCHAR three
ENCODING 51
SWIDTH 556 0
DWIDTH 13 0
BBX 11 17 1 0
BITMAP
1F80
7FC0
71E0
E0E0
E0E0
00E0
01C0
0F80
0F80
01C0
00E0
00E0
E0E0
E0E0
71C0
7FC0
1F00
ENDCHAR
STARTCHAR four
ENCODING 52
SWIDTH 556 0
DWIDTH 13 0
BBX 12 17 1 0
BITMAP
03C0
03C0
07C0
0FC0
0DC0
1DC0
19C0
39C0
71C0
71C0
E1C0
FFF0
FFF0
01C0
01C0
01C0
01C0
ENDCHAR
STARTCHAR five
ENCODING 53
SWIDTH 556 0
DWIDTH 13 0
BBX 11 17 1 0
BITMAP
7FC0
FFC0
E000
E000
E000
E000
EF00
FFC0
F1C0
E0E0
00E0
00E0
E0E0
E0E0
71C0
7F80
1F00
ENDCHAR
STARTCHAR six
ENCODING 54
SWIDTH 556 0
DWIDTH 13 0
BBX 11 17 1 0
BITMAP
0F80
3FC0
71E0
70E0
6000
E000
EF80
FFC0
F1C0
E0E0
E0E0
E0E0
E0E0
60E0
71C0
3FC0
1F00
ENDCHAR
STARTCHAR seven
ENCODING 55
SWIDTH 556 0
DWIDTH 13 0
BBX 11 17 1 0
BITMAP
FFE0
FFE0
00E0
01C0
0380
0380
0700
0700
0E00
0E00
1C00
1C00
1C00
3800
3800
3800
3800
ENDCHAR
STARTCHAR eight
ENCODING 56
SWIDTH 556 0
DWIDTH 13 0
BBX 11 17 1 0
BITMAP
1F00
7FC0
F1E0
E0E0
E0E0
E0E0
71C0
3F80
3F80
71C0
E0E0
E0E0
E0E0
E0E0
F1C0
7FC0
1F00
ENDCHAR
STARTCHAR nine
ENCODING 57
SWIDTH 556 0
DWIDTH 13 0
BBX 11 17 1 0
BITMAP
1F00
7F80
71C0
E0C0
E0E0
E0E0
E0E0
E0E0
71E0
7FE0
3EE0
00E0
00C0
E1C0
F1C0
7F80
3E00
ENDCHAR
STARTCHAR colon
ENCODING 58
SWIDTH 333 0
DWIDTH 7 0
BBX 3 13 2 0
BITMAP
E0
E0
E0
E0
00
00
00
00
00
E0
E0
E0
E0
ENDCHAR
STARTCHAR semicolon
ENCODING 59
SWIDTH 333 0
DWIDTH 7 0
BBX 3 17 2 -4
BITMAP
E0
E0
E0
E0
00
00
00
00
00
E0
E0
E0
E0
60
60
60
C0
ENDCHAR
STARTCHAR less
ENCODING 60
SWIDTH 583 0
DWIDTH 14 0
BBX 12 13 1 1
BITMAP
0010
00F0
07F0
3FE0
FF00
F800
C000
F800
FF00
3FE0
07F0
00F0
0010
ENDCHAR
STARTCHAR equal
ENCODING 61
SWIDTH 583 0
DWIDTH 14 0
BBX 12 8 1 4
BITMAP
FFF0
FFF0
0000
0000
0000
0000
FFF0
FFF0
ENDCHAR
STARTCHAR greater
ENCODING 62
SWIDTH 583 0
DWIDTH 14 0
BBX 12 13 1 1
BITMAP
8000
F000
FE00
7FC0
0FF0
01F0
0030
01F0
0FF0
7FC0
FE00
F000
8000
ENDCHAR
STARTCHAR question
ENCODING 63
SWIDTH 610 0
DWIDTH 15 0
BBX 13 17 1 0
BITMAP
0FC0
3FF0
7878
F038
E038
0038
0070
01E0
03C0
0780
0700
0000
0000
0700
0700
0700
0700
ENDCHAR
STARTCHAR at
ENCODING 64
SWIDTH 975 0
DWIDTH 23 0
BBX 21 21 1 -4
BITMAP
00FE00
03FF80
0F01E0
1C0070
380030
307BB8
61FF18
638F18
C30718
C60718
C60618
C60638
C60E30
C71E70
C3F7E0
61E380
700000
380180
1C0780
0FFF00
03F800
ENDCHAR
STARTCHAR A
ENCODING 65
SWIDTH 722 0
DWIDTH 17 0
BBX 15 17 1 0
BITMAP
03C0
07C0
07C0
06E0
0EE0
0EE0
0C70
1C70
1C70
1838
3FF8
3FF8
383C
701C
701C
F01E
E00E
ENDCHAR
STARTCHAR B
ENCODING 66
SWIDTH 722 0
DWIDTH 17 0
BBX 14 17 2 0
BITMAP
FFC0
FFF0
E078
E038
E038
E038
E070
FFE0
FFF0
E038
E01C
E01C
E01C
E01C
E038
FFF8
FFE0
ENDCHAR
STARTCHAR C
ENCODING 67
SWIDTH 722 0
DWIDTH 17 0
BBX 15 17 1 0
BITMAP
07E0
1FF8
3C3C
701E
700C
E000
E000
E000
E000
E000
E000
E000
700C
701E
3C3C
1FF8
07E0
ENDCHAR
STARTCHAR D
ENCODING 68
SWIDTH 722 0
DWIDTH 17 0
BBX 14 17 2 0
BITMAP
FF80
FFE0
E0F0
E078
E038
E01C
E01C
E01C
E01C
E01C
E01C
E01C
E038
E078
E0F0
FFE0
FF80
ENDCHAR
STARTCHAR E
ENCODING 69
SWIDTH 666 0
DWIDTH 16 0
BBX 13 17 2 0
BITMAP
FFF8
FFF8
E000
E000
E000
E000
E000
FFF0
FFF0
E000
E000
E000
E000
E000
E000
FFF8
FFF8
ENDCHAR
STARTCHAR F
ENCODING 70
SWIDTH 610 0
DWIDTH 15 0
BBX 12 17 2 0
BITMAP
FFF0
FFF0
E000
E000
E000
E000
E000
FFF0
FFF0
E000
E000
E000
E000
E000
E000
E000
E000
ENDCHAR
STARTCHAR G
ENCODING 71
SWIDTH 777 0
DWIDTH 19 0
BBX 17 17 1 0
BITMAP
07F800
1FFE00
3C1F00
780780
700300
E00000
E00000
E00000
E07F80
E07F80
E00380
E00380
700380
780380
3C0F80
1FFE00
07F800
ENDCHAR
STARTCHAR H
ENCODING 72
SWIDTH 722 0
DWIDTH 17 0
BBX 13 17 2 0
BITMAP
E038
E038
E038
E038
E038
E038
E038
FFF8
FFF8
E038
E038
E038
E038
E038
E038
E038
E038
ENDCHAR
STARTCHAR I
ENCODING 73
SWIDTH 277 0
DWIDTH 7 0
BBX 3 17 2 0
BITMAP
E0
E0
E0
E0
E0
E0
E0
E0
E0
E0
E0
E0
E0
E0
E0
E0
E0
ENDCHAR
STARTCHAR J
ENCODING 74
SWIDTH 556 0
DWIDTH 13 0
BBX 11 17 0 0
BITMAP
07E0
07E0
00E0
00E0
00E0
00E0
00E0
00E0
00E0
00E0
00E0
00E0
E0E0
E0E0
71C0
7FC0
1F00
ENDCHAR
STARTCHAR K
ENCODING 75
SWIDTH 722 0
DWIDTH 17 0
BBX 15 17 2 0
BITMAP
E01E
E03C
E078
E1F0
E3C0
E780
EF00
FF00
FF80
FB80
E1C0
E1E0
E0F0
E070
E038
E03C
E01E
ENDCHAR
STARTCHAR L
ENCODING 76
SWIDTH 610 0
DWIDTH 15 0
BBX 12 17 2 0
BITMAP
E000
E000
E000
E000
E000
E000
E000
E000
E000
E000
E000
E000
E000
E000
E000
FFF0
FFF0
ENDCHAR
STARTCHAR M
ENCODING 77
SWIDTH 833 0
DWIDTH 21 0
BBX 17 17 2 0
BITMAP
F80F80
F80F80
F80F80
FC1F80
FC1F80
EC1B80
EE3B80
EE3B80
EE3B80
E77380
E77380
E77380
E36380
E3E380
E3E380
E1C380
E1C380
ENDCHAR
STARTCHAR N
ENCODING 78
SWIDTH 722 0
DWIDTH 17 0
BBX 13 17 2 0
BITMAP
F038
F838
F838
FC38
FC38
EE38
EE38
EF38
E738
E7B8
E3B8
E3B8
E1F8
E1F8
E0F8
E0F8
E078
ENDCHAR
STARTCHAR O
ENCODING 79
SWIDTH 777 0
DWIDTH 18 0
BBX 16 17 1 0
BITMAP
07E0
1FF8
3C3C
701E
700E
E007
E007
E007
E007
E007
E007
E007
700E
781E
3C3C
1FF8
07E0
ENDCHAR
STARTCHAR P
ENCODING 80
SWIDTH 666 0
DWIDTH 16 0
BBX 13 17 2 0
BITMAP
FFC0
FFF0
E078
E038
E038
E038
E070
FFF0
FFC0
E000
E000
E000
E000
E000
E000
E000
E000
ENDCHAR
STARTCHAR Q
ENCODING 81
SWIDTH 777 0
DWIDTH 18 0
BBX 16 22 1 -5
BITMAP
07E0
1FF8
3C3C
701E
700E
E007
E007
E007
E007
E007
E007
E007
700E
781E
3C3C
1FF8
07F0
01C0
01C0
00E0
00FC
003C
ENDCHAR
STARTCHAR R
ENCODING 82
SWIDTH 722 0
DWIDTH 17 0
BBX 15 17 2 0
BITMAP
FFE0
FFF8
E03C
E01C
E01C
E01C
E038
FFF0
FFC0
E1E0
E0F0
E0F0
E078
E078
E03C
E01C
E01E
ENDCHAR
STARTCHAR S
ENCODING 83
SWIDTH 666 0
DWIDTH 16 0
BBX 14 17 1 0
BITMAP
0FE0
3FF8
7878
703C
701C
7000
7C00
3FC0
1FF0
03F8
003C
001C
E01C
F01C
7838
3FF0
0FE0
ENDCHAR
STARTCHAR T
ENCODING 84
SWIDTH 610 0
DWIDTH 15 0
BBX 13 17 1 0
BITMAP
FFF8
FFF8
0700
0700
0700
0700
0700
0700
0700
0700
0700
0700
0700
0700
0700
0700
0700
ENDCHAR
STARTCHAR U
ENCODING 85
SWIDTH 722 0
DWIDTH 17 0
BBX 13 17 2 0
BITMAP
E038
E038
E038
E038
E038
E038
E038
E038
E038
E038
E038
E038
E038
F070
78F0
3FE0
1F80
ENDCHAR
STARTCHAR V
ENCODING 86
SWIDTH 666 0
DWIDTH 16 0
BBX 16 17 0 0
BITMAP
F00F
F00F
700E
781E
781E
381C
3C3C
1C38
1C38
1E78
0E70
0E70
07E0
07E0
07E0
03C0
03C0
ENDCHAR
STARTCHAR W
ENCODING 87
SWIDTH 943 0
DWIDTH 23 0
BBX 23 17 0 0
BITMAP
E0781E
F07C1C
F07C1C
707C3C
70FC3C
70EE38
78EE38
38EE38
39CE78
39CE70
3DC770
1DC770
1D8770
1F87E0
1F83E0
0F83E0
0F03E0
ENDCHAR
STARTCHAR X
ENCODING 88
SWIDTH 666 0
DWIDTH 16 0
BBX 16 17 0 0
BITMAP
F00F
700E
381E
3C3C
1E78
0E70
0FF0
07E0
03C0
07E0
0FF0
0E70
1E78
3C3C
381E
780E
F00F
ENDCHAR
STARTCHAR Y
ENCODING 89
SWIDTH 666 0
DWIDTH 15 0
BBX 13 17 1 0
BITMAP
F078
7070
70F0
38E0
38E0
1DC0
1DC0
0F80
0F80
0700
0700
0700
0700
0700
0700
0700
0700
ENDCHAR
STARTCHAR Z
ENCODING 90
SWIDTH 610 0
DWIDTH 14 0
BBX 12 17 1 0
BITMAP
FFF0
FFF0
00F0
01E0
01C0
03C0
0780
0700
0F00
0E00
1E00
3C00
3800
7800
F000
FFF0
FFF0
ENDCHAR
STARTCHAR bracketleft
ENCODING 91
SWIDTH 333 0
DWIDTH 8 0
BBX 6 22 1 -5
BITMAP
FC
FC
E0
E0
E0
E0
E0
E0
E0
E0
E0
E0
E0
E0
E0
E0
E0
E0
E0
E0
FC
FC
ENDCHAR
STARTCHAR backslash
ENCODING 92
SWIDTH 277 0
DWIDTH 7 0
BBX 6 17 0 0
BITMAP
E0
E0
E0
E0
70
70
70
70
30
38
38
38
38
18
1C
1C
1C
ENDCHAR
STARTCHAR bracketright
ENCODING 93
SWIDTH 333 0
DWIDTH 8 0
BBX 6 22 1 -5
BITMAP
FC
FC
1C
1C
1C
1C
1C
1C
1C
1C
1C
1C
1C
1C
1C
1C
1C
1C
1C
1C
FC
FC
ENDCHAR
STARTCHAR asciicircum
ENCODING 94
SWIDTH 583 0
DWIDTH 14 0
BBX 12 10 1 7
BITMAP
0F00
1F80
1F80
1980
39C0
30C0
70E0
70E0
E070
E070
ENDCHAR
STARTCHAR underscore
ENCODING 95
SWIDTH 556 0
DWIDTH 13 0
BBX 14 1 0 -3
BITMAP
FFFC
ENDCHAR
STARTCHAR grave
ENCODING 96
SWIDTH 333 0
DWIDTH 8 0
BBX 6 4 1 14
BITMAP
E0
70
38
1C
ENDCHAR
STARTCHAR a
ENCODING 97
SWIDTH 556 0
DWIDTH 13 0
BBX 12 13 1 0
BITMAP
3F00
7F80
F3C0
E1C0
01C0
3FC0
7FC0
F1C0
E1C0
E1C0
E3C0
7EF0
3CF0
ENDCHAR
STARTCHAR b
ENCODING 98
SWIDTH 610 0
DWIDTH 15 0
BBX 12 17 2 0
BITMAP
E000
E000
E000
E000
E780
EFE0
F0E0
F0F0
E070
E070
E070
E070
E070
F0F0
F0E0
EFE0
E780
ENDCHAR
STARTCHAR c
ENCODING 99
SWIDTH 556 0
DWIDTH 13 0
BBX 11 13 1 0
BITMAP
1F00
3FC0
71E0
E0E0
E000
E000
E000
E000
E0E0
E0E0
71C0
3F80
1F00
ENDCHAR
STARTCHAR d
ENCODING 100
SWIDTH 610 0
DWIDTH 15 0
BBX 12 17 1 0
BITMAP
0070
0070
0070
0070
1E70
7F70
70F0
F0F0
E070
E070
E070
E070
E070
F0F0
70F0
7F70
1E70
ENDCHAR
STARTCHAR e
ENCODING 101
SWIDTH 556 0
DWIDTH 13 0
BBX 11 13 1 0
BITMAP
1F00
3F80
71C0
E0E0
E0E0
FFE0
FFE0
E000
E000
E0E0
71C0
3FC0
1F00
ENDCHAR
STARTCHAR f
ENCODING 102
SWIDTH 333 0
DWIDTH 8 0
BBX 8 17 0 0
BITMAP
1F
3F
38
38
FF
FF
38
38
38
38
38
38
38
38
38
38
38
ENDCHAR
STARTCHAR g
ENCODING 103
SWIDTH 610 0
DWIDTH 15 0
BBX 12 18 1 -5
BITMAP
1E70
7FF0
70F0
F0F0
E070
E070
E070
E070
E070
F0F0
70F0
7F70
1E70
0070
7070
78E0
3FE0
1F80
ENDCHAR
STARTCHAR h
ENCODING 104
SWIDTH 610 0
DWIDTH 15 0
BBX 11 17 2 0
BITMAP
E000
E000
E000
E000
E780
EFC0
F1E0
E0E0
E0E0
E0E0
E0E0
E0E0
E0E0
E0E0
E0E0
E0E0
E0E0
ENDCHAR
STARTCHAR i
ENCODING 105
SWIDTH 277 0
DWIDTH 7 0
BBX 3 17 2 0
BITMAP
E0
E0
E0
00
E0
E0
E0
E0
E0
E0
E0
E0
E0
E0
E0
E0
E0
ENDCHAR
STARTCHAR j
ENCODING 106
SWIDTH 277 0
DWIDTH 7 0
BBX 5 22 0 -5
BITMAP
38
38
38
00
38
38
38
38
38
38
38
38
38
38
38
38
38
38
38
38
F8
F0
ENDCHAR
STARTCHAR k
ENCODING 107
SWIDTH 556 0
DWIDTH 13 0
BBX 11 17 2 0
BITMAP
E000
E000
E000
E000
E1C0
E3C0
E780
EF00
FE00
FE00
FF00
E700
E780
E380
E3C0
E1C0
E1E0
ENDCHAR
STARTCHAR l
ENCODING 108
SWIDTH 277 0
DWIDTH 7 0
BBX 3 17 2 0
BITMAP
E0
E0
E0
E0
E0
E0
E0
E0
E0
E0
E0
E0
E0
E0
E0
E0
E0
ENDCHAR
STARTCHAR m
ENCODING 109
SWIDTH 889 0
DWIDTH 21 0
BBX 17 13 2 0
BITMAP
E71E00
EFBF00
F3E780
E1C380
E1C380
E1C380
E1C380
E1C380
E1C380
E1C380
E1C380
E1C380
E1C380
ENDCHAR
STARTCHAR n
ENCODING 110
SWIDTH 610 0
DWIDTH 15 0
BBX 11 13 2 0
BITMAP
E780
EFC0
F1E0
E0E0
E0E0
E0E0
E0E0
E0E0
E0E0
E0E0
E0E0
E0E0
E0E0
ENDCHAR
STARTCHAR o
ENCODING 111
SWIDTH 610 0
DWIDTH 15 0
BBX 13 13 1 0
BITMAP
0FC0
3FE0
78F0
7070
E038
E038
E038
E038
E038
7070
78F0
3FE0
0F80
ENDCHAR
STARTCHAR p
ENCODING 112
SWIDTH 610 0
DWIDTH 15 0
BBX 12 18 2 -5
BITMAP
E780
EFE0
F0E0
F0F0
E070
E070
E070
E070
E070
F0F0
F0E0
FFC0
E780
E000
E000
E000
E000
E000
ENDCHAR
STARTCHAR q
ENCODING 113
SWIDTH 610 0
DWIDTH 15 0
BBX 12 18 1 -5
BITMAP
1E70
7FF0
70F0
F0F0
E070
E070
E070
E070
E070
F0F0
70F0
7F70
1E70
0070
0070
0070
0070
0070
ENDCHAR
STARTCHAR r
ENCODING 114
SWIDTH 389 0
DWIDTH 9 0
BBX 7 13 2 0
BITMAP
EE
EE
F0
E0
E0
E0
E0
E0
E0
E0
E0
E0
E0
ENDCHAR
STARTCHAR s
ENCODING 115
SWIDTH 556 0
DWIDTH 13 0
BBX 11 13 1 0
BITMAP
3F00
7FC0
E1E0
E0E0
F000
FF00
7FC0
0FE0
01E0
E0E0
F1E0
7FC0
3F80
ENDCHAR
STARTCHAR t
ENCODING 116
SWIDTH 333 0
DWIDTH 8 0
BBX 8 16 0 0
BITMAP
18
18
38
FF
FF
38
38
38
38
38
38
38
38
38
3F
1F
ENDCHAR
STARTCHAR u
ENCODING 117
SWIDTH 610 0
DWIDTH 15 0
BBX 11 13 2 0
BITMAP
E0E0
E0E0
E0E0
E0E0
E0E0
E0E0
E0E0
E0E0
E0E0
E1E0
F1E0
7EE0
3CE0
ENDCHAR
STARTCHAR v
ENCODING 118
SWIDTH 556 0
DWIDTH 13 0
BBX 13 13 0 0
BITMAP
E038
F078
7070
7070
78F0
38E0
38E0
3DC0
1DC0
1DC0
0F80
0F80
0F80
ENDCHAR
STARTCHAR w
ENCODING 119
SWIDTH 777 0
DWIDTH 19 0
BBX 19 13 0 0
BITMAP
E0E0E0
E1F0E0
E1B0E0
71B1C0
73B9C0
73B9C0
7319C0
331980
3F1F80
3F1F80
3E0F80
1E0F00
1E0F00
ENDCHAR
STARTCHAR x
ENCODING 120
SWIDTH 556 0
DWIDTH 13 0
BBX 13 13 0 0
BITMAP
F078
70F0
38E0
3DC0
1FC0
0F80
0F00
0F80
1FC0
3DE0
38E0
7070
F078
ENDCHAR
STARTCHAR y
ENCODING 121
SWIDTH 556 0
DWIDTH 13 0
BBX 13 18 0 -5
BITMAP
E038
F078
7070
7070
38F0
38E0
38E0
1DC0
1DC0
0DC0
0F80
0F80
0780
0700
0F00
0E00
7C00
7800
ENDCHAR
STARTCHAR z
ENCODING 122
SWIDTH 500 0
DWIDTH 12 0
BBX 10 13 1 0
BITMAP
FFC0
FFC0
01C0
0380
0700
0E00
0E00
1C00
3800
7000
E000
FFC0
FFC0
ENDCHAR
STARTCHAR braceleft
ENCODING 123
SWIDTH 389 0
DWIDTH 9 0
BBX 9 22 0 -5
BITMAP
0F80
1F80
1E00
1C00
1C00
1C00
1C00
1C00
1C00
3C00
F800
F800
3C00
1C00
1C00
1C00
1C00
1C00
1C00
1E00
1F80
0780
ENDCHAR
STARTCHAR bar
ENCODING 124
SWIDTH 279 0
DWIDTH 7 0
BBX 2 22 2 -5
BITMAP
C0
C0
C0
C0
C0
C0
C0
C0
C0
C0
C0
C0
C0
C0
C0
C0
C0
C0
C0
C0
C0
C0
ENDCHAR
STARTCHAR braceright
ENCODING 125
SWIDTH 389 0
DWIDTH 9 0
BBX 9 22 0 -5
BITMAP
F800
FC00
3C00
1C00
1C00
1C00
1C00
1C00
1C00
1E00
0F80
0F80
1E00
1C00
1C00
1C00
1C00
1C00
1C00
3C00
F800
F800
ENDCHAR
STARTCHAR asciitilde
ENCODING 126
SWIDTH 583 0
DWIDTH 14 0
BBX 12 4 1 6
BITMAP
7800
FE10
87F0
01E0
ENDCHAR
STARTCHAR space.dup1
ENCODING 160
SWIDTH 277 0
DWIDTH 7 0
BBX 1 1 0 0
BITMAP
00
ENDCHAR
STARTCHAR exclamdown
ENCODING 161
SWIDTH 333 0
DWIDTH 7 0
BBX 3 17 2 -4
BITMAP
E0
E0
E0
E0
00
00
E0
E0
E0
E0
E0
E0
E0
E0
E0
E0
E0
ENDCHAR
STARTCHAR cent
ENCODING 162
SWIDTH 556 0
DWIDTH 13 0
BBX 12 17 1 0
BITMAP
0200
0200
0780
1FC0
3FC0
7DE0
F4E0
F400
E400
E400
E400
64F0
74F0
73E0
3B80
0600
0600
ENDCHAR
STARTCHAR sterling
ENCODING 163
SWIDTH 556 0
DWIDTH 13 0
BBX 11 17 1 0
BITMAP
0F00
1F80
39C0
39C0
3800
3800
3800
FF00
FF00
3800
3800
3800
38E0
70E0
61C0
FFC0
FF80
ENDCHAR
STARTCHAR currency
ENCODING 164
SWIDTH 556 0
DWIDTH 13 0
BBX 11 12 1 2
BITMAP
4040
FFE0
7FC0
3180
60C0
60C0
60C0
60C0
3180
7FC0
FFE0
4040
ENDCHAR
STARTCHAR yen
ENCODING 165
SWIDTH 556 0
DWIDTH 13 0
BBX 13 17 0 0
BITMAP
E038
F078
7070
38F0
38E0
1DE0
1DC0
0FC0
0F80
7FF0
7FF0
0700
7FF0
7FF0
0700
0700
0700
ENDCHAR
STARTCHAR brokenbar
ENCODING 166
SWIDTH 279 0
DWIDTH 7 0
BBX 2 22 2 -5
BITMAP
C0
C0
C0
C0
C0
C0
C0
C0
C0
00
00
00
00
C0
C0
C0
C0
C0
C0
C0
C0
C0
ENDCHAR
STARTCHAR section
ENCODING 167
SWIDTH 556 0
DWIDTH 13 0
BBX 11 20 1 -3
BITMAP
3F00
7FC0
E1E0
E0E0
E000
FC00
7F80
7FC0
E1E0
E0E0
E0E0
F9C0
7F80
1FC0
01E0
00E0
E0E0
F1E0
7FC0
3F80
ENDCHAR
STARTCHAR dieresis
ENCODING 168
SWIDTH 333 0
DWIDTH 8 0
BBX 8 3 0 14
BITMAP
E7
E7
E7
ENDCHAR
STARTCHAR copyright
ENCODING 169
SWIDTH 736 0
DWIDTH 18 0
BBX 17 17 0 0
BITMAP
03E000
0C1800
300600
23E200
47F100
461900
8C0080
8C0080
8C0080
8C0080
8C0080
463900
47F100
23E200
300600
0C1800
03E000
ENDCHAR
STARTCHAR ordfeminine
ENCODING 170
SWIDTH 370 0
DWIDTH 9 0
BBX 7 8 1 9
BITMAP
78
CC
0C
7C
CC
CC
DC
76
ENDCHAR
STARTCHAR guillemotleft
ENCODING 171
SWIDTH 556 0
DWIDTH 13 0
BBX 11 9 1 2
BITMAP
1CE0
39C0
7380
F780
E700
F780
7380
39C0
1CE0
ENDCHAR
STARTCHAR logicalnot
ENCODING 172
SWIDTH 583 0
DWIDTH 14 0
BBX 12 7 1 2
BITMAP
FFF0
FFF0
0030
0030
0030
0030
0030
ENDCHAR
STARTCHAR hyphen.dup2
ENCODING 173
SWIDTH 333 0
DWIDTH 8 0
BBX 6 3 1 5
BITMAP
FC
FC
FC
ENDCHAR
STARTCHAR registered
ENCODING 174
SWIDTH 736 0
DWIDTH 18 0
BBX 17 17 0 0
BITMAP
03E000
0C1800
300600
27E200
47F100
463100
863080
863080
87E080
87C080
86E080
466100
467100
263200
300600
0C1800
03E000
ENDCHAR
STARTCHAR macron
ENCODING 175
SWIDTH 552 0
DWIDTH 13 0
BBX 13 1 0 17
BITMAP
FFF8
ENDCHAR
STARTCHAR degree
ENCODING 176
SWIDTH 399 0
DWIDTH 10 0
BBX 8 7 1 10
BITMAP
3C
7E
E7
C3
E7
7E
3C
ENDCHAR
STARTCHAR plusminus
ENCODING 177
SWIDTH 548 0
DWIDTH 13 0
BBX 12 15 0 0
BITMAP
0600
0600
0600
0600
FFF0
FFF0
0600
0600
0600
0600
0000
0000
0000
FFF0
FFF0
ENDCHAR
STARTCHAR uni00B2
ENCODING 178
SWIDTH 333 0
DWIDTH 8 0
BBX 6 8 1 9
BITMAP
78
CC
CC
1C
38
70
C0
FC
ENDCHAR
STARTCHAR uni00B3
ENCODING 179
SWIDTH 333 0
DWIDTH 8 0
BBX 6 8 1 9
BITMAP
78
CC
0C
30
0C
CC
CC
78
ENDCHAR
STARTCHAR acute
ENCODING 180
SWIDTH 333 0
DWIDTH 8 0
BBX 6 4 1 14
BITMAP
1C
38
70
E0
ENDCHAR
STARTCHAR u00B5
ENCODING 181
SWIDTH 576 0
DWIDTH 14 0
BBX 10 18 2 -5
BITMAP
E1C0
E1C0
E1C0
E1C0
E1C0
E1C0
E1C0
E1C0
E1C0
E1C0
F3C0
FFC0
FDC0
E000
E000
E000
E000
E000
ENDCHAR
STARTCHAR paragraph
ENCODING 182
SWIDTH 556 0
DWIDTH 13 0
BBX 12 20 1 -3
BITMAP
3FF0
7FF0
FCC0
FCC0
FCC0
FCC0
FCC0
7CC0
3CC0
0CC0
0CC0
0CC0
0CC0
0CC0
0CC0
0CC0
0CC0
0CC0
0CC0
0CC0
ENDCHAR
STARTCHAR periodcentered
ENCODING 183
SWIDTH 277 0
DWIDTH 7 0
BBX 3 4 2 6
BITMAP
E0
E0
E0
E0
ENDCHAR
STARTCHAR cedilla
ENCODING 184
SWIDTH 333 0
DWIDTH 7 0
BBX 5 5 1 -5
BITMAP
20
70
18
F8
F0
ENDCHAR
STARTCHAR uni00B9
ENCODING 185
SWIDTH 333 0
DWIDTH 8 0
BBX 6 8 1 9
BITMAP
70
F0
B0
30
30
30
30
FC
ENDCHAR
STARTCHAR ordmasculine
ENCODING 186
SWIDTH 365 0
DWIDTH 9 0
BBX 7 8 1 9
BITMAP
38
6C
C6
C6
C6
C6
6C
38
ENDCHAR
STARTCHAR guillemotright
ENCODING 187
SWIDTH 556 0
DWIDTH 13 0
BBX 11 9 1 2
BITMAP
E700
7380
39C0
3DE0
1CE0
3DE0
39C0
7380
E700
ENDCHAR
STARTCHAR onequarter
ENCODING 188
SWIDTH 833 0
DWIDTH 20 0
BBX 17 17 1 0
BITMAP
700600
F00C00
B01C00
301800
303800
303000
306000
FCE000
00C000
01C700
018700
030F00
070B00
061B00
0E1F80
0C0300
180300
ENDCHAR
STARTCHAR onehalf
ENCODING 189
SWIDTH 833 0
DWIDTH 20 0
BBX 17 17 1 0
BITMAP
700600
F00C00
B01C00
301800
303800
303000
306000
FCE000
00C000
01CF00
019980
031980
070380
060700
0E0E00
0C1800
181F80
ENDCHAR
STARTCHAR threequarters
ENCODING 190
SWIDTH 833 0
DWIDTH 20 0
BBX 16 17 2 0
BITMAP
780C
CC18
0C38
3030
0C70
CC60
CCC0
79C0
0180
038E
030E
061E
0E16
0C36
1C3F
1806
3006
ENDCHAR
STARTCHAR questiondown
ENCODING 191
SWIDTH 610 0
DWIDTH 15 0
BBX 13 17 1 -4
BITMAP
0700
0700
0700
0700
0000
0000
0700
0E00
1E00
3C00
7000
E000
E038
E078
F0F0
7FE0
1F80
ENDCHAR
STARTCHAR Agrave
ENCODING 192
SWIDTH 722 0
DWIDTH 17 0
BBX 15 21 1 0
BITMAP
0F00
0380
01C0
0000
03C0
07C0
07C0
06E0
0EE0
0EE0
0C70
1C70
1C70
1838
3FF8
3FF8
383C
701C
701C
F01E
E00E
ENDCHAR
STARTCHAR Aacute
ENCODING 193
SWIDTH 722 0
DWIDTH 17 0
BBX 15 21 1 0
BITMAP
00F0
01C0
0380
0000
03C0
07C0
07C0
06E0
0EE0
0EE0
0C70
1C70
1C70
1838
3FF8
3FF8
383C
701C
701C
F01E
E00E
ENDCHAR
STARTCHAR Acircumflex
ENCODING 194
SWIDTH 722 0
DWIDTH 17 0
BBX 15 21 1 0
BITMAP
03C0
07E0
0E70
0000
03C0
07C0
07C0
06E0
0EE0
0EE0
0C70
1C70
1C70
1838
3FF8
3FF8
383C
701C
701C
F01E
E00E
ENDCHAR
STARTCHAR Atilde
ENCODING 195
SWIDTH 722 0
DWIDTH 17 0
BBX 15 21 1 0
BITMAP
0730
0FF0
0CE0
0000
03C0
07C0
07C0
06E0
0EE0
0EE0
0C70
1C70
1C70
1838
3FF8
3FF8
383C
701C
701C
F01E
E00E
ENDCHAR
STARTCHAR Adieresis
ENCODING 196
SWIDTH 722 0
DWIDTH 17 0
BBX 15 21 1 0
BITMAP
0E70
0E70
0E70
0000
03C0
07C0
07C0
06E0
0EE0
0EE0
0C70
1C70
1C70
1838
3FF8
3FF8
383C
701C
701C
F01E
E00E
ENDCHAR
STARTCHAR Aring
ENCODING 197
SWIDTH 722 0
DWIDTH 17 0
BBX 15 21 1 0
BITMAP
03C0
07E0
0660
0660
07E0
07C0
07C0
06E0
0EE0
0EE0
0C70
1C70
1C70
1838
3FF8
3FF8
383C
701C
701C
F01E
E00E
ENDCHAR
STARTCHAR AE
ENCODING 198
SWIDTH 1000 0
DWIDTH 24 0
BBX 23 17 0 0
BITMAP
00FFFE
00FFFE
01DC00
01DC00
039C00
039C00
071C00
071FFC
0E1FFC
0E1C00
1FFC00
1FFC00
381C00
381C00
701C00
701FFE
F01FFE
ENDCHAR
STARTCHAR Ccedilla
ENCODING 199
SWIDTH 722 0
DWIDTH 17 0
BBX 15 22 1 -5
BITMAP
07E0
1FF8
3C3C
701E
700C
E000
E000
E000
E000
E000
E000
E000
700C
701E
3C3C
1FF8
07E0
0080
01C0
0060
03E0
03C0
ENDCHAR
STARTCHAR Egrave
ENCODING 200
SWIDTH 666 0
DWIDTH 16 0
BBX 13 21 2 0
BITMAP
1E00
0700
0380
0000
FFF8
FFF8
E000
E000
E000
E000
E000
FFF0
FFF0
E000
E000
E000
E000
E000
E000
FFF8
FFF8
ENDCHAR
STARTCHAR Eacute
ENCODING 201
SWIDTH 666 0
DWIDTH 16 0
BBX 13 21 2 0
BITMAP
03C0
0700
0E00
0000
FFF8
FFF8
E000
E000
E000
E000
E000
FFF0
FFF0
E000
E000
E000
E000
E000
E000
FFF8
FFF8
ENDCHAR
STARTCHAR Ecircumflex
ENCODING 202
SWIDTH 666 0
DWIDTH 16 0
BBX 13 21 2 0
BITMAP
0780
0FC0
1CE0
0000
FFF8
FFF8
E000
E000
E000
E000
E000
FFF0
FFF0
E000
E000
E000
E000
E000
E000
FFF8
FFF8
ENDCHAR
STARTCHAR Edieresis
ENCODING 203
SWIDTH 666 0
DWIDTH 16 0
BBX 13 21 2 0
BITMAP
1CE0
1CE0
1CE0
0000
FFF8
FFF8
E000
E000
E000
E000
E000
FFF0
FFF0
E000
E000
E000
E000
E000
E000
FFF8
FFF8
ENDCHAR
STARTCHAR Igrave
ENCODING 204
SWIDTH 277 0
DWIDTH 7 0
BBX 6 21 0 0
BITMAP
F0
38
1C
00
38
38
38
38
38
38
38
38
38
38
38
38
38
38
38
38
38
ENDCHAR
STARTCHAR Iacute
ENCODING 205
SWIDTH 277 0
DWIDTH 7 0
BBX 6 21 2 0
BITMAP
3C
70
E0
00
E0
E0
E0
E0
E0
E0
E0
E0
E0
E0
E0
E0
E0
E0
E0
E0
E0
ENDCHAR
STARTCHAR Icircumflex
ENCODING 206
SWIDTH 277 0
DWIDTH 7 0
BBX 8 21 0 0
BITMAP
3C
7E
E7
00
38
38
38
38
38
38
38
38
38
38
38
38
38
38
38
38
38
ENDCHAR
STARTCHAR Idieresis
ENCODING 207
SWIDTH 277 0
DWIDTH 7 0
BBX 8 21 0 0
BITMAP
E7
E7
E7
00
38
38
38
38
38
38
38
38
38
38
38
38
38
38
38
38
38
ENDCHAR
STARTCHAR Eth
ENCODING 208
SWIDTH 722 0
DWIDTH 17 0
BBX 16 17 0 0
BITMAP
3FE0
3FF8
383C
381E
380E
3807
3807
FF87
FF87
3807
3807
3807
380E
381E
383C
3FF8
3FE0
ENDCHAR
STARTCHAR Ntilde
ENCODING 209
SWIDTH 722 0
DWIDTH 17 0
BBX 13 21 2 0
BITMAP
0E60
1FE0
19C0
0000
F038
F838
F838
FC38
FC38
EE38
EE38
EF38
E738
E7B8
E3B8
E3B8
E1F8
E1F8
E0F8
E0F8
E078
ENDCHAR
STARTCHAR Ograve
ENCODING 210
SWIDTH 777 0
DWIDTH 18 0
BBX 16 21 1 0
BITMAP
0780
01C0
00E0
0000
07E0
1FF8
3C3C
701E
700E
E007
E007
E007
E007
E007
E007
E007
700E
781E
3C3C
1FF8
07E0
ENDCHAR
STARTCHAR Oacute
ENCODING 211
SWIDTH 777 0
DWIDTH 18 0
BBX 16 21 1 0
BITMAP
00F0
01C0
0380
0000
07E0
1FF8
3C3C
701E
700E
E007
E007
E007
E007
E007
E007
E007
700E
781E
3C3C
1FF8
07E0
ENDCHAR
STARTCHAR Ocircumflex
ENCODING 212
SWIDTH 777 0
DWIDTH 18 0
BBX 16 21 1 0
BITMAP
03C0
07E0
0E70
0000
07E0
1FF8
3C3C
701E
700E
E007
E007
E007
E007
E007
E007
E007
700E
781E
3C3C
1FF8
07E0
ENDCHAR
STARTCHAR Otilde
ENCODING 213
SWIDTH 777 0
DWIDTH 18 0
BBX 16 21 1 0
BITMAP
0730
0FF0
0CE0
0000
07E0
1FF8
3C3C
701E
700E
E007
E007
E007
E007
E007
E007
E007
700E
781E
3C3C
1FF8
07E0
ENDCHAR
STARTCHAR Odieresis
ENCODING 214
SWIDTH 777 0
DWIDTH 18 0
BBX 16 21 1 0
BITMAP
0E70
0E70
0E70
0000
07E0
1FF8
3C3C
701E
700E
E007
E007
E007
E007
E007
E007
E007
700E
781E
3C3C
1FF8
07E0
ENDCHAR
STARTCHAR multiply
ENCODING 215
SWIDTH 583 0
DWIDTH 14 0
BBX 11 11 2 3
BITMAP
C060
E0E0
71C0
3B80
1F00
0E00
1F00
3B80
71C0
E0E0
C060
ENDCHAR
STARTCHAR Oslash
ENCODING 216
SWIDTH 777 0
DWIDTH 19 0
BBX 17 19 1 -1
BITMAP
000700
07F600
1FFE00
3C1E00
781F00
703F00
E07380
E06380
E0C380
E1C380
E38380
E30380
E70380
7E0700
7C0F00
3C1E00
3FFC00
37F000
600000
ENDCHAR
STARTCHAR Ugrave
ENCODING 217
SWIDTH 722 0
DWIDTH 17 0
BBX 13 21 2 0
BITMAP
1E00
0700
0380
0000
E038
E038
E038
E038
E038
E038
E038
E038
E038
E038
E038
E038
E038
F070
78F0
3FE0
1F80
ENDCHAR
STARTCHAR Uacute
ENCODING 218
SWIDTH 722 0
DWIDTH 17 0
BBX 13 21 2 0
BITMAP
01E0
0380
0700
0000
E038
E038
E038
E038
E038
E038
E038
E038
E038
E038
E038
E038
E038
F070
78F0
3FE0
1F80
ENDCHAR
STARTCHAR Ucircumflex
ENCODING 219
SWIDTH 722 0
DWIDTH 17 0
BBX 13 21 2 0
BITMAP
0780
0FC0
1CE0
0000
E038
E038
E038
E038
E038
E038
E038
E038
E038
E038
E038
E038
E038
F070
78F0
3FE0
1F80
ENDCHAR
STARTCHAR Udieresis
ENCODING 220
SWIDTH 722 0
DWIDTH 17 0
BBX 13 21 2 0
BITMAP
1CE0
1CE0
1CE0
0000
E038
E038
E038
E038
E038
E038
E038
E038
E038
E038
E038
E038
E038
F070
78F0
3FE0
1F80
ENDCHAR
STARTCHAR Yacute
ENCODING 221
SWIDTH 666 0
DWIDTH 15 0
BBX 13 21 1 0
BITMAP
01E0
0380
0700
0000
F078
7070
70F0
38E0
38E0
1DC0
1DC0
0F80
0F80
0700
0700
0700
0700
0700
0700
0700
0700
ENDCHAR
STARTCHAR Thorn
ENCODING 222
SWIDTH 666 0
DWIDTH 16 0
BBX 13 17 2 0
BITMAP
E000
E000
E000
FFC0
FFF0
E070
E038
E038
E038
E038
E070
FFF0
FFC0
E000
E000
E000
E000
ENDCHAR
STARTCHAR germandbls
ENCODING 223
SWIDTH 610 0
DWIDTH 15 0
BBX 12 17 2 0
BITMAP
1F80
7FC0
71E0
E0E0
E0E0
E1C0
E380
E700
E700
E7C0
E3E0
E1F0
E070
E070
E070
E7E0
E7C0
ENDCHAR
STARTCHAR agrave
ENCODING 224
SWIDTH 556 0
DWIDTH 13 0
BBX 12 18 1 0
BITMAP
3800
1C00
0E00
0700
0000
3F00
7F80
F3C0
E1C0
01C0
3FC0
7FC0
F1C0
E1C0
E1C0
E3C0
7EF0
3CF0
ENDCHAR
STARTCHAR aacute
ENCODING 225
SWIDTH 556 0
DWIDTH 13 0
BBX 12 18 1 0
BITMAP
01C0
0380
0700
0E00
0000
3F00
7F80
F3C0
E1C0
01C0
3FC0
7FC0
F1C0
E1C0
E1C0
E3C0
7EF0
3CF0
ENDCHAR
STARTCHAR acircumflex
ENCODING 226
SWIDTH 556 0
DWIDTH 13 0
BBX 12 18 1 0
BITMAP
0F00
0F00
1980
30C0
0000
3F00
7F80
F3C0
E1C0
01C0
3FC0
7FC0
F1C0
E1C0
E1C0
E3C0
7EF0
3CF0
ENDCHAR
STARTCHAR atilde
ENCODING 227
SWIDTH 556 0
DWIDTH 13 0
BBX 12 17 1 0
BITMAP
1CC0
3FC0
3380
0000
3F00
7F80
F3C0
E1C0
01C0
3FC0
7FC0
F1C0
E1C0
E1C0
E3C0
7EF0
3CF0
ENDCHAR
STARTCHAR adieresis
ENCODING 228
SWIDTH 556 0
DWIDTH 13 0
BBX 12 17 1 0
BITMAP
39C0
39C0
39C0
0000
3F00
7F80
F3C0
E1C0
01C0
3FC0
7FC0
F1C0
E1C0
E1C0
E3C0
7EF0
3CF0
ENDCHAR
STARTCHAR aring
ENCODING 229
SWIDTH 556 0
DWIDTH 13 0
BBX 12 20 1 0
BITMAP
0F00
1F80
1980
1980
1F80
0F00
0000
3F00
7F80
F3C0
E1C0
01C0
3FC0
7FC0
F1C0
E1C0
E1C0
E3C0
7EF0
3CF0
ENDCHAR
STARTCHAR ae
ENCODING 230
SWIDTH 889 0
DWIDTH 21 0
BBX 19 13 1 0
BITMAP
1F9F00
7FFF80
F1F1C0
E0E0E0
00E0E0
1FFFE0
7FFFE0
E0E000
E0E000
E1E0E0
E3F1C0
7F3FC0
3C1F00
ENDCHAR
STARTCHAR ccedilla
ENCODING 231
SWIDTH 556 0
DWIDTH 13 0
BBX 11 18 1 -5
BITMAP
1F00
3FC0
71E0
E0E0
E000
E000
E000
E000
E0E0
E0E0
71C0
3F80
1F00
0400
0E00
0300
1F00
1E00
ENDCHAR
STARTCHAR egrave
ENCODING 232
SWIDTH 556 0
DWIDTH 13 0
BBX 11 18 1 0
BITMAP
3800
1C00
0E00
0700
0000
1F00
3F80
71C0
E0E0
E0E0
FFE0
FFE0
E000
E000
E0E0
71C0
3FC0
1F00
ENDCHAR
STARTCHAR eacute
ENCODING 233
SWIDTH 556 0
DWIDTH 13 0
BBX 11 18 1 0
BITMAP
01C0
0380
0700
0E00
0000
1F00
3F80
71C0
E0E0
E0E0
FFE0
FFE0
E000
E000
E0E0
71C0
3FC0
1F00
ENDCHAR
STARTCHAR ecircumflex
ENCODING 234
SWIDTH 556 0
DWIDTH 13 0
BBX 11 18 1 0
BITMAP
0F00
0F00
1980
30C0
0000
1F00
3F80
71C0
E0E0
E0E0
FFE0
FFE0
E000
E000
E0E0
71C0
3FC0
1F00
ENDCHAR
STARTCHAR edieresis
ENCODING 235
SWIDTH 556 0
DWIDTH 13 0
BBX 11 17 1 0
BITMAP
39C0
39C0
39C0
0000
1F00
3F80
71C0
E0E0
E0E0
FFE0
FFE0
E000
E000
E0E0
71C0
3FC0
1F00
ENDCHAR
STARTCHAR igrave
ENCODING 236
SWIDTH 277 0
DWIDTH 7 0
BBX 6 18 0 0
BITMAP
E0
70
38
1C
00
38
38
38
38
38
38
38
38
38
38
38
38
38
ENDCHAR
STARTCHAR iacute
ENCODING 237
SWIDTH 277 0
DWIDTH 7 0
BBX 6 18 2 0
BITMAP
1C
38
70
E0
00
E0
E0
E0
E0
E0
E0
E0
E0
E0
E0
E0
E0
E0
ENDCHAR
STARTCHAR icircumflex
ENCODING 238
SWIDTH 277 0
DWIDTH 7 0
BBX 8 18 0 0
BITMAP
3C
3C
66
C3
00
38
38
38
38
38
38
38
38
38
38
38
38
38
ENDCHAR
STARTCHAR idieresis
ENCODING 239
SWIDTH 277 0
DWIDTH 7 0
BBX 8 17 0 0
BITMAP
E7
E7
E7
00
38
38
38
38
38
38
38
38
38
38
38
38
38
ENDCHAR
STARTCHAR eth
ENCODING 240
SWIDTH 610 0
DWIDTH 15 0
BBX 13 17 1 0
BITMAP
1E20
0FE0
0FC0
1FC0
10E0
00F0
0FF0
3FF8
7078
E038
E038
E038
E038
E030
7070
3FE0
1F80
ENDCHAR
STARTCHAR ntilde
ENCODING 241
SWIDTH 610 0
DWIDTH 15 0
BBX 11 17 2 0
BITMAP
1CC0
3FC0
3380
0000
E780
EFC0
F1E0
E0E0
E0E0
E0E0
E0E0
E0E0
E0E0
E0E0
E0E0
E0E0
E0E0
ENDCHAR
STARTCHAR ograve
ENCODING 242
SWIDTH 610 0
DWIDTH 15 0
BBX 13 18 1 0
BITMAP
1C00
0E00
0700
0380
0000
0FC0
3FE0
78F0
7070
E038
E038
E038
E038
E038
7070
78F0
3FE0
0F80
ENDCHAR
STARTCHAR oacute
ENCODING 243
SWIDTH 610 0
DWIDTH 15 0
BBX 13 18 1 0
BITMAP
00E0
01C0
0380
0700
0000
0FC0
3FE0
78F0
7070
E038
E038
E038
E038
E038
7070
78F0
3FE0
0F80
ENDCHAR
STARTCHAR ocircumflex
ENCODING 244
SWIDTH 610 0
DWIDTH 15 0
BBX 13 18 1 0
BITMAP
0780
0780
0CC0
1860
0000
0FC0
3FE0
78F0
7070
E038
E038
E038
E038
E038
7070
78F0
3FE0
0F80
ENDCHAR
STARTCHAR otilde
ENCODING 245
SWIDTH 610 0
DWIDTH 15 0
BBX 13 17 1 0
BITMAP
0E60
1FE0
19C0
0000
0FC0
3FE0
78F0
7070
E038
E038
E038
E038
E038
7070
78F0
3FE0
0F80
ENDCHAR
STARTCHAR odieresis
ENCODING 246
SWIDTH 610 0
DWIDTH 15 0
BBX 13 17 1 0
BITMAP
1CE0
1CE0
1CE0
0000
0FC0
3FE0
78F0
7070
E038
E038
E038
E038
E038
7070
78F0
3FE0
0F80
ENDCHAR
STARTCHAR divide
ENCODING 247
SWIDTH 548 0
DWIDTH 13 0
BBX 12 12 0 2
BITMAP
0600
0600
0000
0000
0000
FFF0
FFF0
0000
0000
0000
0600
0600
ENDCHAR
STARTCHAR oslash
ENCODING 248
SWIDTH 610 0
DWIDTH 15 0
BBX 13 13 1 0
BITMAP
0F98
3FF0
78F0
70F8
E1F8
E3B8
E738
EE38
FC38
7870
78F0
7FE0
CF80
ENDCHAR
STARTCHAR ugrave
ENCODING 249
SWIDTH 610 0
DWIDTH 15 0
BBX 11 18 2 0
BITMAP
3800
1C00
0E00
0700
0000
E0E0
E0E0
E0E0
E0E0
E0E0
E0E0
E0E0
E0E0
E0E0
E1E0
F1E0
7EE0
3CE0
ENDCHAR
STARTCHAR uacute
ENCODING 250
SWIDTH 610 0
DWIDTH 15 0
BBX 11 18 2 0
BITMAP
0380
0700
0E00
1C00
0000
E0E0
E0E0
E0E0
E0E0
E0E0
E0E0
E0E0
E0E0
E0E0
E1E0
F1E0
7EE0
3CE0
ENDCHAR
STARTCHAR ucircumflex
ENCODING 251
SWIDTH 610 0
DWIDTH 15 0
BBX 11 18 2 0
BITMAP
1E00
1E00
3300
6180
0000
E0E0
E0E0
E0E0
E0E0
E0E0
E0E0
E0E0
E0E0
E0E0
E1E0
F1E0
7EE0
3CE0
ENDCHAR
STARTCHAR udieresis
ENCODING 252
SWIDTH 610 0
DWIDTH 15 0
BBX 11 17 2 0
BITMAP
7380
7380
7380
0000
E0E0
E0E0
E0E0
E0E0
E0E0
E0E0
E0E0
E0E0
E0E0
E1E0
F1E0
7EE0
3CE0
ENDCHAR
STARTCHAR yacute
ENCODING 253
SWIDTH 556 0
DWIDTH 13 0
BBX 13 23 0 -5
BITMAP
00E0
01C0
0380
0700
0000
E038
F078
7070
7070
38F0
38E0
38E0
1DC0
1DC0
0DC0
0F80
0F80
0780
0700
0F00
0E00
7C00
7800
ENDCHAR
STARTCHAR thorn
ENCODING 254
SWIDTH 610 0
DWIDTH 15 0
BBX 12 22 2 -5
BITMAP
E000
E000
E000
E000
E780
EFE0
F0E0
F0F0
E070
E070
E070
E070
E070
F0F0
F0E0
FFC0
E780
E000
E000
E000
E000
E000
ENDCHAR
STARTCHAR ydieresis
ENCODING 255
SWIDTH 556 0
DWIDTH 13 0
BBX 13 22 0 -5
BITMAP
1CE0
1CE0
1CE0
0000
E038
F078
7070
7070
38F0
38E0
38E0
1DC0
1DC0
0DC0
0F80
0F80
0780
0700
0F00
0E00
7C00
7800
ENDCHAR
STARTCHAR Amacron
ENCODING 256
SWIDTH 722 0
DWIDTH 17 0
BBX 15 20 1 0
BITMAP
0FF0
0FF0
0000
03C0
07C0
07C0
06E0
0EE0
0EE0
0C70
1C70
1C70
1838
3FF8
3FF8
383C
701C
701C
F01E
E00E
ENDCHAR
STARTCHAR amacron
ENCODING 257
SWIDTH 556 0
DWIDTH 13 0
BBX 12 16 1 0
BITMAP
3FC0
3FC0
0000
3F00
7F80
F3C0
E1C0
01C0
3FC0
7FC0
F1C0
E1C0
E1C0
E3C0
7EF0
3CF0
ENDCHAR
STARTCHAR Abreve
ENCODING 258
SWIDTH 722 0
DWIDTH 17 0
BBX 15 21 1 0
BITMAP
0C30
07E0
03C0
0000
03C0
07C0
07C0
06E0
0EE0
0EE0
0C70
1C70
1C70
1838
3FF8
3FF8
383C
701C
701C
F01E
E00E
ENDCHAR
STARTCHAR abreve
ENCODING 259
SWIDTH 556 0
DWIDTH 13 0
BBX 12 18 1 0
BITMAP
30C0
39C0
1F80
0F00
0000
3F00
7F80
F3C0
E1C0
01C0
3FC0
7FC0
F1C0
E1C0
E1C0
E3C0
7EF0
3CF0
ENDCHAR
STARTCHAR Aogonek
ENCODING 260
SWIDTH 722 0
DWIDTH 17 0
BBX 15 22 1 -5
BITMAP
03C0
07C0
07C0
06E0
0EE0
0EE0
0C70
1C70
1C70
1838
3FF8
3FF8
383C
701C
701C
F01E
E00E
000C
0018
0018
001E
000E
ENDCHAR
STARTCHAR aogonek
ENCODING 261
SWIDTH 556 0
DWIDTH 13 0
BBX 12 18 1 -5
BITMAP
3F00
7F80
F3C0
E1C0
01C0
3FC0
7FC0
F1C0
E1C0
E1C0
E3C0
7EF0
3CF0
00C0
0180
0180
01E0
00E0
ENDCHAR
STARTCHAR Cacute
ENCODING 262
SWIDTH 722 0
DWIDTH 17 0
BBX 15 21 1 0
BITMAP
0078
00E0
01C0
0000
07E0
1FF8
3C3C
701E
700C
E000
E000
E000
E000
E000
E000
E000
700C
701E
3C3C
1FF8
07E0
ENDCHAR
STARTCHAR cacute
ENCODING 263
SWIDTH 556 0
DWIDTH 13 0
BBX 11 18 1 0
BITMAP
01C0
0380
0700
0E00
0000
1F00
3FC0
71E0
E0E0
E000
E000
E000
E000
E0E0
E0E0
71C0
3F80
1F00
ENDCHAR
STARTCHAR Ccircumflex
ENCODING 264
SWIDTH 722 0
DWIDTH 17 0
BBX 15 21 1 0
BITMAP
03C0
07E0
0E70
0000
07E0
1FF8
3C3C
701E
700C
E000
E000
E000
E000
E000
E000
E000
700C
701E
3C3C
1FF8
07E0
ENDCHAR
STARTCHAR ccircumflex
ENCODING 265
SWIDTH 556 0
DWIDTH 13 0
BBX 11 18 1 0
BITMAP
0F00
0F00
1980
30C0
0000
1F00
3FC0
71E0
E0E0
E000
E000
E000
E000
E0E0
E0E0
71C0
3F80
1F00
ENDCHAR
STARTCHAR Cdotaccent
ENCODING 266
SWIDTH 722 0
DWIDTH 17 0
BBX 15 21 1 0
BITMAP
01C0
01C0
01C0
0000
07E0
1FF8
3C3C
701E
700C
E000
E000
E000
E000
E000
E000
E000
700C
701E
3C3C
1FF8
07E0
ENDCHAR
STARTCHAR cdotaccent
ENCODING 267
SWIDTH 556 0
DWIDTH 13 0
BBX 11 17 1 0
BITMAP
0700
0700
0700
0000
1F00
3FC0
71E0
E0E0
E000
E000
E000
E000
E0E0
E0E0
71C0
3F80
1F00
ENDCHAR
STARTCHAR Ccaron
ENCODING 268
SWIDTH 722 0
DWIDTH 17 0
BBX 15 21 1 0
BITMAP
0E70
07E0
03C0
0000
07E0
1FF8
3C3C
701E
700C
E000
E000
E000
E000
E000
E000
E000
700C
701E
3C3C
1FF8
07E0
ENDCHAR
STARTCHAR ccaron
ENCODING 269
SWIDTH 556 0
DWIDTH 13 0
BBX 11 18 1 0
BITMAP
30C0
1980
0F00
0F00
0000
1F00
3FC0
71E0
E0E0
E000
E000
E000
E000
E0E0
E0E0
71C0
3F80
1F00
ENDCHAR
STARTCHAR Dcaron
ENCODING 270
SWIDTH 722 0
DWIDTH 17 0
BBX 14 21 2 0
BITMAP
39C0
1F80
0F00
0000
FF80
FFE0
E0F0
E078
E038
E01C
E01C
E01C
E01C
E01C
E01C
E01C
E038
E078
E0F0
FFE0
FF80
ENDCHAR
STARTCHAR dcaron
ENCODING 271
SWIDTH 718 0
DWIDTH 17 0
BBX 17 17 1 0
BITMAP
007380
007380
007180
007180
1E7300
7F7000
70F000
F0F000
E07000
E07000
E07000
E07000
E07000
F0F000
70F000
7F7000
1E7000
ENDCHAR
STARTCHAR Dcroat
ENCODING 272
SWIDTH 722 0
DWIDTH 17 0
BBX 16 17 0 0
BITMAP
3FE0
3FF8
383C
381E
380E
3807
3807
FF87
FF87
3807
3807
3807
380E
381E
383C
3FF8
3FE0
ENDCHAR
STARTCHAR dcroat
ENCODING 273
SWIDTH 610 0
DWIDTH 15 0
BBX 14 17 1 0
BITMAP
0070
0070
03FC
03FC
0070
1E70
7F70
70F0
E0F0
E070
E070
E070
E070
E0F0
70F0
7F70
1E70
ENDCHAR
STARTCHAR Emacron
ENCODING 274
SWIDTH 666 0
DWIDTH 16 0
BBX 13 20 2 0
BITMAP
1FE0
1FE0
0000
FFF8
FFF8
E000
E000
E000
E000
E000
FFF0
FFF0
E000
E000
E000
E000
E000
E000
FFF8
FFF8
ENDCHAR
STARTCHAR emacron
ENCODING 275
SWIDTH 556 0
DWIDTH 13 0
BBX 11 16 1 0
BITMAP
3FC0
3FC0
0000
1F00
3F80
71C0
E0E0
E0E0
FFE0
FFE0
E000
E000
E0E0
71C0
3FC0
1F00
ENDCHAR
STARTCHAR Ebreve
ENCODING 276
SWIDTH 666 0
DWIDTH 16 0
BBX 13 21 2 0
BITMAP
1860
0FC0
0780
0000
FFF8
FFF8
E000
E000
E000
E000
E000
FFF0
FFF0
E000
E000
E000
E000
E000
E000
FFF8
FFF8
ENDCHAR
STARTCHAR ebreve
ENCODING 277
SWIDTH 556 0
DWIDTH 13 0
BBX 11 18 1 0
BITMAP
30C0
39C0
1F80
0F00
0000
1F00
3F80
71C0
E0E0
E0E0
FFE0
FFE0
E000
E000
E0E0
71C0
3FC0
1F00
ENDCHAR
STARTCHAR Edotaccent
ENCODING 278
SWIDTH 666 0
DWIDTH 16 0
BBX 13 21 2 0
BITMAP
0700
0700
0700
0000
FFF8
FFF8
E000
E000
E000
E000
E000
FFF0
FFF0
E000
E000
E000
E000
E000
E000
FFF8
FFF8
ENDCHAR
STARTCHAR edotaccent
ENCODING 279
SWIDTH 556 0
DWIDTH 13 0
BBX 11 17 1 0
BITMAP
0E00
0E00
0E00
0000
1F00
3F80
71C0
E0E0
E0E0
FFE0
FFE0
E000
E000
E0E0
71C0
3FC0
1F00
ENDCHAR
STARTCHAR Eogonek
ENCODING 280
SWIDTH 666 0
DWIDTH 16 0
BBX 13 22 2 -5
BITMAP
FFF8
FFF8
E000
E000
E000
E000
E000
FFF0
FFF0
E000
E000
E000
E000
E000
E000
FFF8
FFF8
0060
00C0
00C0
00F0
0070
ENDCHAR
STARTCHAR eogonek
ENCODING 281
SWIDTH 556 0
DWIDTH 13 0
BBX 11 17 1 -4
BITMAP
1F00
3F80
71C0
E0E0
E0E0
FFE0
FFE0
E000
E000
E0E0
71C0
3FC0
1F80
0300
0300
03C0
01C0
ENDCHAR
STARTCHAR Ecaron
ENCODING 282
SWIDTH 666 0
DWIDTH 16 0
BBX 13 21 2 0
BITMAP
1CE0
0FC0
0780
0000
FFF8
FFF8
E000
E000
E000
E000
E000
FFF0
FFF0
E000
E000
E000
E000
E000
E000
FFF8
FFF8
ENDCHAR
STARTCHAR ecaron
ENCODING 283
SWIDTH 556 0
DWIDTH 13 0
BBX 11 18 1 0
BITMAP
30C0
1980
0F00
0F00
0000
1F00
3F80
71C0
E0E0
E0E0
FFE0
FFE0
E000
E000
E0E0
71C0
3FC0
1F00
ENDCHAR
STARTCHAR Gcircumflex
ENCODING 284
SWIDTH 777 0
DWIDTH 19 0
BBX 17 21 1 0
BITMAP
01E000
03F000
073800
000000
07F800
1FFE00
3C1F00
780780
700300
E00000
E00000
E00000
E07F80
E07F80
E00380
E00380
700380
780380
3C0F80
1FFE00
07F800
ENDCHAR
STARTCHAR gcircumflex
ENCODING 285
SWIDTH 610 0
DWIDTH 15 0
BBX 12 23 1 -5
BITMAP
0F00
0F00
1980
30C0
0000
1E70
7FF0
70F0
F0F0
E070
E070
E070
E070
E070
F0F0
70F0
7F70
1E70
0070
7070
78E0
3FE0
1F80
ENDCHAR
STARTCHAR Gbreve
ENCODING 286
SWIDTH 777 0
DWIDTH 19 0
BBX 17 21 1 0
BITMAP
061800
03F000
01E000
000000
07F800
1FFE00
3C1F00
780780
700300
E00000
E00000
E00000
E07F80
E07F80
E00380
E00380
700380
780380
3C0F80
1FFE00
07F800
ENDCHAR
STARTCHAR gbreve
ENCODING 287
SWIDTH 610 0
DWIDTH 15 0
BBX 12 23 1 -5
BITMAP
30C0
39C0
1F80
0F00
0000
1E70
7FF0
70F0
F0F0
E070
E070
E070
E070
E070
F0F0
70F0
7F70
1E70
0070
7070
78E0
3FE0
1F80
ENDCHAR
STARTCHAR Gdotaccent
ENCODING 288
SWIDTH 777 0
DWIDTH 19 0
BBX 17 21 1 0
BITMAP
01C000
01C000
01C000
000000
07F800
1FFE00
3C1F00
780780
700300
E00000
E00000
E00000
E07F80
E07F80
E00380
E00380
700380
780380
3C0F80
1FFE00
07F800
ENDCHAR
STARTCHAR gdotaccent
ENCODING 289
SWIDTH 610 0
DWIDTH 15 0
BBX 12 22 1 -5
BITMAP
0700
0700
0700
0000
1E70
7FF0
70F0
F0F0
E070
E070
E070
E070
E070
F0F0
70F0
7F70
1E70
0070
7070
78E0
3FE0
1F80
ENDCHAR
STARTCHAR Gcommaaccent
ENCODING 290
SWIDTH 777 0
DWIDTH 19 0
BBX 17 22 1 -5
BITMAP
07F800
1FFE00
3C1F00
780780
700300
E00000
E00000
E00000
E07F80
E07F80
E00380
E00380
700380
780380
3C0F80
1FFE00
07F800
000000
00E000
00E000
006000
00C000
ENDCHAR
STARTCHAR gcommaaccent
ENCODING 291
SWIDTH 610 0
DWIDTH 15 0
BBX 12 24 1 -5
BITMAP
0200
0600
0700
0700
0700
0000
1E70
7FF0
70F0
F0F0
E070
E070
E070
E070
E070
F0F0
70F0
7F70
1E70
0070
7070
78E0
3FE0
1F80
ENDCHAR
STARTCHAR Hcircumflex
ENCODING 292
SWIDTH 722 0
DWIDTH 17 0
BBX 13 21 2 0
BITMAP
0780
0FC0
1CE0
0000
E038
E038
E038
E038
E038
E038
E038
FFF8
FFF8
E038
E038
E038
E038
E038
E038
E038
E038
ENDCHAR
STARTCHAR hcircumflex
ENCODING 293
SWIDTH 610 0
DWIDTH 15 0
BBX 11 22 2 0
BITMAP
0F00
1F80
39C0
0000
0000
E000
E000
E000
E000
E780
EFC0
F1E0
E0E0
E0E0
E0E0
E0E0
E0E0
E0E0
E0E0
E0E0
E0E0
E0E0
ENDCHAR
STARTCHAR Hbar
ENCODING 294
SWIDTH 722 0
DWIDTH 17 0
BBX 15 17 1 0
BITMAP
701C
701C
FFFE
FFFE
701C
701C
701C
7FFC
7FFC
701C
701C
701C
701C
701C
701C
701C
701C
ENDCHAR
STARTCHAR hbar
ENCODING 295
SWIDTH 610 0
DWIDTH 15 0
BBX 13 17 0 0
BITMAP
3800
FF80
FF80
3800
39E0
3BF0
3C78
3C38
3838
3838
3838
3838
3838
3838
3838
3838
3838
ENDCHAR
STARTCHAR Itilde
ENCODING 296
SWIDTH 277 0
DWIDTH 7 0
BBX 8 21 0 0
BITMAP
73
FF
CE
00
38
38
38
38
38
38
38
38
38
38
38
38
38
38
38
38
38
ENDCHAR
STARTCHAR itilde
ENCODING 297
SWIDTH 277 0
DWIDTH 7 0
BBX 8 17 0 0
BITMAP
73
FF
CE
00
38
38
38
38
38
38
38
38
38
38
38
38
38
ENDCHAR
STARTCHAR Imacron
ENCODING 298
SWIDTH 277 0
DWIDTH 7 0
BBX 8 20 0 0
BITMAP
FF
FF
00
38
38
38
38
38
38
38
38
38
38
38
38
38
38
38
38
38
ENDCHAR
STARTCHAR imacron
ENCODING 299
SWIDTH 277 0
DWIDTH 7 0
BBX 8 16 0 0
BITMAP
FF
FF
00
38
38
38
38
38
38
38
38
38
38
38
38
38
ENDCHAR
STARTCHAR Ibreve
ENCODING 300
SWIDTH 277 0
DWIDTH 7 0
BBX 8 21 0 0
BITMAP
C3
7E
3C
00
38
38
38
38
38
38
38
38
38
38
38
38
38
38
38
38
38
ENDCHAR
STARTCHAR ibreve
ENCODING 301
SWIDTH 277 0
DWIDTH 7 0
BBX 8 18 0 0
BITMAP
C3
E7
7E
3C
00
38
38
38
38
38
38
38
38
38
38
38
38
38
ENDCHAR
STARTCHAR Iogonek
ENCODING 302
SWIDTH 277 0
DWIDTH 7 0
BBX 4 22 2 -5
BITMAP
E0
E0
E0
E0
E0
E0
E0
E0
E0
E0
E0
E0
E0
E0
E0
E0
E0
60
C0
C0
F0
70
ENDCHAR
STARTCHAR iogonek
ENCODING 303
SWIDTH 277 0
DWIDTH 7 0
BBX 4 22 1 -5
BITMAP
70
70
70
00
70
70
70
70
70
70
70
70
70
70
70
70
70
60
C0
C0
F0
70
ENDCHAR
STARTCHAR Idotaccent
ENCODING 304
SWIDTH 277 0
DWIDTH 7 0
BBX 3 21 2 0
BITMAP
E0
E0
E0
00
E0
E0
E0
E0
E0
E0
E0
E0
E0
E0
E0
E0
E0
E0
E0
E0
E0
ENDCHAR
STARTCHAR dotlessi
ENCODING 305
SWIDTH 277 0
DWIDTH 7 0
BBX 3 13 2 0
BITMAP
E0
E0
E0
E0
E0
E0
E0
E0
E0
E0
E0
E0
E0
ENDCHAR
STARTCHAR IJ
ENCODING 306
SWIDTH 784 0
DWIDTH 19 0
BBX 15 17 2 0
BITMAP
E07E
E07E
E00E
E00E
E00E
E00E
E00E
E00E
E00E
E00E
E00E
E00E
EE0E
EE0E
E71C
E7FC
E1F0
ENDCHAR
STARTCHAR ij
ENCODING 307
SWIDTH 556 0
DWIDTH 13 0
BBX 10 22 2 -5
BITMAP
E1C0
E1C0
E1C0
0000
E1C0
E1C0
E1C0
E1C0
E1C0
E1C0
E1C0
E1C0
E1C0
E1C0
E1C0
E1C0
E1C0
01C0
01C0
01C0
07C0
0780
ENDCHAR
STARTCHAR Jcircumflex
ENCODING 308
SWIDTH 556 0
DWIDTH 13 0
BBX 12 21 0 0
BITMAP
03C0
07E0
0E70
0000
07E0
07E0
00E0
00E0
00E0
00E0
00E0
00E0
00E0
00E0
00E0
00E0
E0E0
E0E0
71C0
7FC0
1F00
ENDCHAR
STARTCHAR jcircumflex
ENCODING 309
SWIDTH 277 0
DWIDTH 7 0
BBX 8 23 -1 -5
BITMAP
3C
3C
66
C3
00
1C
1C
1C
1C
1C
1C
1C
1C
1C
1C
1C
1C
1C
1C
1C
1C
7C
78
ENDCHAR
STARTCHAR Kcommaaccent
ENCODING 310
SWIDTH 722 0
DWIDTH 17 0
BBX 15 22 2 -5
BITMAP
E01E
E03C
E078
E1F0
E3C0
E780
EF00
FF00
FF80
FB80
E1C0
E1E0
E0F0
E070
E038
E03C
E01E
0000
0380
0380
0180
0300
ENDCHAR
STARTCHAR kcommaaccent
ENCODING 311
SWIDTH 556 0
DWIDTH 13 0
BBX 11 22 2 -5
BITMAP
E000
E000
E000
E000
E1C0
E3C0
E780
EF00
FE00
FE00
FF00
E700
E780
E380
E3C0
E1C0
E1E0
0000
0E00
0E00
0600
0C00
ENDCHAR
STARTCHAR kgreenlandic
ENCODING 312
SWIDTH 556 0
DWIDTH 13 0
BBX 11 13 2 0
BITMAP
E1C0
E3C0
E780
E700
EE00
FE00
FE00
F700
E780
E380
E3C0
E1C0
E1E0
ENDCHAR
STARTCHAR Lacute
ENCODING 313
SWIDTH 610 0
DWIDTH 15 0
BBX 12 21 2 0
BITMAP
0F00
1C00
3800
0000
E000
E000
E000
E000
E000
E000
E000
E000
E000
E000
E000
E000
E000
E000
E000
FFF0
FFF0
ENDCHAR
STARTCHAR lacute
ENCODING 314
SWIDTH 277 0
DWIDTH 7 0
BBX 6 22 2 0
BITMAP
3C
70
E0
00
00
E0
E0
E0
E0
E0
E0
E0
E0
E0
E0
E0
E0
E0
E0
E0
E0
E0
ENDCHAR
STARTCHAR Lcommaaccent
ENCODING 315
SWIDTH 610 0
DWIDTH 15 0
BBX 12 22 2 -5
BITMAP
E000
E000
E000
E000
E000
E000
E000
E000
E000
E000
E000
E000
E000
E000
E000
FFF0
FFF0
0000
0E00
0E00
0600
0C00
ENDCHAR
STARTCHAR lcommaaccent
ENCODING 316
SWIDTH 277 0
DWIDTH 7 0
BBX 3 22 2 -5
BITMAP
E0
E0
E0
E0
E0
E0
E0
E0
E0
E0
E0
E0
E0
E0
E0
E0
E0
00
E0
E0
60
C0
ENDCHAR
STARTCHAR Lcaron
ENCODING 317
SWIDTH 610 0
DWIDTH 15 0
BBX 12 17 2 0
BITMAP
E1C0
E1C0
E0C0
E0C0
E180
E000
E000
E000
E000
E000
E000
E000
E000
E000
E000
FFF0
FFF0
ENDCHAR
STARTCHAR lcaron
ENCODING 318
SWIDTH 385 0
DWIDTH 9 0
BBX 8 17 2 0
BITMAP
E7
E7
E3
E3
E6
E0
E0
E0
E0
E0
E0
E0
E0
E0
E0
E0
E0
ENDCHAR
STARTCHAR Ldot
ENCODING 319
SWIDTH 610 0
DWIDTH 15 0
BBX 12 17 2 0
BITMAP
E000
E000
E000
E000
E000
E000
E000
E380
E380
E380
E000
E000
E000
E000
E000
FFF0
FFF0
ENDCHAR
STARTCHAR ldot
ENCODING 320
SWIDTH 479 0
DWIDTH 12 0
BBX 8 17 2 0
BITMAP
E0
E0
E0
E0
E0
E0
E0
E7
E7
E7
E0
E0
E0
E0
E0
E0
E0
ENDCHAR
STARTCHAR Lslash
ENCODING 321
SWIDTH 610 0
DWIDTH 15 0
BBX 14 17 0 0
BITMAP
3800
3800
3800
3800
3800
3880
3B80
3F80
3F00
7C00
F800
F800
B800
3800
3800
3FFC
3FFC
ENDCHAR
STARTCHAR lslash
ENCODING 322
SWIDTH 277 0
DWIDTH 7 0
BBX 7 17 0 0
BITMAP
38
38
38
38
38
3A
3E
3E
F8
F8
B8
38
38
38
38
38
38
ENDCHAR
STARTCHAR Nacute
ENCODING 323
SWIDTH 722 0
DWIDTH 17 0
BBX 13 21 2 0
BITMAP
01E0
0380
0700
0000
F038
F838
F838
FC38
FC38
EE38
EE38
EF38
E738
E7B8
E3B8
E3B8
E1F8
E1F8
E0F8
E0F8
E078
ENDCHAR
STARTCHAR nacute
ENCODING 324
SWIDTH 610 0
DWIDTH 15 0
BBX 11 18 2 0
BITMAP
01C0
0380
0700
0E00
0000
E780
EFC0
F1E0
E0E0
E0E0
E0E0
E0E0
E0E0
E0E0
E0E0
E0E0
E0E0
E0E0
ENDCHAR
STARTCHAR Ncommaaccent
ENCODING 325
SWIDTH 722 0
DWIDTH 17 0
BBX 13 22 2 -5
BITMAP
F038
F838
F838
FC38
FC38
EE38
EE38
EF38
E738
E7B8
E3B8
E3B8
E1F8
E1F8
E0F8
E0F8
E078
0000
0700
0700
0300
0600
ENDCHAR
STARTCHAR ncommaaccent
ENCODING 326
SWIDTH 610 0
DWIDTH 15 0
BBX 11 18 2 -5
BITMAP
E780
EFC0
F1E0
E0E0
E0E0
E0E0
E0E0
E0E0
E0E0
E0E0
E0E0
E0E0
E0E0
0000
0E00
0E00
0600
0C00
ENDCHAR
STARTCHAR Ncaron
ENCODING 327
SWIDTH 722 0
DWIDTH 17 0
BBX 13 21 2 0
BITMAP
1CE0
0FC0
0780
0000
F038
F838
F838
FC38
FC38
EE38
EE38
EF38
E738
E7B8
E3B8
E3B8
E1F8
E1F8
E0F8
E0F8
E078
ENDCHAR
STARTCHAR ncaron
ENCODING 328
SWIDTH 610 0
DWIDTH 15 0
BBX 11 18 2 0
BITMAP
6180
3300
1E00
1E00
0000
E780
EFC0
F1E0
E0E0
E0E0
E0E0
E0E0
E0E0
E0E0
E0E0
E0E0
E0E0
E0E0
ENDCHAR
STARTCHAR napostrophe
ENCODING 329
SWIDTH 708 0
DWIDTH 17 0
BBX 15 17 0 0
BITMAP
E000
E000
E000
E000
6E78
6EFC
6F1E
CE0E
0E0E
0E0E
0E0E
0E0E
0E0E
0E0E
0E0E
0E0E
0E0E
ENDCHAR
STARTCHAR Eng
ENCODING 330
SWIDTH 723 0
DWIDTH 17 0
BBX 14 17 2 0
BITMAP
E3E0
EFF8
FC38
F03C
E01C
E01C
E01C
E01C
E01C
E01C
E01C
E01C
E01C
E21C
E738
EFF8
E3E0
ENDCHAR
STARTCHAR eng
ENCODING 331
SWIDTH 610 0
DWIDTH 15 0
BBX 11 18 2 -5
BITMAP
E780
EFC0
F1E0
E0E0
E0E0
E0E0
E0E0
E0E0
E0E0
E0E0
E0E0
E0E0
E0E0
00E0
00E0
00E0
03E0
03C0
ENDCHAR
STARTCHAR Omacron
ENCODING 332
SWIDTH 777 0
DWIDTH 18 0
BBX 16 20 1 0
BITMAP
0FF0
0FF0
0000
07E0
1FF8
3C3C
701E
700E
E007
E007
E007
E007
E007
E007
E007
700E
781E
3C3C
1FF8
07E0
ENDCHAR
STARTCHAR omacron
ENCODING 333
SWIDTH 610 0
DWIDTH 15 0
BBX 13 16 1 0
BITMAP
1FE0
1FE0
0000
0FC0
3FE0
78F0
7070
E038
E038
E038
E038
E038
7070
78F0
3FE0
0F80
ENDCHAR
STARTCHAR Obreve
ENCODING 334
SWIDTH 777 0
DWIDTH 18 0
BBX 16 21 1 0
BITMAP
0C30
07E0
03C0
0000
07E0
1FF8
3C3C
701E
700E
E007
E007
E007
E007
E007
E007
E007
700E
781E
3C3C
1FF8
07E0
ENDCHAR
STARTCHAR obreve
ENCODING 335
SWIDTH 610 0
DWIDTH 15 0
BBX 13 18 1 0
BITMAP
1860
1CE0
0FC0
0780
0000
0FC0
3FE0
78F0
7070
E038
E038
E038
E038
E038
7070
78F0
3FE0
0F80
ENDCHAR
STARTCHAR Ohungarumlaut
ENCODING 336
SWIDTH 777 0
DWIDTH 18 0
BBX 16 21 1 0
BITMAP
01CE
039C
0630
0000
07E0
1FF8
3C3C
701E
700E
E007
E007
E007
E007
E007
E007
E007
700E
781E
3C3C
1FF8
07E0
ENDCHAR
STARTCHAR ohungarumlaut
ENCODING 337
SWIDTH 610 0
DWIDTH 15 0
BBX 13 18 1 0
BITMAP
0738
0E70
1CE0
39C0
0000
0FC0
3FE0
78F0
7070
E038
E038
E038
E038
E038
7070
78F0
3FE0
0F80
ENDCHAR
STARTCHAR OE
ENCODING 338
SWIDTH 1000 0
DWIDTH 24 0
BBX 22 17 1 0
BITMAP
07FFFC
1FFFFC
3C3800
703800
703800
E03800
E03800
E03FF8
E03FF8
E03800
E03800
E03800
703800
783800
3C3800
1FFFFC
07FFFC
ENDCHAR
STARTCHAR oe
ENCODING 339
SWIDTH 943 0
DWIDTH 23 0
BBX 21 13 1 0
BITMAP
1F8FC0
3FDFE0
70F870
70F030
E07038
E07FF8
E07FF8
E07000
E07000
F0F838
70F870
3FDFF0
1F8FC0
ENDCHAR
STARTCHAR Racute
ENCODING 340
SWIDTH 722 0
DWIDTH 17 0
BBX 15 21 2 0
BITMAP
01E0
0380
0700
0000
FFE0
FFF8
E03C
E01C
E01C
E01C
E038
FFF0
FFC0
E1E0
E0F0
E0F0
E078
E078
E03C
E01C
E01E
ENDCHAR
STARTCHAR racute
ENCODING 341
SWIDTH 389 0
DWIDTH 9 0
BBX 8 18 2 0
BITMAP
07
0E
1C
38
00
EE
EE
F0
E0
E0
E0
E0
E0
E0
E0
E0
E0
E0
ENDCHAR
STARTCHAR Rcommaaccent
ENCODING 342
SWIDTH 722 0
DWIDTH 17 0
BBX 15 22 2 -5
BITMAP
FFE0
FFF8
E03C
E01C
E01C
E01C
E038
FFF0
FFC0
E1E0
E0F0
E0F0
E078
E078
E03C
E01C
E01E
0000
0380
0380
0180
0300
ENDCHAR
STARTCHAR rcommaaccent
ENCODING 343
SWIDTH 389 0
DWIDTH 9 0
BBX 7 18 2 -5
BITMAP
EE
EE
F0
E0
E0
E0
E0
E0
E0
E0
E0
E0
E0
00
E0
E0
60
C0
ENDCHAR
STARTCHAR Rcaron
ENCODING 344
SWIDTH 722 0
DWIDTH 17 0
BBX 15 21 2 0
BITMAP
1CE0
0FC0
0780
0000
FFE0
FFF8
E03C
E01C
E01C
E01C
E038
FFF0
FFC0
E1E0
E0F0
E0F0
E078
E078
E03C
E01C
E01E
ENDCHAR
STARTCHAR rcaron
ENCODING 345
SWIDTH 389 0
DWIDTH 9 0
BBX 8 18 1 0
BITMAP
C3
66
3C
3C
00
77
77
78
70
70
70
70
70
70
70
70
70
70
ENDCHAR
STARTCHAR Sacute
ENCODING 346
SWIDTH 666 0
DWIDTH 16 0
BBX 14 21 1 0
BITMAP
00F0
01C0
0380
0000
0FE0
3FF8
7878
703C
701C
7000
7C00
3FC0
1FF0
03F8
003C
001C
E01C
F01C
7838
3FF0
0FE0
ENDCHAR
STARTCHAR sacute
ENCODING 347
SWIDTH 556 0
DWIDTH 13 0
BBX 11 18 1 0
BITMAP
01C0
0380
0700
0E00
0000
3F00
7FC0
E1E0
E0E0
F000
FF00
7FC0
0FE0
01E0
E0E0
F1E0
7FC0
3F80
ENDCHAR
STARTCHAR Scircumflex
ENCODING 348
SWIDTH 666 0
DWIDTH 16 0
BBX 14 21 1 0
BITMAP
03C0
07E0
0E70
0000
0FE0
3FF8
7878
703C
701C
7000
7C00
3FC0
1FF0
03F8
003C
001C
E01C
F01C
7838
3FF0
0FE0
ENDCHAR
STARTCHAR scircumflex
ENCODING 349
SWIDTH 556 0
DWIDTH 13 0
BBX 11 18 1 0
BITMAP
0F00
0F00
1980
30C0
0000
3F00
7FC0
E1E0
E0E0
F000
FF00
7FC0
0FE0
01E0
E0E0
F1E0
7FC0
3F80
ENDCHAR
STARTCHAR Scedilla
ENCODING 350
SWIDTH 666 0
DWIDTH 16 0
BBX 14 22 1 -5
BITMAP
0FE0
3FF8
7878
703C
701C
7000
7C00
3FC0
1FF0
03F8
003C
001C
E01C
F01C
7838
3FF0
1FE0
0100
0380
00C0
07C0
0780
ENDCHAR
STARTCHAR scedilla
ENCODING 351
SWIDTH 556 0
DWIDTH 13 0
BBX 11 18 1 -5
BITMAP
3F00
7FC0
E1E0
E0E0
F000
FF00
7FC0
0FE0
01E0
E0E0
F1E0
7FC0
3F80
0400
0E00
0300
1F00
1E00
ENDCHAR
STARTCHAR Scaron
ENCODING 352
SWIDTH 666 0
DWIDTH 16 0
BBX 14 21 1 0
BITMAP
1CE0
0FC0
0780
0000
0FE0
3FF8
7878
703C
701C
7000
7C00
3FC0
1FF0
03F8
003C
001C
E01C
F01C
7838
3FF0
0FE0
ENDCHAR
STARTCHAR scaron
ENCODING 353
SWIDTH 556 0
DWIDTH 13 0
BBX 11 18 1 0
BITMAP
30C0
1980
0F00
0F00
0000
3F00
7FC0
E1E0
E0E0
F000
FF00
7FC0
0FE0
01E0
E0E0
F1E0
7FC0
3F80
ENDCHAR
STARTCHAR Tcommaaccent
ENCODING 354
SWIDTH 610 0
DWIDTH 15 0
BBX 13 22 2 -5
BITMAP
FFF8
FFF8
0700
0700
0700
0700
0700
0700
0700
0700
0700
0700
0700
0700
0700
0700
0700
0400
0E00
0300
1F00
1E00
ENDCHAR
STARTCHAR tcommaaccent
ENCODING 355
SWIDTH 333 0
DWIDTH 8 0
BBX 8 21 -1 -5
BITMAP
18
18
38
FF
FF
38
38
38
38
38
38
38
38
38
3F
1F
04
0E
03
1F
1E
ENDCHAR
STARTCHAR Tcaron
ENCODING 356
SWIDTH 610 0
DWIDTH 15 0
BBX 13 21 1 0
BITMAP
1CE0
0FC0
0780
0000
FFF8
FFF8
0700
0700
0700
0700
0700
0700
0700
0700
0700
0700
0700
0700
0700
0700
0700
ENDCHAR
STARTCHAR tcaron
ENCODING 357
SWIDTH 479 0
DWIDTH 12 0
BBX 12 18 0 0
BITMAP
0070
0070
1830
1830
3860
FF00
FF00
3800
3800
3800
3800
3800
3800
3800
3800
3800
3F00
1F00
ENDCHAR
STARTCHAR Tbar
ENCODING 358
SWIDTH 610 0
DWIDTH 15 0
BBX 13 17 1 0
BITMAP
FFF8
FFF8
0700
0700
0700
0700
0700
3FE0
3FE0
0700
0700
0700
0700
0700
0700
0700
0700
ENDCHAR
STARTCHAR tbar
ENCODING 359
SWIDTH 333 0
DWIDTH 8 0
BBX 8 16 0 0
BITMAP
18
18
38
FF
FF
38
38
38
FF
FF
38
38
38
38
3F
1F
ENDCHAR
STARTCHAR Utilde
ENCODING 360
SWIDTH 722 0
DWIDTH 17 0
BBX 13 21 2 0
BITMAP
0E60
1FE0
19C0
0000
E038
E038
E038
E038
E038
E038
E038
E038
E038
E038
E038
E038
E038
F070
78F0
3FE0
1F80
ENDCHAR
STARTCHAR utilde
ENCODING 361
SWIDTH 610 0
DWIDTH 15 0
BBX 11 17 2 0
BITMAP
3980
7F80
6700
0000
E0E0
E0E0
E0E0
E0E0
E0E0
E0E0
E0E0
E0E0
E0E0
E1E0
F1E0
7EE0
3CE0
ENDCHAR
STARTCHAR Umacron
ENCODING 362
SWIDTH 722 0
DWIDTH 17 0
BBX 13 20 2 0
BITMAP
1FE0
1FE0
0000
E038
E038
E038
E038
E038
E038
E038
E038
E038
E038
E038
E038
E038
F070
78F0
3FE0
1F80
ENDCHAR
STARTCHAR umacron
ENCODING 363
SWIDTH 610 0
DWIDTH 15 0
BBX 11 16 2 0
BITMAP
7F80
7F80
0000
E0E0
E0E0
E0E0
E0E0
E0E0
E0E0
E0E0
E0E0
E0E0
E1E0
F1E0
7EE0
3CE0
ENDCHAR
STARTCHAR Ubreve
ENCODING 364
SWIDTH 722 0
DWIDTH 17 0
BBX 13 21 2 0
BITMAP
1860
0FC0
0780
0000
E038
E038
E038
E038
E038
E038
E038
E038
E038
E038
E038
E038
E038
F070
78F0
3FE0
1F80
ENDCHAR
STARTCHAR ubreve
ENCODING 365
SWIDTH 610 0
DWIDTH 15 0
BBX 11 18 2 0
BITMAP
30C0
39C0
1F80
0F00
0000
E0E0
E0E0
E0E0
E0E0
E0E0
E0E0
E0E0
E0E0
E0E0
E1E0
F1E0
7EE0
3CE0
ENDCHAR
STARTCHAR Uring
ENCODING 366
SWIDTH 722 0
DWIDTH 17 0
BBX 13 24 2 0
BITMAP
0780
0FC0
0CC0
0CC0
0FC0
0780
0000
E038
E038
E038
E038
E038
E038
E038
E038
E038
E038
E038
E038
E038
F070
78F0
3FE0
1F80
ENDCHAR
STARTCHAR uring
ENCODING 367
SWIDTH 610 0
DWIDTH 15 0
BBX 11 19 2 0
BITMAP
0F00
1F80
1980
1980
1F80
0F00
E0E0
E0E0
E0E0
E0E0
E0E0
E0E0
E0E0
E0E0
E0E0
E1E0
F1E0
7EE0
3CE0
ENDCHAR
STARTCHAR Uhungarumlaut
ENCODING 368
SWIDTH 722 0
DWIDTH 17 0
BBX 13 21 2 0
BITMAP
0738
0E70
18C0
0000
E038
E038
E038
E038
E038
E038
E038
E038
E038
E038
E038
E038
E038
F070
78F0
3FE0
1F80
ENDCHAR
STARTCHAR uhungarumlaut
ENCODING 369
SWIDTH 610 0
DWIDTH 15 0
BBX 12 18 2 0
BITMAP
0E70
1CE0
39C0
7380
0000
E0E0
E0E0
E0E0
E0E0
E0E0
E0E0
E0E0
E0E0
E0E0
E1E0
F1E0
7EE0
3CE0
ENDCHAR
STARTCHAR Uogonek
ENCODING 370
SWIDTH 722 0
DWIDTH 17 0
BBX 13 22 2 -5
BITMAP
E038
E038
E038
E038
E038
E038
E038
E038
E038
E038
E038
E038
E038
F070
78F0
3FE0
1F80
0180
0300
0300
03C0
01C0
ENDCHAR
STARTCHAR uogonek
ENCODING 371
SWIDTH 610 0
DWIDTH 15 0
BBX 11 18 2 -5
BITMAP
E0E0
E0E0
E0E0
E0E0
E0E0
E0E0
E0E0
E0E0
E0E0
E1E0
F1E0
7EE0
3CE0
00C0
0180
0180
01E0
00E0
ENDCHAR
STARTCHAR Wcircumflex
ENCODING 372
SWIDTH 943 0
DWIDTH 23 0
BBX 23 21 0 0
BITMAP
007800
00FC00
01CE00
000000
E0781E
F07C1C
F07C1C
707C3C
70FC3C
70EE38
78EE38
38EE38
39CE78
39CE70
3DC770
1DC770
1D8770
1F87E0
1F83E0
0F83E0
0F03E0
ENDCHAR
STARTCHAR wcircumflex
ENCODING 373
SWIDTH 777 0
DWIDTH 19 0
BBX 19 18 0 0
BITMAP
00F000
00F000
019800
030C00
000000
E0E0E0
E1F0E0
E1B0E0
71B1C0
73B9C0
73B9C0
7319C0
331980
3F1F80
3F1F80
3E0F80
1E0F00
1E0F00
ENDCHAR
STARTCHAR Ycircumflex
ENCODING 374
SWIDTH 666 0
DWIDTH 15 0
BBX 13 21 1 0
BITMAP
0780
0FC0
1CE0
0000
F078
7070
70F0
38E0
38E0
1DC0
1DC0
0F80
0F80
0700
0700
0700
0700
0700
0700
0700
0700
ENDCHAR
STARTCHAR ycircumflex
ENCODING 375
SWIDTH 556 0
DWIDTH 13 0
BBX 13 23 0 -5
BITMAP
0780
0780
0CC0
1860
0000
E038
F078
7070
7070
38F0
38E0
38E0
1DC0
1DC0
0DC0
0F80
0F80
0780
0700
0F00
0E00
7C00
7800
ENDCHAR
STARTCHAR Ydieresis
ENCODING 376
SWIDTH 666 0
DWIDTH 15 0
BBX 13 21 1 0
BITMAP
1CE0
1CE0
1CE0
0000
F078
7070
70F0
38E0
38E0
1DC0
1DC0
0F80
0F80
0700
0700
0700
0700
0700
0700
0700
0700
ENDCHAR
STARTCHAR Zacute
ENCODING 377
SWIDTH 610 0
DWIDTH 14 0
BBX 12 21 1 0
BITMAP
03C0
0700
0E00
0000
FFF0
FFF0
00F0
01E0
01C0
03C0
0780
0700
0F00
0E00
1E00
3C00
3800
7800
F000
FFF0
FFF0
ENDCHAR
STARTCHAR zacute
ENCODING 378
SWIDTH 500 0
DWIDTH 12 0
BBX 10 18 1 0
BITMAP
0380
0700
0E00
1C00
0000
FFC0
FFC0
01C0
0380
0700
0E00
0E00
1C00
3800
7000
E000
FFC0
FFC0
ENDCHAR
STARTCHAR Zdotaccent
ENCODING 379
SWIDTH 610 0
DWIDTH 14 0
BBX 12 21 1 0
BITMAP
0700
0700
0700
0000
FFF0
FFF0
00F0
01E0
01C0
03C0
0780
0700
0F00
0E00
1E00
3C00
3800
7800
F000
FFF0
FFF0
ENDCHAR
STARTCHAR zdotaccent
ENCODING 380
SWIDTH 500 0
DWIDTH 12 0
BBX 10 17 1 0
BITMAP
0E00
0E00
0E00
0000
FFC0
FFC0
01C0
0380
0700
0E00
0E00
1C00
3800
7000
E000
FFC0
FFC0
ENDCHAR
STARTCHAR Zcaron
ENCODING 381
SWIDTH 610 0
DWIDTH 14 0
BBX 12 21 1 0
BITMAP
39C0
1F80
0F00
0000
FFF0
FFF0
00F0
01E0
01C0
03C0
0780
0700
0F00
0E00
1E00
3C00
3800
7800
F000
FFF0
FFF0
ENDCHAR
STARTCHAR zcaron
ENCODING 382
SWIDTH 500 0
DWIDTH 12 0
BBX 10 18 1 0
BITMAP
6180
3300
1E00
1E00
0000
FFC0
FFC0
01C0
0380
0700
0E00
0E00
1C00
3800
7000
E000
FFC0
FFC0
ENDCHAR
STARTCHAR longs
ENCODING 383
SWIDTH 277 0
DWIDTH 7 0
BBX 5 17 2 0
BITMAP
78
F8
E0
E0
E0
E0
E0
E0
E0
E0
E0
E0
E0
E0
E0
E0
E0
ENDCHAR
STARTCHAR florin
ENCODING 402
SWIDTH 556 0
DWIDTH 13 0
BBX 10 22 2 -5
BITMAP
03C0
0FC0
0E00
0E00
0E00
7F80
7F80
1C00
1C00
3C00
3800
3800
3800
3800
7800
7000
7000
7000
7000
F000
F000
E000
ENDCHAR
STARTCHAR Aringacute
ENCODING 506
SWIDTH 722 0
DWIDTH 17 0
BBX 15 25 1 0
BITMAP
00F0
01C0
0380
0000
03C0
07E0
0660
0660
07E0
07C0
07C0
06E0
0EE0
0EE0
0C70
1C70
1C70
1838
3FF8
3FF8
383C
701C
701C
F01E
E00E
ENDCHAR
STARTCHAR aringacute
ENCODING 507
SWIDTH 556 0
DWIDTH 13 0
BBX 12 24 1 0
BITMAP
01C0
0380
0700
0E00
0F00
1F80
1980
1980
1F80
0F00
0000
3F00
7F80
F3C0
E1C0
01C0
3FC0
7FC0
F1C0
E1C0
E1C0
E3C0
7EF0
3CF0
ENDCHAR
STARTCHAR AEacute
ENCODING 508
SWIDTH 1000 0
DWIDTH 24 0
BBX 23 21 0 0
BITMAP
0001E0
000380
000700
000000
00FFFE
00FFFE
01DC00
01DC00
039C00
039C00
071C00
071FFC
0E1FFC
0E1C00
1FFC00
1FFC00
381C00
381C00
701C00
701FFE
F01FFE
ENDCHAR
STARTCHAR aeacute
ENCODING 509
SWIDTH 889 0
DWIDTH 21 0
BBX 19 18 1 0
BITMAP
001C00
003800
007000
00E000
000000
1F9F00
7FFF80
F1F1C0
E0E0E0
00E0E0
1FFFE0
7FFFE0
E0E000
E0E000
E1E0E0
E3F1C0
7F3FC0
3C1F00
ENDCHAR
STARTCHAR Oslashacute
ENCODING 510
SWIDTH 777 0
DWIDTH 19 0
BBX 17 22 1 -1
BITMAP
007800
00E000
01C000
000700
07F600
1FFE00
3C1E00
781F00
703F00
E07380
E06380
E0C380
E1C380
E38380
E30380
E70380
7E0700
7C0F00
3C1E00
3FFC00
37F000
600000
ENDCHAR
STARTCHAR oslashacute
ENCODING 511
SWIDTH 610 0
DWIDTH 15 0
BBX 13 18 1 0
BITMAP
00E0
01C0
0380
0700
0000
0F98
3FF0
78F0
70F8
E1F8
E3B8
E738
EE38
FC38
7870
78F0
7FE0
CF80
ENDCHAR
STARTCHAR Scommaaccent
ENCODING 536
SWIDTH 666 0
DWIDTH 16 0
BBX 14 22 1 -5
BITMAP
0FE0
3FF8
7878
703C
701C
7000
7C00
3FC0
1FF0
03F8
003C
001C
E01C
F01C
7838
3FF0
1FE0
0000
0700
0700
0300
0600
ENDCHAR
STARTCHAR scommaaccent
ENCODING 537
SWIDTH 556 0
DWIDTH 13 0
BBX 11 18 1 -5
BITMAP
3F00
7FC0
E1E0
E0E0
F000
FF00
7FC0
0FE0
01E0
E0E0
F1E0
7FC0
3F80
0000
0E00
0E00
0600
0C00
ENDCHAR
STARTCHAR uni021A
ENCODING 538
SWIDTH 610 0
DWIDTH 15 0
BBX 13 22 1 -5
BITMAP
FFF8
FFF8
0700
0700
0700
0700
0700
0700
0700
0700
0700
0700
0700
0700
0700
0700
0700
0000
0700
0700
0300
0600
ENDCHAR
STARTCHAR uni021B
ENCODING 539
SWIDTH 333 0
DWIDTH 8 0
BBX 8 21 0 -5
BITMAP
18
18
38
FF
FF
38
38
38
38
38
38
38
38
38
3F
1F
00
1C
1C
0C
18
ENDCHAR
STARTCHAR circumflex
ENCODING 710
SWIDTH 333 0
DWIDTH 8 0
BBX 8 4 0 14
BITMAP
3C
3C
66
C3
ENDCHAR
STARTCHAR caron
ENCODING 711
SWIDTH 333 0
DWIDTH 8 0
BBX 8 4 0 14
BITMAP
C3
66
3C
3C
ENDCHAR
STARTCHAR uni02C9
ENCODING 713
SWIDTH 333 0
DWIDTH 8 0
BBX 8 2 0 14
BITMAP
FF
FF
ENDCHAR
STARTCHAR breve
ENCODING 728
SWIDTH 333 0
DWIDTH 8 0
BBX 8 4 0 14
BITMAP
C3
E7
7E
3C
ENDCHAR
STARTCHAR dotaccent
ENCODING 729
SWIDTH 333 0
DWIDTH 8 0
BBX 3 3 2 14
BITMAP
E0
E0
E0
ENDCHAR
STARTCHAR ring
ENCODING 730
SWIDTH 333 0
DWIDTH 8 0
BBX 6 6 1 13
BITMAP
78
FC
CC
CC
FC
78
ENDCHAR
STARTCHAR ogonek
ENCODING 731
SWIDTH 333 0
DWIDTH 9 0
BBX 4 5 1 -5
BITMAP
60
C0
C0
F0
70
ENDCHAR
STARTCHAR tilde
ENCODING 732
SWIDTH 333 0
DWIDTH 8 0
BBX 8 3 0 14
BITMAP
73
FF
CE
ENDCHAR
STARTCHAR hungarumlaut
ENCODING 733
SWIDTH 333 0
DWIDTH 8 0
BBX 11 4 -1 14
BITMAP
1CE0
39C0
7380
E700
ENDCHAR
STARTCHAR semicolon.dup3
ENCODING 894
SWIDTH 333 0
DWIDTH 7 0
BBX 3 17 2 -4
BITMAP
E0
E0
E0
E0
00
00
00
00
00
E0
E0
E0
E0
60
60
60
C0
ENDCHAR
STARTCHAR tonos
ENCODING 900
SWIDTH 333 0
DWIDTH 8 0
BBX 4 4 2 14
BITMAP
70
60
C0
80
ENDCHAR
STARTCHAR dieresistonos
ENCODING 901
SWIDTH 464 0
DWIDTH 11 0
BBX 8 4 1 14
BITMAP
1C
DB
DB
D3
ENDCHAR
STARTCHAR Alphatonos
ENCODING 902
SWIDTH 722 0
DWIDTH 17 0
BBX 15 17 1 0
BITMAP
73C0
67C0
C7C0
86E0
0EE0
0EE0
0C70
1C70
1C70
1838
3FF8
3FF8
383C
701C
701C
F01E
E00E
ENDCHAR
STARTCHAR anoteleia
ENCODING 903
SWIDTH 333 0
DWIDTH 8 0
BBX 3 4 3 6
BITMAP
E0
E0
E0
E0
ENDCHAR
STARTCHAR Epsilontonos
ENCODING 904
SWIDTH 853 0
DWIDTH 20 0
BBX 18 17 1 0
BITMAP
77FFC0
67FFC0
C70000
870000
070000
070000
070000
07FF80
07FF80
070000
070000
070000
070000
070000
070000
07FFC0
07FFC0
ENDCHAR
STARTCHAR Etatonos
ENCODING 905
SWIDTH 905 0
DWIDTH 22 0
BBX 19 17 0 0
BITMAP
7380E0
6380E0
C380E0
8380E0
0380E0
0380E0
0380E0
03FFE0
03FFE0
0380E0
0380E0
0380E0
0380E0
0380E0
0380E0
0380E0
0380E0
ENDCHAR
STARTCHAR Iotatonos
ENCODING 906
SWIDTH 473 0
DWIDTH 11 0
BBX 9 17 0 0
BITMAP
7380
6380
C380
8380
0380
0380
0380
0380
0380
0380
0380
0380
0380
0380
0380
0380
0380
ENDCHAR
STARTCHAR Omicrontonos
ENCODING 908
SWIDTH 824 0
DWIDTH 20 0
BBX 18 17 1 0
BITMAP
71F800
67FE00
CF0F00
9C0780
1C0380
3801C0
3801C0
3801C0
3801C0
3801C0
3801C0
3801C0
1C0380
1E0780
0F0F00
07FE00
01F800
ENDCHAR
STARTCHAR Upsilontonos
ENCODING 910
SWIDTH 927 0
DWIDTH 22 0
BBX 19 17 2 0
BITMAP
73C1E0
61C1C0
C1C3C0
80E380
00E380
007700
007700
003E00
003E00
001C00
001C00
001C00
001C00
001C00
001C00
001C00
001C00
ENDCHAR
STARTCHAR Omegatonos
ENCODING 911
SWIDTH 837 0
DWIDTH 20 0
BBX 19 17 0 0
BITMAP
71FC00
67FF00
CF0780
9C01C0
1C01C0
3800E0
3800E0
3800E0
3800E0
3800E0
3C01C0
1C01C0
0E0380
078F00
03DE00
3FDFE0
3FDFE0
ENDCHAR
STARTCHAR iotadieresistonos
ENCODING 912
SWIDTH 277 0
DWIDTH 7 0
BBX 8 18 0 0
BITMAP
1C
DB
DB
D3
00
38
38
38
38
38
38
38
38
38
38
38
38
3C
ENDCHAR
STARTCHAR Alpha
ENCODING 913
SWIDTH 722 0
DWIDTH 17 0
BBX 15 17 1 0
BITMAP
03C0
07C0
07C0
06E0
0EE0
0EE0
0C70
1C70
1C70
1838
3FF8
3FF8
383C
701C
701C
F01E
E00E
ENDCHAR
STARTCHAR Beta
ENCODING 914
SWIDTH 722 0
DWIDTH 17 0
BBX 14 17 2 0
BITMAP
FFC0
FFF0
E078
E038
E038
E038
E070
FFE0
FFF0
E038
E01C
E01C
E01C
E01C
E038
FFF8
FFE0
ENDCHAR
STARTCHAR Gamma
ENCODING 915
SWIDTH 601 0
DWIDTH 14 0
BBX 12 17 2 0
BITMAP
FFF0
FFF0
E000
E000
E000
E000
E000
E000
E000
E000
E000
E000
E000
E000
E000
E000
E000
ENDCHAR
STARTCHAR Delta
ENCODING 916
SWIDTH 718 0
DWIDTH 17 0
BBX 15 17 1 0
BITMAP
0380
07C0
07C0
06E0
0EE0
0EE0
1C70
1C70
1C70
3838
3838
783C
701C
701C
E00E
FFFE
FFFE
ENDCHAR
STARTCHAR Epsilon
ENCODING 917
SWIDTH 666 0
DWIDTH 16 0
BBX 13 17 2 0
BITMAP
FFF8
FFF8
E000
E000
E000
E000
E000
FFF0
FFF0
E000
E000
E000
E000
E000
E000
FFF8
FFF8
ENDCHAR
STARTCHAR Zeta
ENCODING 918
SWIDTH 610 0
DWIDTH 14 0
BBX 12 17 1 0
BITMAP
FFF0
FFF0
00F0
01E0
01C0
03C0
0780
0700
0F00
0E00
1E00
3C00
3800
7800
F000
FFF0
FFF0
ENDCHAR
STARTCHAR Eta
ENCODING 919
SWIDTH 722 0
DWIDTH 17 0
BBX 13 17 2 0
BITMAP
E038
E038
E038
E038
E038
E038
E038
FFF8
FFF8
E038
E038
E038
E038
E038
E038
E038
E038
ENDCHAR
STARTCHAR Theta
ENCODING 920
SWIDTH 777 0
DWIDTH 18 0
BBX 16 17 1 0
BITMAP
07E0
1FF8
3C3C
701E
700E
E007
E007
EFF7
EFF7
E007
E007
E007
700E
781E
3C3C
1FF8
07E0
ENDCHAR
STARTCHAR Iota
ENCODING 921
SWIDTH 277 0
DWIDTH 7 0
BBX 3 17 2 0
BITMAP
E0
E0
E0
E0
E0
E0
E0
E0
E0
E0
E0
E0
E0
E0
E0
E0
E0
ENDCHAR
STARTCHAR Kappa
ENCODING 922
SWIDTH 722 0
DWIDTH 17 0
BBX 15 17 2 0
BITMAP
E01E
E03C
E078
E1F0
E3C0
E780
EF00
FF00
FF80
FB80
E1C0
E1E0
E0F0
E070
E038
E03C
E01E
ENDCHAR
STARTCHAR Lambda
ENCODING 923
SWIDTH 666 0
DWIDTH 16 0
BBX 16 17 0 0
BITMAP
0180
03C0
03C0
07E0
07E0
0660
0E70
0E70
1C38
1C38
381C
381C
381C
700E
700E
E007
E007
ENDCHAR
STARTCHAR Mu
ENCODING 924
SWIDTH 833 0
DWIDTH 21 0
BBX 17 17 2 0
BITMAP
F80F80
F80F80
F80F80
FC1F80
FC1F80
EC1B80
EE3B80
EE3B80
EE3B80
E77380
E77380
E77380
E36380
E3E380
E3E380
E1C380
E1C380
ENDCHAR
STARTCHAR Nu
ENCODING 925
SWIDTH 722 0
DWIDTH 17 0
BBX 13 17 2 0
BITMAP
F038
F838
F838
FC38
FC38
EE38
EE38
EF38
E738
E7B8
E3B8
E3B8
E1F8
E1F8
E0F8
E0F8
E078
ENDCHAR
STARTCHAR Xi
ENCODING 926
SWIDTH 643 0
DWIDTH 15 0
BBX 11 17 2 0
BITMAP
FFE0
FFE0
0000
0000
0000
0000
0000
7FC0
7FC0
0000
0000
0000
0000
0000
0000
FFE0
FFE0
ENDCHAR
STARTCHAR Omicron
ENCODING 927
SWIDTH 777 0
DWIDTH 18 0
BBX 16 17 1 0
BITMAP
07E0
1FF8
3C3C
701E
700E
E007
E007
E007
E007
E007
E007
E007
700E
781E
3C3C
1FF8
07E0
ENDCHAR
STARTCHAR Pi
ENCODING 928
SWIDTH 722 0
DWIDTH 17 0
BBX 13 17 2 0
BITMAP
FFF8
FFF8
E038
E038
E038
E038
E038
E038
E038
E038
E038
E038
E038
E038
E038
E038
E038
ENDCHAR
STARTCHAR Rho
ENCODING 929
SWIDTH 666 0
DWIDTH 16 0
BBX 13 17 2 0
BITMAP
FFC0
FFF0
E078
E038
E038
E038
E070
FFF0
FFC0
E000
E000
E000
E000
E000
E000
E000
E000
ENDCHAR
STARTCHAR Sigma
ENCODING 931
SWIDTH 600 0
DWIDTH 14 0
BBX 12 17 1 0
BITMAP
FFE0
FFE0
E000
7000
3800
1C00
1E00
0F00
0700
0F00
1E00
1C00
3800
7000
E000
FFF0
FFF0
ENDCHAR
STARTCHAR Tau
ENCODING 932
SWIDTH 610 0
DWIDTH 15 0
BBX 13 17 1 0
BITMAP
FFF8
FFF8
0700
0700
0700
0700
0700
0700
0700
0700
0700
0700
0700
0700
0700
0700
0700
ENDCHAR
STARTCHAR Upsilon
ENCODING 933
SWIDTH 666 0
DWIDTH 15 0
BBX 13 17 1 0
BITMAP
F078
7070
70F0
38E0
38E0
1DC0
1DC0
0F80
0F80
0700
0700
0700
0700
0700
0700
0700
0700
ENDCHAR
STARTCHAR Phi
ENCODING 934
SWIDTH 820 0
DWIDTH 19 0
BBX 17 17 1 0
BITMAP
01C000
01C000
0FF800
3FFE00
79CF00
F1C700
E1C380
E1C380
E1C380
E1C380
E1C380
71C700
79CF00
3FFE00
0FF800
01C000
01C000
ENDCHAR
STARTCHAR Chi
ENCODING 935
SWIDTH 666 0
DWIDTH 16 0
BBX 16 17 0 0
BITMAP
F00F
700E
381E
3C3C
1E78
0E70
0FF0
07E0
03C0
07E0
0FF0
0E70
1E78
3C3C
381E
780E
F00F
ENDCHAR
STARTCHAR Psi
ENCODING 936
SWIDTH 809 0
DWIDTH 19 0
BBX 17 17 1 0
BITMAP
E1C380
E1C380
E1C380
E1C380
E1C380
E1C380
E1C380
E1C380
E1C380
71C700
3FFE00
1FFC00
01C000
01C000
01C000
01C000
01C000
ENDCHAR
STARTCHAR Omega
ENCODING 937
SWIDTH 801 0
DWIDTH 19 0
BBX 17 17 1 0
BITMAP
07F000
1FFC00
3C1E00
700700
700700
E00380
E00380
E00380
E00380
E00380
F00700
700700
380E00
1E3C00
0F7800
FF7F80
FF7F80
ENDCHAR
STARTCHAR Iotadieresis
ENCODING 938
SWIDTH 277 0
DWIDTH 7 0
BBX 8 21 0 0
BITMAP
E7
E7
E7
00
38
38
38
38
38
38
38
38
38
38
38
38
38
38
38
38
38
ENDCHAR
STARTCHAR Upsilondieresis
ENCODING 939
SWIDTH 666 0
DWIDTH 15 0
BBX 13 21 1 0
BITMAP
1CE0
1CE0
1CE0
0000
F078
7070
70F0
38E0
38E0
1DC0
1DC0
0F80
0F80
0700
0700
0700
0700
0700
0700
0700
0700
ENDCHAR
STARTCHAR alphatonos
ENCODING 940
SWIDTH 614 0
DWIDTH 15 0
BBX 14 18 1 0
BITMAP
01C0
0180
0300
0200
0000
1F1C
3FB8
71F8
E0F8
E0F0
E070
E070
E070
E070
E0F8
71B8
7FB8
1F38
ENDCHAR
STARTCHAR epsilontonos
ENCODING 941
SWIDTH 451 0
DWIDTH 11 0
BBX 10 18 1 0
BITMAP
0700
0600
0C00
0800
0000
3F00
7FC0
E180
E000
F000
7E00
3E00
F000
E000
E080
F1C0
7F80
3F00
ENDCHAR
STARTCHAR etatonos
ENCODING 942
SWIDTH 610 0
DWIDTH 15 0
BBX 11 23 2 -5
BITMAP
0380
0300
0600
0400
0000
E780
EFC0
F1E0
E0E0
E0E0
E0E0
E0E0
E0E0
E0E0
E0E0
E0E0
E0E0
E0E0
00E0
00E0
00E0
00E0
00E0
ENDCHAR
STARTCHAR iotatonos
ENCODING 943
SWIDTH 277 0
DWIDTH 7 0
BBX 5 18 2 0
BITMAP
38
30
60
40
00
E0
E0
E0
E0
E0
E0
E0
E0
E0
E0
E0
E0
F0
ENDCHAR
STARTCHAR upsilondieresistonos
ENCODING 944
SWIDTH 582 0
DWIDTH 14 0
BBX 11 18 2 0
BITMAP
0700
36C0
36C0
34C0
0000
E1C0
E1C0
E1E0
E0E0
E0E0
E0E0
E0E0
E0E0
E0E0
E0C0
F1C0
7F80
3F00
ENDCHAR
STARTCHAR alpha
ENCODING 945
SWIDTH 614 0
DWIDTH 15 0
BBX 14 13 1 0
BITMAP
1F1C
3FB8
71F8
E0F8
E0F0
E070
E070
E070
E070
E0F8
71B8
7FB8
1F38
ENDCHAR
STARTCHAR beta
ENCODING 946
SWIDTH 610 0
DWIDTH 15 0
BBX 12 22 2 -5
BITMAP
1F80
7FC0
71E0
E0E0
E0E0
E0E0
E1C0
E780
E7C0
E1E0
E070
E070
E070
E070
F0E0
FFE0
EF80
E000
E000
E000
E000
E000
ENDCHAR
STARTCHAR gamma
ENCODING 947
SWIDTH 556 0
DWIDTH 13 0
BBX 13 18 0 -5
BITMAP
E038
F078
7070
7870
38F0
38E0
3CE0
1CE0
1DC0
0FC0
0F80
0F80
0780
0700
0700
0F00
0F00
0E00
ENDCHAR
STARTCHAR delta
ENCODING 948
SWIDTH 606 0
DWIDTH 15 0
BBX 13 17 1 0
BITMAP
3FF0
3FF0
1E00
0F00
0780
03C0
0FE0
3CF0
7070
F078
E038
E038
E038
E038
7070
3FE0
1F80
ENDCHAR
STARTCHAR epsilon
ENCODING 949
SWIDTH 474 0
DWIDTH 11 0
BBX 10 13 1 0
BITMAP
3F00
7FC0
E180
E000
F000
7E00
3E00
F000
E000
E080
F1C0
7F80
3F00
ENDCHAR
STARTCHAR zeta
ENCODING 950
SWIDTH 460 0
DWIDTH 11 0
BBX 9 22 1 -5
BITMAP
7F80
7F80
0380
0700
0E00
1C00
3800
3800
7000
7000
E000
E000
E000
E000
F800
FE00
7F00
0F80
0380
0380
0700
0300
ENDCHAR
STARTCHAR eta
ENCODING 951
SWIDTH 610 0
DWIDTH 15 0
BBX 11 18 2 -5
BITMAP
E780
EFC0
F1E0
E0E0
E0E0
E0E0
E0E0
E0E0
E0E0
E0E0
E0E0
E0E0
E0E0
00E0
00E0
00E0
00E0
00E0
ENDCHAR
STARTCHAR theta
ENCODING 952
SWIDTH 540 0
DWIDTH 13 0
BBX 11 17 1 0
BITMAP
1F00
3F80
71C0
71C0
E0E0
E0E0
E0E0
FFE0
FFE0
E0E0
E0E0
E0E0
E0E0
71C0
71C0
3F80
1F00
ENDCHAR
STARTCHAR iota
ENCODING 953
SWIDTH 277 0
DWIDTH 7 0
BBX 4 13 2 0
BITMAP
E0
E0
E0
E0
E0
E0
E0
E0
E0
E0
E0
E0
F0
ENDCHAR
STARTCHAR kappa
ENCODING 954
SWIDTH 557 0
DWIDTH 13 0
BBX 11 13 2 0
BITMAP
E1E0
E3C0
E380
E700
EE00
FE00
FE00
FF00
E700
E380
E3C0
E1C0
E1E0
ENDCHAR
STARTCHAR lambda
ENCODING 955
SWIDTH 556 0
DWIDTH 13 0
BBX 13 18 0 0
BITMAP
7C00
7E00
0E00
0700
0700
0780
0780
0780
0FC0
0FC0
1DC0
1CE0
3CE0
38F0
7870
7070
F078
E038
ENDCHAR
STARTCHAR mu
ENCODING 956
SWIDTH 611 0
DWIDTH 15 0
BBX 11 18 2 -5
BITMAP
E0E0
E0E0
E0E0
E0E0
E0E0
E0E0
E0E0
E0E0
E0E0
E1E0
F1E0
FFE0
FEE0
E000
E000
E000
E000
E000
ENDCHAR
STARTCHAR nu
ENCODING 957
SWIDTH 556 0
DWIDTH 13 0
BBX 12 13 0 0
BITMAP
E070
F070
7070
7070
7870
3870
38E0
38E0
1DC0
1DC0
1F80
0F80
0F00
ENDCHAR
STARTCHAR xi
ENCODING 958
SWIDTH 445 0
DWIDTH 11 0
BBX 10 22 1 -5
BITMAP
7FC0
7FC0
0E00
1C00
3800
3800
3C00
0F00
0F00
3800
7000
E000
E000
E000
F000
FF00
7F80
0FC0
01C0
01C0
03C0
0180
ENDCHAR
STARTCHAR omicron
ENCODING 959
SWIDTH 610 0
DWIDTH 15 0
BBX 13 13 1 0
BITMAP
0FC0
3FE0
78F0
7070
E038
E038
E038
E038
E038
7070
78F0
3FE0
0F80
ENDCHAR
STARTCHAR pi
ENCODING 960
SWIDTH 765 0
DWIDTH 18 0
BBX 16 13 1 0
BITMAP
FFFF
FFFF
1C38
1C38
1C38
1C38
1C38
1C38
1C38
1C38
3838
383E
381E
ENDCHAR
STARTCHAR rho
ENCODING 961
SWIDTH 618 0
DWIDTH 15 0
BBX 12 18 2 -5
BITMAP
1F00
3FC0
71E0
E0E0
E070
E070
E070
E070
E070
E0F0
F0E0
FFC0
EF80
E000
E000
E000
E000
E000
ENDCHAR
STARTCHAR sigma1
ENCODING 962
SWIDTH 520 0
DWIDTH 12 0
BBX 10 18 1 -5
BITMAP
0F80
3FC0
3880
7000
7000
E000
E000
E000
E000
F000
F800
7F00
3F80
07C0
01C0
01C0
0380
0180
ENDCHAR
STARTCHAR sigma
ENCODING 963
SWIDTH 684 0
DWIDTH 16 0
BBX 15 13 1 0
BITMAP
0FFE
3FFE
78E0
7070
E030
E038
E038
E038
E038
F078
78F0
3FE0
1FC0
ENDCHAR
STARTCHAR tau
ENCODING 964
SWIDTH 446 0
DWIDTH 11 0
BBX 10 13 1 0
BITMAP
FFC0
FFC0
1C00
1C00
1C00
1C00
1C00
1C00
1C00
1C00
1C00
1F80
0F80
ENDCHAR
STARTCHAR upsilon
ENCODING 965
SWIDTH 582 0
DWIDTH 14 0
BBX 11 13 2 0
BITMAP
E1C0
E1C0
E1E0
E0E0
E0E0
E0E0
E0E0
E0E0
E0E0
E0C0
F1C0
7F80
3F00
ENDCHAR
STARTCHAR phi
ENCODING 966
SWIDTH 715 0
DWIDTH 17 0
BBX 15 18 1 -5
BITMAP
18F0
39FC
73DC
F38E
E38E
E38E
E38E
E38E
E38E
F39C
73BC
3FF8
1FE0
0380
0380
0380
0380
0380
ENDCHAR
STARTCHAR chi
ENCODING 967
SWIDTH 575 0
DWIDTH 14 0
BBX 14 18 0 -5
BITMAP
F03C
F838
3C78
1C70
0EE0
0EE0
07C0
07C0
0380
0780
0FC0
0FE0
1CE0
3CF0
3870
7878
7038
F03C
ENDCHAR
STARTCHAR psi
ENCODING 968
SWIDTH 753 0
DWIDTH 17 0
BBX 13 21 2 -5
BITMAP
0700
0700
0700
E738
E738
E738
E738
E738
E738
E738
E738
E738
E738
F778
7FF0
3FE0
0700
0700
0700
0700
0700
ENDCHAR
STARTCHAR omega
ENCODING 969
SWIDTH 844 0
DWIDTH 19 0
BBX 17 13 1 0
BITMAP
0C1800
3C1E00
780F00
700700
E00380
E1C380
E1C380
E1C380
E1C380
E1C380
736700
7F7F00
1E3C00
ENDCHAR
STARTCHAR iotadieresis
ENCODING 970
SWIDTH 277 0
DWIDTH 7 0
BBX 8 17 0 0
BITMAP
E7
E7
E7
00
38
38
38
38
38
38
38
38
38
38
38
38
3C
ENDCHAR
STARTCHAR upsilondieresis
ENCODING 971
SWIDTH 582 0
DWIDTH 14 0
BBX 11 17 2 0
BITMAP
7380
7380
7380
0000
E1C0
E1C0
E1E0
E0E0
E0E0
E0E0
E0E0
E0E0
E0E0
E0C0
F1C0
7F80
3F00
ENDCHAR
STARTCHAR omicrontonos
ENCODING 972
SWIDTH 610 0
DWIDTH 15 0
BBX 13 18 1 0
BITMAP
01C0
0180
0300
0200
0000
0FC0
3FE0
78F0
7070
E038
E038
E038
E038
E038
7070
78F0
3FE0
0F80
ENDCHAR
STARTCHAR upsilontonos
ENCODING 973
SWIDTH 582 0
DWIDTH 14 0
BBX 11 18 2 0
BITMAP
0700
0600
0C00
0800
0000
E1C0
E1C0
E1E0
E0E0
E0E0
E0E0
E0E0
E0E0
E0E0
E0C0
F1C0
7F80
3F00
ENDCHAR
STARTCHAR omegatonos
ENCODING 974
SWIDTH 844 0
DWIDTH 19 0
BBX 17 18 1 0
BITMAP
007000
006000
00C000
008000
000000
0C1800
3C1E00
780F00
700700
E00380
E1C380
E1C380
E1C380
E1C380
E1C380
736700
7F7F00
1E3C00
ENDCHAR
STARTCHAR afii10023
ENCODING 1025
SWIDTH 668 0
DWIDTH 16 0
BBX 13 21 2 0
BITMAP
1CE0
1CE0
1CE0
0000
FFF8
FFF8
E000
E000
E000
E000
E000
FFF0
FFF0
E000
E000
E000
E000
E000
E000
FFF8
FFF8
ENDCHAR
STARTCHAR afii10051
ENCODING 1026
SWIDTH 885 0
DWIDTH 21 0
BBX 19 17 1 0
BITMAP
FFF800
FFF800
070000
070000
070000
070000
073F80
07FFC0
0781E0
0700E0
0700E0
0700E0
0700E0
0710E0
0739E0
073FC0
071F80
ENDCHAR
STARTCHAR afii10052
ENCODING 1027
SWIDTH 566 0
DWIDTH 14 0
BBX 11 21 2 0
BITMAP
0780
0E00
1C00
0000
FFE0
FFE0
E000
E000
E000
E000
E000
E000
E000
E000
E000
E000
E000
E000
E000
E000
E000
ENDCHAR
STARTCHAR afii10053
ENCODING 1028
SWIDTH 711 0
DWIDTH 17 0
BBX 15 17 1 0
BITMAP
07E0
1FF8
3C3C
701E
700C
E000
E000
FF80
FF80
E000
E000
E000
700C
701E
3C3C
1FF8
07E0
ENDCHAR
STARTCHAR afii10054
ENCODING 1029
SWIDTH 666 0
DWIDTH 16 0
BBX 14 17 1 0
BITMAP
0FE0
3FF8
7878
703C
701C
7000
7C00
3FC0
1FF0
03F8
003C
001C
E01C
F01C
7838
3FF0
0FE0
ENDCHAR
STARTCHAR afii10055
ENCODING 1030
SWIDTH 277 0
DWIDTH 7 0
BBX 3 17 2 0
BITMAP
E0
E0
E0
E0
E0
E0
E0
E0
E0
E0
E0
E0
E0
E0
E0
E0
E0
ENDCHAR
STARTCHAR afii10056
ENCODING 1031
SWIDTH 275 0
DWIDTH 7 0
BBX 8 21 0 0
BITMAP
E7
E7
E7
00
38
38
38
38
38
38
38
38
38
38
38
38
38
38
38
38
38
ENDCHAR
STARTCHAR afii10057
ENCODING 1032
SWIDTH 556 0
DWIDTH 13 0
BBX 11 17 0 0
BITMAP
07E0
07E0
00E0
00E0
00E0
00E0
00E0
00E0
00E0
00E0
00E0
00E0
E0E0
E0E0
71C0
7FC0
1F00
ENDCHAR
STARTCHAR afii10058
ENCODING 1033
SWIDTH 1093 0
DWIDTH 26 0
BBX 25 17 0 0
BITMAP
0FFC0000
0FFC0000
0C1C0000
0C1C0000
1C1C0000
1C1C0000
1C1C0000
1C1FFC00
1C1FFF00
1C1C0700
181C0380
381C0380
381C0380
381C0380
701C0700
F01FFF00
E01FFC00
ENDCHAR
STARTCHAR afii10059
ENCODING 1034
SWIDTH 1062 0
DWIDTH 26 0
BBX 23 17 2 0
BITMAP
E03800
E03800
E03800
E03800
E03800
E03800
E03800
FFFFF0
FFFFFC
E0381C
E0380E
E0380E
E0380E
E0380E
E0381C
E03FFC
E03FF0
ENDCHAR
STARTCHAR afii10060
ENCODING 1035
SWIDTH 875 0
DWIDTH 21 0
BBX 18 17 1 0
BITMAP
FFF800
FFF800
070000
070000
070000
070000
077E00
07FF80
070380
0701C0
0701C0
0701C0
0701C0
0701C0
0701C0
0701C0
0701C0
ENDCHAR
STARTCHAR afii10061
ENCODING 1036
SWIDTH 610 0
DWIDTH 15 0
BBX 13 21 2 0
BITMAP
01E0
0380
0700
0000
E078
E070
E0E0
E1E0
E3C0
E780
EF00
FE00
FF00
E780
E380
E3C0
E1C0
E1E0
E0F0
E070
E078
ENDCHAR
STARTCHAR afii10062
ENCODING 1038
SWIDTH 622 0
DWIDTH 15 0
BBX 15 22 0 0
BITMAP
0E70
0E70
07E0
03C0
0000
F00E
701E
781C
383C
3C38
1C38
1E70
0E70
07E0
07E0
03C0
03C0
0380
0380
0700
7E00
7C00
ENDCHAR
STARTCHAR afii10145
ENCODING 1039
SWIDTH 718 0
DWIDTH 17 0
BBX 13 22 2 -5
BITMAP
E038
E038
E038
E038
E038
E038
E038
E038
E038
E038
E038
E038
E038
E038
E038
FFF8
FFF8
0700
0700
0700
0700
0700
ENDCHAR
STARTCHAR afii10017
ENCODING 1040
SWIDTH 722 0
DWIDTH 17 0
BBX 15 17 1 0
BITMAP
03C0
07C0
07C0
06E0
0EE0
0EE0
0C70
1C70
1C70
1838
3FF8
3FF8
383C
701C
701C
F01E
E00E
ENDCHAR
STARTCHAR afii10018
ENCODING 1041
SWIDTH 718 0
DWIDTH 17 0
BBX 14 17 2 0
BITMAP
FFF0
FFF0
E000
E000
E000
E000
E000
FFE0
FFF8
E038
E01C
E01C
E01C
E01C
E038
FFF8
FFE0
ENDCHAR
STARTCHAR afii10019
ENCODING 1042
SWIDTH 722 0
DWIDTH 17 0
BBX 14 17 2 0
BITMAP
FFC0
FFF0
E078
E038
E038
E038
E070
FFE0
FFF0
E038
E01C
E01C
E01C
E01C
E038
FFF8
FFE0
ENDCHAR
STARTCHAR afii10020
ENCODING 1043
SWIDTH 566 0
DWIDTH 14 0
BBX 11 17 2 0
BITMAP
FFE0
FFE0
E000
E000
E000
E000
E000
E000
E000
E000
E000
E000
E000
E000
E000
E000
E000
ENDCHAR
STARTCHAR afii10021
ENCODING 1044
SWIDTH 712 0
DWIDTH 17 0
BBX 16 22 0 -5
BITMAP
07FC
07FC
071C
071C
071C
071C
0E1C
0E1C
0E1C
0E1C
0E1C
1C1C
1C1C
1C1C
381C
FFFF
FFFF
E007
E007
E007
E007
E007
ENDCHAR
STARTCHAR afii10022
ENCODING 1045
SWIDTH 666 0
DWIDTH 16 0
BBX 13 17 2 0
BITMAP
FFF8
FFF8
E000
E000
E000
E000
E000
FFF0
FFF0
E000
E000
E000
E000
E000
E000
FFF8
FFF8
ENDCHAR
STARTCHAR afii10024
ENCODING 1046
SWIDTH 903 0
DWIDTH 21 0
BBX 21 17 0 0
BITMAP
F07078
707070
7870F0
3C71E0
1C71C0
1E73C0
0F7780
07FF00
0FFF80
0E7780
1E73C0
1C71C0
3C71E0
3870E0
7870F0
707070
F07078
ENDCHAR
STARTCHAR afii10025
ENCODING 1047
SWIDTH 626 0
DWIDTH 15 0
BBX 13 17 1 0
BITMAP
0FC0
3FF0
7878
F038
6038
0038
0070
03E0
03E0
0070
0038
0038
6038
F038
7870
3FE0
1FC0
ENDCHAR
STARTCHAR afii10026
ENCODING 1048
SWIDTH 718 0
DWIDTH 17 0
BBX 13 17 2 0
BITMAP
E078
E0F8
E0F8
E1F8
E1F8
E1B8
E3B8
E338
E738
E638
EE38
EE38
FC38
FC38
F838
F838
F038
ENDCHAR
STARTCHAR afii10027
ENCODING 1049
SWIDTH 718 0
DWIDTH 17 0
BBX 13 22 2 0
BITMAP
1CE0
1CE0
0FC0
0780
0000
E078
E0F8
E0F8
E1F8
E1F8
E1B8
E3B8
E338
E738
E638
EE38
EE38
FC38
FC38
F838
F838
F038
ENDCHAR
STARTCHAR afii10028
ENCODING 1050
SWIDTH 610 0
DWIDTH 15 0
BBX 13 17 2 0
BITMAP
E078
E070
E0E0
E1E0
E3C0
E780
EF00
FE00
FF00
E780
E380
E3C0
E1C0
E1E0
E0F0
E070
E078
ENDCHAR
STARTCHAR afii10029
ENCODING 1051
SWIDTH 701 0
DWIDTH 17 0
BBX 15 17 0 0
BITMAP
0FFE
0FFE
0C0E
0C0E
1C0E
1C0E
1C0E
1C0E
1C0E
1C0E
180E
380E
380E
380E
700E
F00E
E00E
ENDCHAR
STARTCHAR afii10030
ENCODING 1052
SWIDTH 833 0
DWIDTH 21 0
BBX 17 17 2 0
BITMAP
F80F80
F80F80
F80F80
FC1F80
FC1F80
EC1B80
EE3B80
EE3B80
EE3B80
E77380
E77380
E77380
E36380
E3E380
E3E380
E1C380
E1C380
ENDCHAR
STARTCHAR afii10031
ENCODING 1053
SWIDTH 722 0
DWIDTH 17 0
BBX 13 17 2 0
BITMAP
E038
E038
E038
E038
E038
E038
E038
FFF8
FFF8
E038
E038
E038
E038
E038
E038
E038
E038
ENDCHAR
STARTCHAR afii10032
ENCODING 1054
SWIDTH 777 0
DWIDTH 18 0
BBX 16 17 1 0
BITMAP
07E0
1FF8
3C3C
701E
700E
E007
E007
E007
E007
E007
E007
E007
700E
781E
3C3C
1FF8
07E0
ENDCHAR
STARTCHAR afii10033
ENCODING 1055
SWIDTH 718 0
DWIDTH 17 0
BBX 13 17 2 0
BITMAP
FFF8
FFF8
E038
E038
E038
E038
E038
E038
E038
E038
E038
E038
E038
E038
E038
E038
E038
ENDCHAR
STARTCHAR afii10034
ENCODING 1056
SWIDTH 666 0
DWIDTH 16 0
BBX 13 17 2 0
BITMAP
FFC0
FFF0
E078
E038
E038
E038
E070
FFF0
FFC0
E000
E000
E000
E000
E000
E000
E000
E000
ENDCHAR
STARTCHAR afii10035
ENCODING 1057
SWIDTH 722 0
DWIDTH 17 0
BBX 15 17 1 0
BITMAP
07E0
1FF8
3C3C
701E
700C
E000
E000
E000
E000
E000
E000
E000
700C
701E
3C3C
1FF8
07E0
ENDCHAR
STARTCHAR afii10036
ENCODING 1058
SWIDTH 610 0
DWIDTH 15 0
BBX 13 17 1 0
BITMAP
FFF8
FFF8
0700
0700
0700
0700
0700
0700
0700
0700
0700
0700
0700
0700
0700
0700
0700
ENDCHAR
STARTCHAR afii10037
ENCODING 1059
SWIDTH 622 0
DWIDTH 15 0
BBX 15 17 0 0
BITMAP
F00E
701E
781C
383C
3C38
1C38
1E70
0E70
07E0
07E0
03C0
03C0
0380
0380
0700
7E00
7C00
ENDCHAR
STARTCHAR afii10038
ENCODING 1060
SWIDTH 853 0
DWIDTH 21 0
BBX 19 17 1 0
BITMAP
00E000
00E000
0FFE00
3FFF80
78E3C0
70E1C0
E0E0E0
E0E0E0
E0E0E0
E0E0E0
E0E0E0
70E1C0
78E3C0
3FFF80
0FFE00
00E000
00E000
ENDCHAR
STARTCHAR afii10039
ENCODING 1061
SWIDTH 666 0
DWIDTH 16 0
BBX 16 17 0 0
BITMAP
F00F
700E
381E
3C3C
1E78
0E70
0FF0
07E0
03C0
07E0
0FF0
0E70
1E78
3C3C
381E
780E
F00F
ENDCHAR
STARTCHAR afii10040
ENCODING 1062
SWIDTH 730 0
DWIDTH 18 0
BBX 16 22 2 -5
BITMAP
E01C
E01C
E01C
E01C
E01C
E01C
E01C
E01C
E01C
E01C
E01C
E01C
E01C
E01C
E01C
FFFF
FFFF
0007
0007
0007
0007
0007
ENDCHAR
STARTCHAR afii10041
ENCODING 1063
SWIDTH 702 0
DWIDTH 17 0
BBX 13 17 2 0
BITMAP
E038
E038
E038
E038
E038
E038
E038
E038
F078
7FF8
3FB8
0038
0038
0038
0038
0038
0038
ENDCHAR
STARTCHAR afii10042
ENCODING 1064
SWIDTH 1004 0
DWIDTH 25 0
BBX 21 17 2 0
BITMAP
E07038
E07038
E07038
E07038
E07038
E07038
E07038
E07038
E07038
E07038
E07038
E07038
E07038
E07038
E07038
FFFFF8
FFFFF8
ENDCHAR
STARTCHAR afii10043
ENCODING 1065
SWIDTH 1019 0
DWIDTH 25 0
BBX 23 22 2 -5
BITMAP
E07038
E07038
E07038
E07038
E07038
E07038
E07038
E07038
E07038
E07038
E07038
E07038
E07038
E07038
E07038
FFFFFE
FFFFFE
00000E
00000E
00000E
00000E
00000E
ENDCHAR
STARTCHAR afii10044
ENCODING 1066
SWIDTH 869 0
DWIDTH 21 0
BBX 19 17 1 0
BITMAP
FF0000
FF0000
070000
070000
070000
070000
070000
07FF00
07FFC0
0701C0
0700E0
0700E0
0700E0
0700E0
0701C0
07FFC0
07FF00
ENDCHAR
STARTCHAR afii10045
ENCODING 1067
SWIDTH 979 0
DWIDTH 23 0
BBX 19 17 2 0
BITMAP
E000E0
E000E0
E000E0
E000E0
E000E0
E000E0
E000E0
FFE0E0
FFF8E0
E038E0
E01CE0
E01CE0
E01CE0
E01CE0
E038E0
FFF8E0
FFE0E0
ENDCHAR
STARTCHAR afii10046
ENCODING 1068
SWIDTH 718 0
DWIDTH 17 0
BBX 14 17 2 0
BITMAP
E000
E000
E000
E000
E000
E000
E000
FFE0
FFF8
E038
E01C
E01C
E01C
E01C
E038
FFF8
FFE0
ENDCHAR
STARTCHAR afii10047
ENCODING 1069
SWIDTH 711 0
DWIDTH 17 0
BBX 15 17 1 0
BITMAP
0FC0
3FF0
7838
F01C
601C
000E
000E
03FE
03FE
000E
000E
000E
601C
F01C
7878
3FF0
0FC0
ENDCHAR
STARTCHAR afii10048
ENCODING 1070
SWIDTH 1031 0
DWIDTH 25 0
BBX 22 17 2 0
BITMAP
E01F80
E03FE0
E07070
E0E038
E0E038
E1C01C
E1C01C
FFC01C
FFC01C
E1C01C
E1C01C
E1C01C
E0E038
E0E038
E07870
E03FE0
E00F80
ENDCHAR
STARTCHAR afii10049
ENCODING 1071
SWIDTH 718 0
DWIDTH 17 0
BBX 15 17 0 0
BITMAP
0FFE
3FFE
380E
700E
700E
700E
700E
380E
1FFE
07FE
0F0E
1E0E
1C0E
3C0E
780E
780E
F00E
ENDCHAR
STARTCHAR afii10065
ENCODING 1072
SWIDTH 556 0
DWIDTH 13 0
BBX 12 13 1 0
BITMAP
3F00
7F80
F3C0
E1C0
01C0
3FC0
7FC0
F1C0
E1C0
E1C0
E3C0
7EF0
3CF0
ENDCHAR
STARTCHAR afii10066
ENCODING 1073
SWIDTH 617 0
DWIDTH 15 0
BBX 13 17 1 0
BITMAP
00F0
0FF0
3FF0
7800
6000
CFC0
DFF0
F070
F038
E038
E038
E038
E038
7038
7070
3FE0
1FC0
ENDCHAR
STARTCHAR afii10067
ENCODING 1074
SWIDTH 614 0
DWIDTH 15 0
BBX 12 13 2 0
BITMAP
FFC0
FFE0
E0F0
E070
E070
FFC0
FFE0
E0F0
E070
E070
E0F0
FFE0
FFC0
ENDCHAR
STARTCHAR afii10068
ENCODING 1075
SWIDTH 416 0
DWIDTH 10 0
BBX 7 13 2 0
BITMAP
FE
FE
E0
E0
E0
E0
E0
E0
E0
E0
E0
E0
E0
ENDCHAR
STARTCHAR afii10069
ENCODING 1076
SWIDTH 634 0
DWIDTH 15 0
BBX 15 18 0 -5
BITMAP
0FF8
0FF8
0E38
0C38
1C38
1C38
1C38
1C38
1C38
1C38
3838
FFFE
FFFE
E00E
E00E
E00E
E00E
E00E
ENDCHAR
STARTCHAR afii10070
ENCODING 1077
SWIDTH 556 0
DWIDTH 13 0
BBX 11 13 1 0
BITMAP
1F00
3F80
71C0
E0E0
E0E0
FFE0
FFE0
E000
E000
E0E0
71C0
3FC0
1F00
ENDCHAR
STARTCHAR afii10072
ENCODING 1078
SWIDTH 708 0
DWIDTH 17 0
BBX 17 13 0 0
BITMAP
E1C380
71C700
71C700
39CE00
39CE00
1DDC00
1FFC00
1DDC00
39CE00
39CE00
71C700
71C700
E1C380
ENDCHAR
STARTCHAR afii10073
ENCODING 1079
SWIDTH 497 0
DWIDTH 12 0
BBX 10 13 1 0
BITMAP
3F00
7F80
F1C0
E1C0
03C0
0F80
0F80
03C0
01C0
E1C0
F3C0
7F80
3F00
ENDCHAR
STARTCHAR afii10074
ENCODING 1080
SWIDTH 614 0
DWIDTH 15 0
BBX 11 13 2 0
BITMAP
E1E0
E1E0
E3E0
E3E0
E7E0
E6E0
EEE0
ECE0
FCE0
F8E0
F8E0
F0E0
F0E0
ENDCHAR
STARTCHAR afii10075
ENCODING 1081
SWIDTH 614 0
DWIDTH 15 0
BBX 11 18 2 0
BITMAP
39C0
39C0
1F80
0F00
0000
E1E0
E1E0
E3E0
E3E0
E7E0
E6E0
EEE0
ECE0
FCE0
F8E0
F8E0
F0E0
F0E0
ENDCHAR
STARTCHAR afii10076
ENCODING 1082
SWIDTH 500 0
DWIDTH 12 0
BBX 10 13 2 0
BITMAP
E1C0
E380
E380
E700
E700
EE00
FE00
FE00
E700
E700
E380
E380
E1C0
ENDCHAR
STARTCHAR afii10077
ENCODING 1083
SWIDTH 635 0
DWIDTH 15 0
BBX 13 13 0 0
BITMAP
0FF8
0FF8
0E38
1C38
1C38
1C38
1C38
1C38
1C38
3838
3838
F838
F038
ENDCHAR
STARTCHAR afii10078
ENCODING 1084
SWIDTH 739 0
DWIDTH 19 0
BBX 15 13 2 0
BITMAP
F83E
F83E
F83E
FC7E
EC7E
EC6E
EEEE
E6EE
E6CE
E6CE
E7CE
E38E
E38E
ENDCHAR
STARTCHAR afii10079
ENCODING 1085
SWIDTH 604 0
DWIDTH 15 0
BBX 11 13 2 0
BITMAP
E0E0
E0E0
E0E0
E0E0
E0E0
FFE0
FFE0
E0E0
E0E0
E0E0
E0E0
E0E0
E0E0
ENDCHAR
STARTCHAR afii10080
ENCODING 1086
SWIDTH 610 0
DWIDTH 15 0
BBX 13 13 1 0
BITMAP
0FC0
3FE0
78F0
7070
E038
E038
E038
E038
E038
7070
78F0
3FE0
0F80
ENDCHAR
STARTCHAR afii10081
ENCODING 1087
SWIDTH 604 0
DWIDTH 15 0
BBX 11 13 2 0
BITMAP
FFE0
FFE0
E0E0
E0E0
E0E0
E0E0
E0E0
E0E0
E0E0
E0E0
E0E0
E0E0
E0E0
ENDCHAR
STARTCHAR afii10082
ENCODING 1088
SWIDTH 610 0
DWIDTH 15 0
BBX 12 18 2 -5
BITMAP
E780
EFE0
F0E0
F0F0
E070
E070
E070
E070
E070
F0F0
F0E0
FFC0
E780
E000
E000
E000
E000
E000
ENDCHAR
STARTCHAR afii10083
ENCODING 1089
SWIDTH 556 0
DWIDTH 13 0
BBX 11 13 1 0
BITMAP
1F00
3FC0
71E0
E0E0
E000
E000
E000
E000
E0E0
E0E0
71C0
3F80
1F00
ENDCHAR
STARTCHAR afii10084
ENCODING 1090
SWIDTH 489 0
DWIDTH 11 0
BBX 9 13 1 0
BITMAP
FF80
FF80
1C00
1C00
1C00
1C00
1C00
1C00
1C00
1C00
1C00
1C00
1C00
ENDCHAR
STARTCHAR afii10085
ENCODING 1091
SWIDTH 556 0
DWIDTH 13 0
BBX 13 18 0 -5
BITMAP
E038
F078
7070
7070
38F0
38E0
38E0
1DC0
1DC0
0DC0
0F80
0F80
0780
0700
0F00
0E00
7C00
7800
ENDCHAR
STARTCHAR afii10086
ENCODING 1092
SWIDTH 875 0
DWIDTH 21 0
BBX 19 22 1 -5
BITMAP
00E000
00E000
00E000
00E000
3CE780
7FFFC0
71F1C0
E0E0E0
E0E0E0
E0E0E0
E0E0E0
E0E0E0
E0E0E0
E0E0E0
71F1C0
7FFFC0
3CE780
00E000
00E000
00E000
00E000
00E000
ENDCHAR
STARTCHAR afii10087
ENCODING 1093
SWIDTH 556 0
DWIDTH 13 0
BBX 13 13 0 0
BITMAP
F078
70F0
38E0
3DC0
1FC0
0F80
0F00
0F80
1FC0
3DE0
38E0
7070
F078
ENDCHAR
STARTCHAR afii10088
ENCODING 1094
SWIDTH 614 0
DWIDTH 15 0
BBX 13 18 2 -5
BITMAP
E0E0
E0E0
E0E0
E0E0
E0E0
E0E0
E0E0
E0E0
E0E0
E0E0
E0E0
FFF8
FFF8
0038
0038
0038
0038
0038
ENDCHAR
STARTCHAR afii10089
ENCODING 1095
SWIDTH 580 0
DWIDTH 14 0
BBX 11 13 1 0
BITMAP
E0E0
E0E0
E0E0
E0E0
E0E0
E0E0
F1E0
7FE0
3EE0
00E0
00E0
00E0
00E0
ENDCHAR
STARTCHAR afii10090
ENCODING 1096
SWIDTH 833 0
DWIDTH 21 0
BBX 17 13 2 0
BITMAP
E1C380
E1C380
E1C380
E1C380
E1C380
E1C380
E1C380
E1C380
E1C380
E1C380
E1C380
FFFF80
FFFF80
ENDCHAR
STARTCHAR afii10091
ENCODING 1097
SWIDTH 843 0
DWIDTH 21 0
BBX 19 18 2 -5
BITMAP
E1C380
E1C380
E1C380
E1C380
E1C380
E1C380
E1C380
E1C380
E1C380
E1C380
E1C380
FFFFE0
FFFFE0
0000E0
0000E0
0000E0
0000E0
0000E0
ENDCHAR
STARTCHAR afii10092
ENCODING 1098
SWIDTH 729 0
DWIDTH 18 0
BBX 17 13 0 0
BITMAP
FF0000
FF0000
070000
070000
070000
07FE00
07FF00
070780
070380
070380
070780
07FF00
07FE00
ENDCHAR
STARTCHAR afii10093
ENCODING 1099
SWIDTH 854 0
DWIDTH 21 0
BBX 17 13 2 0
BITMAP
E00380
E00380
E00380
E00380
E00380
FFC380
FFE380
E0F380
E07380
E07380
E0F380
FFE380
FFC380
ENDCHAR
STARTCHAR afii10094
ENCODING 1100
SWIDTH 614 0
DWIDTH 15 0
BBX 12 13 2 0
BITMAP
E000
E000
E000
E000
E000
FFC0
FFE0
E0F0
E070
E070
E0F0
FFE0
FFC0
ENDCHAR
STARTCHAR afii10095
ENCODING 1101
SWIDTH 552 0
DWIDTH 13 0
BBX 11 13 1 0
BITMAP
1F00
7F80
F1C0
E0E0
00E0
0FE0
0FE0
00E0
E0E0
E0E0
71C0
3F80
1F00
ENDCHAR
STARTCHAR afii10096
ENCODING 1102
SWIDTH 854 0
DWIDTH 21 0
BBX 18 13 2 0
BITMAP
E07E00
E0FF00
E1C380
E3C3C0
E381C0
FF81C0
FF81C0
E381C0
E381C0
E1C380
E1C380
E0FF00
E07E00
ENDCHAR
STARTCHAR afii10097
ENCODING 1103
SWIDTH 583 0
DWIDTH 14 0
BBX 12 13 0 0
BITMAP
1FF0
3FF0
7870
7070
7070
7870
3FF0
1FF0
1C70
3C70
3870
7070
F070
ENDCHAR
STARTCHAR afii10071
ENCODING 1105
SWIDTH 556 0
DWIDTH 13 0
BBX 11 17 1 0
BITMAP
39C0
39C0
39C0
0000
1F00
3F80
71C0
E0E0
E0E0
FFE0
FFE0
E000
E000
E0E0
71C0
3FC0
1F00
ENDCHAR
STARTCHAR afii10099
ENCODING 1106
SWIDTH 610 0
DWIDTH 15 0
BBX 13 22 0 -5
BITMAP
3800
3800
FF80
FF80
3800
39E0
3BF0
3C78
3838
3838
3838
3838
3838
3838
3838
3838
3838
0038
0038
0038
00F8
00F0
ENDCHAR
STARTCHAR afii10100
ENCODING 1107
SWIDTH 416 0
DWIDTH 10 0
BBX 8 18 2 0
BITMAP
07
0E
1C
38
00
FE
FE
E0
E0
E0
E0
E0
E0
E0
E0
E0
E0
E0
ENDCHAR
STARTCHAR afii10101
ENCODING 1108
SWIDTH 552 0
DWIDTH 13 0
BBX 11 13 1 0
BITMAP
1F00
3FC0
71E0
E0E0
E000
FE00
FE00
E000
E0E0
E0E0
71C0
3F80
1F00
ENDCHAR
STARTCHAR afii10102
ENCODING 1109
SWIDTH 556 0
DWIDTH 13 0
BBX 11 13 1 0
BITMAP
3F00
7FC0
E1E0
E0E0
F000
FF00
7FC0
0FE0
01E0
E0E0
F1E0
7FC0
3F80
ENDCHAR
STARTCHAR afii10103
ENCODING 1110
SWIDTH 277 0
DWIDTH 7 0
BBX 3 17 2 0
BITMAP
E0
E0
E0
00
E0
E0
E0
E0
E0
E0
E0
E0
E0
E0
E0
E0
E0
ENDCHAR
STARTCHAR afii10104
ENCODING 1111
SWIDTH 281 0
DWIDTH 7 0
BBX 8 17 0 0
BITMAP
E7
E7
E7
00
38
38
38
38
38
38
38
38
38
38
38
38
38
ENDCHAR
STARTCHAR afii10105
ENCODING 1112
SWIDTH 277 0
DWIDTH 7 0
BBX 5 22 0 -5
BITMAP
38
38
38
00
38
38
38
38
38
38
38
38
38
38
38
38
38
38
38
38
F8
F0
ENDCHAR
STARTCHAR afii10106
ENCODING 1113
SWIDTH 968 0
DWIDTH 23 0
BBX 22 13 0 0
BITMAP
0FF800
0FF800
0E3800
1C3800
1C3800
1C3FF0
1C3FF8
1C383C
1C381C
38381C
38383C
F83FF8
F03FF0
ENDCHAR
STARTCHAR afii10107
ENCODING 1114
SWIDTH 906 0
DWIDTH 22 0
BBX 19 13 2 0
BITMAP
E0E000
E0E000
E0E000
E0E000
E0E000
FFFF80
FFFFC0
E0E1E0
E0E0E0
E0E0E0
E0E1E0
E0FFC0
E0FF80
ENDCHAR
STARTCHAR afii10108
ENCODING 1115
SWIDTH 610 0
DWIDTH 15 0
BBX 13 17 0 0
BITMAP
3800
3800
FF80
FF80
3800
39E0
3BF0
3C78
3838
3838
3838
3838
3838
3838
3838
3838
3838
ENDCHAR
STARTCHAR afii10109
ENCODING 1116
SWIDTH 500 0
DWIDTH 12 0
BBX 10 18 2 0
BITMAP
0380
0700
0E00
1C00
0000
E1C0
E380
E380
E700
E700
EE00
FE00
FE00
E700
E700
E380
E380
E1C0
ENDCHAR
STARTCHAR afii10110
ENCODING 1118
SWIDTH 556 0
DWIDTH 13 0
BBX 13 23 0 -5
BITMAP
1CE0
1CE0
0FC0
0780
0000
E038
F078
7070
7070
38F0
38E0
38E0
1DC0
1DC0
0DC0
0F80
0F80
0780
0700
0F00
0E00
7C00
7800
ENDCHAR
STARTCHAR afii10193
ENCODING 1119
SWIDTH 604 0
DWIDTH 15 0
BBX 11 18 2 -5
BITMAP
E0E0
E0E0
E0E0
E0E0
E0E0
E0E0
E0E0
E0E0
E0E0
E0E0
E0E0
FFE0
FFE0
0E00
0E00
0E00
0E00
0E00
ENDCHAR
STARTCHAR afii10050
ENCODING 1168
SWIDTH 486 0
DWIDTH 12 0
BBX 10 22 2 0
BITMAP
01C0
01C0
01C0
01C0
01C0
FFC0
FFC0
E000
E000
E000
E000
E000
E000
E000
E000
E000
E000
E000
E000
E000
E000
E000
ENDCHAR
STARTCHAR afii10098
ENCODING 1169
SWIDTH 446 0
DWIDTH 11 0
BBX 9 17 2 0
BITMAP
0380
0380
0380
0380
FF80
FF80
E000
E000
E000
E000
E000
E000
E000
E000
E000
E000
E000
ENDCHAR
STARTCHAR Wgrave
ENCODING 7808
SWIDTH 943 0
DWIDTH 23 0
BBX 23 21 0 0
BITMAP
00F000
003800
001C00
000000
E0781E
F07C1C
F07C1C
707C3C
70FC3C
70EE38
78EE38
38EE38
39CE78
39CE70
3DC770
1DC770
1D8770
1F87E0
1F83E0
0F83E0
0F03E0
ENDCHAR
STARTCHAR wgrave
ENCODING 7809
SWIDTH 777 0
DWIDTH 19 0
BBX 19 18 0 0
BITMAP
038000
01C000
00E000
007000
000000
E0E0E0
E1F0E0
E1B0E0
71B1C0
73B9C0
73B9C0
7319C0
331980
3F1F80
3F1F80
3E0F80
1E0F00
1E0F00
ENDCHAR
STARTCHAR Wacute
ENCODING 7810
SWIDTH 943 0
DWIDTH 23 0
BBX 23 21 0 0
BITMAP
000F00
001C00
003800
000000
E0781E
F07C1C
F07C1C
707C3C
70FC3C
70EE38
78EE38
38EE38
39CE78
39CE70
3DC770
1DC770
1D8770
1F87E0
1F83E0
0F83E0
0F03E0
ENDCHAR
STARTCHAR wacute
ENCODING 7811
SWIDTH 777 0
DWIDTH 19 0
BBX 19 18 0 0
BITMAP
001C00
003800
007000
00E000
000000
E0E0E0
E1F0E0
E1B0E0
71B1C0
73B9C0
73B9C0
7319C0
331980
3F1F80
3F1F80
3E0F80
1E0F00
1E0F00
ENDCHAR
STARTCHAR Wdieresis
ENCODING 7812
SWIDTH 943 0
DWIDTH 23 0
BBX 23 21 0 0
BITMAP
01CE00
01CE00
01CE00
000000
E0781E
F07C1C
F07C1C
707C3C
70FC3C
70EE38
78EE38
38EE38
39CE78
39CE70
3DC770
1DC770
1D8770
1F87E0
1F83E0
0F83E0
0F03E0
ENDCHAR
STARTCHAR wdieresis
ENCODING 7813
SWIDTH 777 0
DWIDTH 19 0
BBX 19 17 0 0
BITMAP
039C00
039C00
039C00
000000
E0E0E0
E1F0E0
E1B0E0
71B1C0
73B9C0
73B9C0
7319C0
331980
3F1F80
3F1F80
3E0F80
1E0F00
1E0F00
ENDCHAR
STARTCHAR Ygrave
ENCODING 7922
SWIDTH 666 0
DWIDTH 15 0
BBX 13 21 1 0
BITMAP
1E00
0700
0380
0000
F078
7070
70F0
38E0
38E0
1DC0
1DC0
0F80
0F80
0700
0700
0700
0700
0700
0700
0700
0700
ENDCHAR
STARTCHAR ygrave
ENCODING 7923
SWIDTH 556 0
DWIDTH 13 0
BBX 13 23 0 -5
BITMAP
3800
1C00
0E00
0700
0000
E038
F078
7070
7070
38F0
38E0
38E0
1DC0
1DC0
0DC0
0F80
0F80
0780
0700
0F00
0E00
7C00
7800
ENDCHAR
STARTCHAR uni2010
ENCODING 8208
SWIDTH 333 0
DWIDTH 8 0
BBX 6 3 1 5
BITMAP
FC
FC
FC
ENDCHAR
STARTCHAR uni2011
ENCODING 8209
SWIDTH 333 0
DWIDTH 8 0
BBX 6 3 1 5
BITMAP
FC
FC
FC
ENDCHAR
STARTCHAR figuredash
ENCODING 8210
SWIDTH 333 0
DWIDTH 8 0
BBX 6 3 1 5
BITMAP
FC
FC
FC
ENDCHAR
STARTCHAR endash
ENCODING 8211
SWIDTH 556 0
DWIDTH 13 0
BBX 12 2 1 6
BITMAP
FFF0
FFF0
ENDCHAR
STARTCHAR emdash
ENCODING 8212
SWIDTH 1000 0
DWIDTH 24 0
BBX 24 2 0 6
BITMAP
FFFFFF
FFFFFF
ENDCHAR
STARTCHAR afii00208
ENCODING 8213
SWIDTH 1000 0
DWIDTH 24 0
BBX 24 2 0 6
BITMAP
FFFFFF
FFFFFF
ENDCHAR
STARTCHAR underscoredbl
ENCODING 8215
SWIDTH 552 0
DWIDTH 13 0
BBX 14 4 0 -6
BITMAP
FFFC
0000
0000
FFFC
ENDCHAR
STARTCHAR quoteleft
ENCODING 8216
SWIDTH 277 0
DWIDTH 7 0
BBX 3 8 2 9
BITMAP
60
C0
C0
C0
E0
E0
E0
E0
ENDCHAR
STARTCHAR quoteright
ENCODING 8217
SWIDTH 277 0
DWIDTH 7 0
BBX 3 8 2 9
BITMAP
E0
E0
E0
E0
60
60
60
C0
ENDCHAR
STARTCHAR quotesinglbase
ENCODING 8218
SWIDTH 277 0
DWIDTH 7 0
BBX 3 8 2 -4
BITMAP
E0
E0
E0
E0
60
60
60
C0
ENDCHAR
STARTCHAR quotereversed
ENCODING 8219
SWIDTH 277 0
DWIDTH 7 0
BBX 3 8 2 9
BITMAP
E0
E0
E0
E0
C0
C0
C0
60
ENDCHAR
STARTCHAR quotedblleft
ENCODING 8220
SWIDTH 500 0
DWIDTH 12 0
BBX 8 8 2 9
BITMAP
63
C6
C6
C6
E7
E7
E7
E7
ENDCHAR
STARTCHAR quotedblright
ENCODING 8221
SWIDTH 500 0
DWIDTH 12 0
BBX 8 8 2 9
BITMAP
E7
E7
E7
E7
63
63
63
C6
ENDCHAR
STARTCHAR quotedblbase
ENCODING 8222
SWIDTH 500 0
DWIDTH 12 0
BBX 8 8 2 -4
BITMAP
E7
E7
E7
E7
63
63
63
C6
ENDCHAR
STARTCHAR dagger
ENCODING 8224
SWIDTH 556 0
DWIDTH 13 0
BBX 11 19 1 -2
BITMAP
0E00
0E00
0E00
0E00
FFE0
FFE0
0E00
0E00
0E00
0E00
0E00
0E00
0E00
0E00
0600
0400
0400
0400
0400
ENDCHAR
STARTCHAR daggerdbl
ENCODING 8225
SWIDTH 556 0
DWIDTH 13 0
BBX 11 19 1 -2
BITMAP
0E00
0E00
0E00
0E00
FFE0
FFE0
0E00
0E00
0E00
0400
0E00
0E00
0E00
FFE0
FFE0
0E00
0E00
0E00
0E00
ENDCHAR
STARTCHAR bullet
ENCODING 8226
SWIDTH 350 0
DWIDTH 8 0
BBX 7 7 0 4
BITMAP
38
7C
FE
FE
FE
7C
38
ENDCHAR
STARTCHAR ellipsis
ENCODING 8230
SWIDTH 1000 0
DWIDTH 24 0
BBX 19 4 2 0
BITMAP
E0E0E0
E0E0E0
E0E0E0
E0E0E0
ENDCHAR
STARTCHAR perthousand
ENCODING 8240
SWIDTH 1000 0
DWIDTH 23 0
BBX 23 17 0 0
BITMAP
7C0C00
FC1800
EE3800
EE3000
EE7000
EE6000
7CC000
7DC000
018000
03FC7C
03FCFC
06EEEE
0EEEEE
0CEEEE
1CEEEE
187C7C
307C7C
ENDCHAR
STARTCHAR minute
ENCODING 8242
SWIDTH 239 0
DWIDTH 6 0
BBX 4 6 1 11
BITMAP
70
70
60
60
E0
E0
ENDCHAR
STARTCHAR second
ENCODING 8243
SWIDTH 479 0
DWIDTH 12 0
BBX 10 6 1 11
BITMAP
71C0
71C0
6180
6180
E380
E380
ENDCHAR
STARTCHAR guilsinglleft
ENCODING 8249
SWIDTH 333 0
DWIDTH 8 0
BBX 6 9 1 2
BITMAP
1C
38
70
F0
E0
F0
70
38
1C
ENDCHAR
STARTCHAR guilsinglright
ENCODING 8250
SWIDTH 333 0
DWIDTH 8 0
BBX 6 9 1 2
BITMAP
E0
70
38
3C
1C
3C
38
70
E0
ENDCHAR
STARTCHAR exclamdbl
ENCODING 8252
SWIDTH 604 0
DWIDTH 15 0
BBX 10 17 2 0
BITMAP
E1C0
E1C0
E1C0
E1C0
E1C0
E1C0
E1C0
E1C0
E1C0
E1C0
E1C0
0000
0000
E1C0
E1C0
E1C0
E1C0
ENDCHAR
STARTCHAR uni203E
ENCODING 8254
SWIDTH 333 0
DWIDTH 8 0
BBX 12 2 -2 17
BITMAP
FFF0
FFF0
ENDCHAR
STARTCHAR fraction
ENCODING 8260
SWIDTH 166 0
DWIDTH 4 0
BBX 12 17 -4 0
BITMAP
0030
0060
00E0
00C0
01C0
0180
0300
0700
0600
0E00
0C00
1800
3800
3000
7000
6000
C000
ENDCHAR
STARTCHAR uni207F
ENCODING 8319
SWIDTH 395 0
DWIDTH 10 0
BBX 8 8 1 6
BITMAP
DE
E3
C3
C3
C3
C3
C3
C3
ENDCHAR
STARTCHAR franc
ENCODING 8355
SWIDTH 556 0
DWIDTH 13 0
BBX 12 17 0 0
BITMAP
3FF0
3FF0
3800
3800
3800
3800
3800
3FF0
3FF0
3800
3800
3800
FF00
FF00
3800
3800
3800
ENDCHAR
STARTCHAR lira
ENCODING 8356
SWIDTH 556 0
DWIDTH 13 0
BBX 11 17 1 0
BITMAP
0F00
1F80
39C0
39C0
3800
3800
FF00
FF00
3800
FF00
FF00
3800
38E0
30E0
71C0
FFC0
FF80
ENDCHAR
STARTCHAR peseta
ENCODING 8359
SWIDTH 1093 0
DWIDTH 24 0
BBX 21 17 2 0
BITMAP
FC0000
FF0000
E70000
E38000
E39800
E39800
E3B800
E7FEF0
FF7FF8
FE39C8
E039E0
E039F0
E038F8
E03838
E03B38
E03FF8
E01FF0
ENDCHAR
STARTCHAR Euro
ENCODING 8364
SWIDTH 556 0
DWIDTH 13 0
BBX 12 17 0 0
BITMAP
0FC0
1FE0
38F0
3870
7000
7000
FF00
FF00
7000
FF00
FF00
7000
7000
3870
38F0
1FE0
0FC0
ENDCHAR
STARTCHAR afii61248
ENCODING 8453
SWIDTH 885 0
DWIDTH 21 0
BBX 19 17 1 0
BITMAP
3C0700
7E0600
E70E00
E00C00
E01800
E03800
E03000
E76780
7EEFC0
3CDCE0
019CE0
039CE0
031CE0
061CE0
0E1CE0
0C0FC0
180780
ENDCHAR
STARTCHAR afii61289
ENCODING 8467
SWIDTH 488 0
DWIDTH 12 0
BBX 11 17 0 0
BITMAP
0F80
1FC0
38E0
38E0
38E0
38E0
39C0
3B80
3F00
7C00
F800
B800
38E0
38E0
39C0
1F80
0F00
ENDCHAR
STARTCHAR afii61352
ENCODING 8470
SWIDTH 1114 0
DWIDTH 27 0
BBX 24 17 2 0
BITMAP
F01C00
F81C00
F81C00
FC1C00
FC1C00
EE1C3C
EE1C7E
E71CE7
E79CE7
E39CE7
E1DCE7
E1DCE7
E0FC7E
E0FC3C
E07C00
E07CFF
E03CFF
ENDCHAR
STARTCHAR trademark
ENCODING 8482
SWIDTH 1000 0
DWIDTH 24 0
BBX 20 8 1 9
BITMAP
FF7070
FF78F0
1878F0
186DB0
186DB0
1865B0
186730
186730
ENDCHAR
STARTCHAR u2126
ENCODING 8486
SWIDTH 768 0
DWIDTH 18 0
BBX 16 17 1 0
BITMAP
07E0
1FF8
3C3C
700E
F00F
E007
E007
E007
E007
E007
E00F
700E
781C
3C3C
0E70
FE7F
FE7F
ENDCHAR
STARTCHAR estimated
ENCODING 8494
SWIDTH 600 0
DWIDTH 14 0
BBX 12 13 1 0
BITMAP
0F00
30C0
6060
6060
E070
E070
FFF0
E000
E000
6000
6020
30C0
1F80
ENDCHAR
STARTCHAR oneeighth
ENCODING 8539
SWIDTH 833 0
DWIDTH 20 0
BBX 17 17 1 0
BITMAP
700600
F00C00
B01C00
301800
303800
303000
306000
FCE000
00C000
01CF00
019980
031980
070F00
061980
0E1980
0C1980
180F00
ENDCHAR
STARTCHAR threeeighths
ENCODING 8540
SWIDTH 833 0
DWIDTH 20 0
BBX 17 17 1 0
BITMAP
780600
CC0C00
0C1C00
301800
0C3800
CC3000
CC6000
78E000
00C000
01CF00
019980
031980
070F00
061980
0E1980
0C1980
180F00
ENDCHAR
STARTCHAR fiveeighths
ENCODING 8541
SWIDTH 833 0
DWIDTH 20 0
BBX 16 17 2 0
BITMAP
FC0C
C018
F838
CC30
0C70
CC60
CCC0
79C0
0180
039E
0333
0633
0E1E
0C33
1C33
1833
301E
ENDCHAR
STARTCHAR seveneighths
ENCODING 8542
SWIDTH 833 0
DWIDTH 20 0
BBX 16 17 2 0
BITMAP
FC0C
0818
1838
3030
3070
6060
60C0
61C0
0180
039E
0333
0633
0E1E
0C33
1C33
1833
301E
ENDCHAR
STARTCHAR arrowleft
ENCODING 8592
SWIDTH 1000 0
DWIDTH 24 0
BBX 14 5 5 1
BITMAP
3000
6000
FFFC
6000
3000
ENDCHAR
STARTCHAR arrowup
ENCODING 8593
SWIDTH 500 0
DWIDTH 12 0
BBX 5 14 4 -1
BITMAP
20
70
F8
A8
20
20
20
20
20
20
20
20
20
20
ENDCHAR
STARTCHAR arrowright
ENCODING 8594
SWIDTH 1000 0
DWIDTH 24 0
BBX 14 5 5 1
BITMAP
0030
0018
FFFC
0018
0030
ENDCHAR
STARTCHAR arrowdown
ENCODING 8595
SWIDTH 500 0
DWIDTH 12 0
BBX 5 14 4 -1
BITMAP
20
20
20
20
20
20
20
20
20
20
A8
F8
70
20
ENDCHAR
STARTCHAR arrowboth
ENCODING 8596
SWIDTH 1000 0
DWIDTH 24 0
BBX 14 5 5 1
BITMAP
3030
6018
FFFC
6018
3030
ENDCHAR
STARTCHAR arrowupdn
ENCODING 8597
SWIDTH 500 0
DWIDTH 12 0
BBX 5 14 4 -1
BITMAP
20
70
F8
A8
20
20
20
20
20
20
A8
F8
70
20
ENDCHAR
STARTCHAR arrowupdnbse
ENCODING 8616
SWIDTH 500 0
DWIDTH 12 0
BBX 5 16 4 -3
BITMAP
20
70
F8
A8
20
20
20
20
20
20
A8
F8
70
20
00
F8
ENDCHAR
STARTCHAR partialdiff
ENCODING 8706
SWIDTH 494 0
DWIDTH 12 0
BBX 12 17 0 0
BITMAP
0F80
1FC0
10E0
00F0
0070
0070
1F70
3FF0
78F0
70F0
E0F0
E0E0
E0E0
E1C0
F3C0
7F80
3E00
ENDCHAR
STARTCHAR u2206
ENCODING 8710
SWIDTH 611 0
DWIDTH 15 0
BBX 13 17 1 0
BITMAP
0F80
0F80
0F80
1DC0
1DC0
1DC0
3DE0
38E0
38E0
78F0
78F0
7070
7070
F078
F078
FFF8
FFF8
ENDCHAR
STARTCHAR product
ENCODING 8719
SWIDTH 823 0
DWIDTH 20 0
BBX 16 22 2 -5
BITMAP
FFFF
FFFF
E007
E007
E007
E007
E007
E007
E007
E007
E007
E007
E007
E007
E007
E007
E007
E007
E007
E007
E007
E007
ENDCHAR
STARTCHAR summation
ENCODING 8721
SWIDTH 712 0
DWIDTH 17 0
BBX 14 22 2 -5
BITMAP
FFF8
FFF8
6000
3000
1800
0C00
0E00
0700
0380
01C0
00E0
01C0
0380
0300
0700
0E00
1C00
3800
3000
6000
FFFC
FFFC
ENDCHAR
STARTCHAR minus
ENCODING 8722
SWIDTH 583 0
DWIDTH 14 0
BBX 12 2 1 7
BITMAP
FFF0
FFF0
ENDCHAR
STARTCHAR fraction.dup4
ENCODING 8725
SWIDTH 166 0
DWIDTH 4 0
BBX 12 17 -4 0
BITMAP
0030
0060
00E0
00C0
01C0
0180
0300
0700
0600
0E00
0C00
1800
3800
3000
7000
6000
C000
ENDCHAR
STARTCHAR periodcentered.dup5
ENCODING 8729
SWIDTH 277 0
DWIDTH 7 0
BBX 3 4 2 6
BITMAP
E0
E0
E0
E0
ENDCHAR
STARTCHAR radical
ENCODING 8730
SWIDTH 548 0
DWIDTH 13 0
BBX 13 19 0 0
BITMAP
0018
0018
0030
0030
0030
0070
0060
0060
F0E0
F0C0
30C0
19C0
1980
1980
0F80
0F00
0F00
0700
0600
ENDCHAR
STARTCHAR infinity
ENCODING 8734
SWIDTH 712 0
DWIDTH 17 0
BBX 15 8 1 3
BITMAP
3C38
7EFC
E6CE
C386
C386
E6C6
7EFC
3C78
ENDCHAR
STARTCHAR orthogonal
ENCODING 8735
SWIDTH 979 0
DWIDTH 24 0
BBX 14 14 5 0
BITMAP
8000
8000
8000
8000
8000
8000
8000
8000
8000
8000
8000
8000
8000
FFFC
ENDCHAR
STARTCHAR intersection
ENCODING 8745
SWIDTH 722 0
DWIDTH 17 0
BBX 12 12 3 0
BITMAP
1F80
3FC0
70E0
E060
C030
C030
C030
C030
C030
C030
C030
C030
ENDCHAR
STARTCHAR integral
ENCODING 8747
SWIDTH 273 0
DWIDTH 7 0
BBX 9 22 -1 -5
BITMAP
0780
0F80
1E00
1C00
1C00
1C00
1C00
1C00
1C00
1C00
1C00
1C00
1C00
1C00
1C00
1C00
1C00
1C00
1C00
3C00
F800
F000
ENDCHAR
STARTCHAR approxequal
ENCODING 8776
SWIDTH 548 0
DWIDTH 13 0
BBX 11 10 1 3
BITMAP
7800
FE20
8FE0
03C0
0000
0000
7800
FE20
8FE0
03C0
ENDCHAR
STARTCHAR notequal
ENCODING 8800
SWIDTH 548 0
DWIDTH 13 0
BBX 11 14 1 1
BITMAP
01C0
0180
0380
FFE0
FFE0
0600
0E00
0E00
0C00
FFE0
FFE0
3800
3000
7000
ENDCHAR
STARTCHAR equivalence
ENCODING 8801
SWIDTH 583 0
DWIDTH 14 0
BBX 12 10 1 3
BITMAP
FFF0
FFF0
0000
0000
FFF0
FFF0
0000
0000
FFF0
FFF0
ENDCHAR
STARTCHAR lessequal
ENCODING 8804
SWIDTH 548 0
DWIDTH 13 0
BBX 11 15 1 0
BITMAP
0020
01E0
0FE0
7FC0
FE00
F000
F000
FE00
7FC0
0FE0
01E0
0020
0000
FFE0
FFE0
ENDCHAR
STARTCHAR greaterequal
ENCODING 8805
SWIDTH 548 0
DWIDTH 13 0
BBX 11 15 1 0
BITMAP
C000
F000
FE00
7FC0
0FE0
01E0
01E0
0FE0
7FC0
FE00
F000
8000
0000
FFE0
FFE0
ENDCHAR
STARTCHAR house
ENCODING 8962
SWIDTH 604 0
DWIDTH 15 0
BBX 11 13 2 0
BITMAP
0400
0A00
1100
2080
4040
8020
8020
8020
8020
8020
8020
8020
FFE0
ENDCHAR
STARTCHAR revlogicalnot
ENCODING 8976
SWIDTH 583 0
DWIDTH 14 0
BBX 12 7 1 2
BITMAP
FFF0
FFF0
C000
C000
C000
C000
C000
ENDCHAR
STARTCHAR integraltp
ENCODING 8992
SWIDTH 604 0
DWIDTH 15 0
BBX 5 27 6 -7
BITMAP
38
58
C0
C0
C0
C0
C0
C0
C0
C0
C0
C0
C0
C0
C0
C0
C0
C0
C0
C0
C0
C0
C0
C0
C0
C0
C0
ENDCHAR
STARTCHAR integralbt
ENCODING 8993
SWIDTH 604 0
DWIDTH 15 0
BBX 5 27 3 -7
BITMAP
18
18
18
18
18
18
18
18
18
18
18
18
18
18
18
18
18
18
18
18
18
18
18
18
18
D0
E0
ENDCHAR
STARTCHAR SF100000
ENCODING 9472
SWIDTH 708 0
DWIDTH 17 0
BBX 17 2 0 6
BITMAP
FFFF80
FFFF80
ENDCHAR
STARTCHAR SF110000
ENCODING 9474
SWIDTH 625 0
DWIDTH 15 0
BBX 2 29 6 -7
BITMAP
C0
C0
C0
C0
C0
C0
C0
C0
C0
C0
C0
C0
C0
C0
C0
C0
C0
C0
C0
C0
C0
C0
C0
C0
C0
C0
C0
C0
C0
ENDCHAR
STARTCHAR SF010000
ENCODING 9484
SWIDTH 708 0
DWIDTH 17 0
BBX 9 15 8 -7
BITMAP
FF80
FF80
C000
C000
C000
C000
C000
C000
C000
C000
C000
C000
C000
C000
C000
ENDCHAR
STARTCHAR SF030000
ENCODING 9488
SWIDTH 708 0
DWIDTH 17 0
BBX 10 15 0 -7
BITMAP
FFC0
FFC0
00C0
00C0
00C0
00C0
00C0
00C0
00C0
00C0
00C0
00C0
00C0
00C0
00C0
ENDCHAR
STARTCHAR SF020000
ENCODING 9492
SWIDTH 708 0
DWIDTH 17 0
BBX 9 16 8 6
BITMAP
C000
C000
C000
C000
C000
C000
C000
C000
C000
C000
C000
C000
C000
C000
FF80
FF80
ENDCHAR
STARTCHAR SF040000
ENCODING 9496
SWIDTH 708 0
DWIDTH 17 0
BBX 10 16 0 6
BITMAP
00C0
00C0
00C0
00C0
00C0
00C0
00C0
00C0
00C0
00C0
00C0
00C0
00C0
00C0
FFC0
FFC0
ENDCHAR
STARTCHAR SF080000
ENCODING 9500
SWIDTH 708 0
DWIDTH 17 0
BBX 9 29 8 -7
BITMAP
C000
C000
C000
C000
C000
C000
C000
C000
C000
C000
C000
C000
C000
C000
FF80
FF80
C000
C000
C000
C000
C000
C000
C000
C000
C000
C000
C000
C000
C000
ENDCHAR
STARTCHAR SF090000
ENCODING 9508
SWIDTH 708 0
DWIDTH 17 0
BBX 10 29 0 -7
BITMAP
00C0
00C0
00C0
00C0
00C0
00C0
00C0
00C0
00C0
00C0
00C0
00C0
00C0
00C0
FFC0
FFC0
00C0
00C0
00C0
00C0
00C0
00C0
00C0
00C0
00C0
00C0
00C0
00C0
00C0
ENDCHAR
STARTCHAR SF060000
ENCODING 9516
SWIDTH 708 0
DWIDTH 17 0
BBX 17 15 0 -7
BITMAP
FFFF80
FFFF80
00C000
00C000
00C000
00C000
00C000
00C000
00C000
00C000
00C000
00C000
00C000
00C000
00C000
ENDCHAR
STARTCHAR SF070000
ENCODING 9524
SWIDTH 708 0
DWIDTH 17 0
BBX 17 16 0 6
BITMAP
00C000
00C000
00C000
00C000
00C000
00C000
00C000
00C000
00C000
00C000
00C000
00C000
00C000
00C000
FFFF80
FFFF80
ENDCHAR
STARTCHAR SF050000
ENCODING 9532
SWIDTH 708 0
DWIDTH 17 0
BBX 17 29 0 -7
BITMAP
00C000
00C000
00C000
00C000
00C000
00C000
00C000
00C000
00C000
00C000
00C000
00C000
00C000
00C000
FFFF80
FFFF80
00C000
00C000
00C000
00C000
00C000
00C000
00C000
00C000
00C000
00C000
00C000
00C000
00C000
ENDCHAR
STARTCHAR SF430000
ENCODING 9552
SWIDTH 708 0
DWIDTH 17 0
BBX 17 6 0 4
BITMAP
FFFF80
FFFF80
000000
000000
FFFF80
FFFF80
ENDCHAR
STARTCHAR SF240000
ENCODING 9553
SWIDTH 708 0
DWIDTH 17 0
BBX 6 29 6 -7
BITMAP
CC
CC
CC
CC
CC
CC
CC
CC
CC
CC
CC
CC
CC
CC
CC
CC
CC
CC
CC
CC
CC
CC
CC
CC
CC
CC
CC
CC
CC
ENDCHAR
STARTCHAR SF510000
ENCODING 9554
SWIDTH 708 0
DWIDTH 17 0
BBX 9 17 8 -7
BITMAP
FF80
FF80
C000
C000
FF80
FF80
C000
C000
C000
C000
C000
C000
C000
C000
C000
C000
C000
ENDCHAR
STARTCHAR SF520000
ENCODING 9555
SWIDTH 708 0
DWIDTH 17 0
BBX 11 15 6 -7
BITMAP
FFE0
FFE0
CC00
CC00
CC00
CC00
CC00
CC00
CC00
CC00
CC00
CC00
CC00
CC00
CC00
ENDCHAR
STARTCHAR SF390000
ENCODING 9556
SWIDTH 708 0
DWIDTH 17 0
BBX 11 17 6 -7
BITMAP
FFE0
FFE0
C000
C000
CFE0
CFE0
CC00
CC00
CC00
CC00
CC00
CC00
CC00
CC00
CC00
CC00
CC00
ENDCHAR
STARTCHAR SF220000
ENCODING 9557
SWIDTH 708 0
DWIDTH 17 0
BBX 10 17 0 -7
BITMAP
FFC0
FFC0
00C0
00C0
FFC0
FFC0
00C0
00C0
00C0
00C0
00C0
00C0
00C0
00C0
00C0
00C0
00C0
ENDCHAR
STARTCHAR SF210000
ENCODING 9558
SWIDTH 708 0
DWIDTH 17 0
BBX 12 15 0 -7
BITMAP
FFF0
FFF0
0330
0330
0330
0330
0330
0330
0330
0330
0330
0330
0330
0330
0330
ENDCHAR
STARTCHAR SF250000
ENCODING 9559
SWIDTH 708 0
DWIDTH 17 0
BBX 12 17 0 -7
BITMAP
FFF0
FFF0
0030
0030
FF30
FF30
0330
0330
0330
0330
0330
0330
0330
0330
0330
0330
0330
ENDCHAR
STARTCHAR SF500000
ENCODING 9560
SWIDTH 708 0
DWIDTH 17 0
BBX 9 18 8 4
BITMAP
C000
C000
C000
C000
C000
C000
C000
C000
C000
C000
C000
C000
FF80
FF80
C000
C000
FF80
FF80
ENDCHAR
STARTCHAR SF490000
ENCODING 9561
SWIDTH 708 0
DWIDTH 17 0
BBX 11 16 6 6
BITMAP
CC00
CC00
CC00
CC00
CC00
CC00
CC00
CC00
CC00
CC00
CC00
CC00
CC00
CC00
FFE0
FFE0
ENDCHAR
STARTCHAR SF380000
ENCODING 9562
SWIDTH 708 0
DWIDTH 17 0
BBX 11 18 6 4
BITMAP
CC00
CC00
CC00
CC00
CC00
CC00
CC00
CC00
CC00
CC00
CC00
CC00
CFE0
CFE0
C000
C000
FFE0
FFE0
ENDCHAR
STARTCHAR SF280000
ENCODING 9563
SWIDTH 708 0
DWIDTH 17 0
BBX 10 18 0 4
BITMAP
00C0
00C0
00C0
00C0
00C0
00C0
00C0
00C0
00C0
00C0
00C0
00C0
FFC0
FFC0
00C0
00C0
FFC0
FFC0
ENDCHAR
STARTCHAR SF270000
ENCODING 9564
SWIDTH 708 0
DWIDTH 17 0
BBX 12 16 0 6
BITMAP
0330
0330
0330
0330
0330
0330
0330
0330
0330
0330
0330
0330
0330
0330
FFF0
FFF0
ENDCHAR
STARTCHAR SF260000
ENCODING 9565
SWIDTH 708 0
DWIDTH 17 0
BBX 12 18 0 4
BITMAP
0330
0330
0330
0330
0330
0330
0330
0330
0330
0330
0330
0330
FF30
FF30
0030
0030
FFF0
FFF0
ENDCHAR
STARTCHAR SF360000
ENCODING 9566
SWIDTH 708 0
DWIDTH 17 0
BBX 9 29 8 -7
BITMAP
C000
C000
C000
C000
C000
C000
C000
C000
C000
C000
C000
C000
FF80
FF80
C000
C000
FF80
FF80
C000
C000
C000
C000
C000
C000
C000
C000
C000
C000
C000
ENDCHAR
STARTCHAR SF370000
ENCODING 9567
SWIDTH 708 0
DWIDTH 17 0
BBX 11 29 6 -7
BITMAP
CC00
CC00
CC00
CC00
CC00
CC00
CC00
CC00
CC00
CC00
CC00
CC00
CC00
CC00
CFE0
CFE0
CC00
CC00
CC00
CC00
CC00
CC00
CC00
CC00
CC00
CC00
CC00
CC00
CC00
ENDCHAR
STARTCHAR SF420000
ENCODING 9568
SWIDTH 708 0
DWIDTH 17 0
BBX 11 29 6 -7
BITMAP
CC00
CC00
CC00
CC00
CC00
CC00
CC00
CC00
CC00
CC00
CC00
CC00
CFE0
CFE0
C000
C000
CFE0
CFE0
CC00
CC00
CC00
CC00
CC00
CC00
CC00
CC00
CC00
CC00
CC00
ENDCHAR
STARTCHAR SF190000
ENCODING 9569
SWIDTH 708 0
DWIDTH 17 0
BBX 10 29 0 -7
BITMAP
00C0
00C0
00C0
00C0
00C0
00C0
00C0
00C0
00C0
00C0
00C0
00C0
FFC0
FFC0
00C0
00C0
FFC0
FFC0
00C0
00C0
00C0
00C0
00C0
00C0
00C0
00C0
00C0
00C0
00C0
ENDCHAR
STARTCHAR SF200000
ENCODING 9570
SWIDTH 708 0
DWIDTH 17 0
BBX 12 29 0 -7
BITMAP
0330
0330
0330
0330
0330
0330
0330
0330
0330
0330
0330
0330
0330
0330
FF30
FF30
0330
0330
0330
0330
0330
0330
0330
0330
0330
0330
0330
0330
0330
ENDCHAR
STARTCHAR SF230000
ENCODING 9571
SWIDTH 708 0
DWIDTH 17 0
BBX 12 29 0 -7
BITMAP
0330
0330
0330
0330
0330
0330
0330
0330
0330
0330
0330
0330
FF30
FF30
0030
0030
FF30
FF30
0330
0330
0330
0330
0330
0330
0330
0330
0330
0330
0330
ENDCHAR
STARTCHAR SF470000
ENCODING 9572
SWIDTH 708 0
DWIDTH 17 0
BBX 17 17 0 -7
BITMAP
FFFF80
FFFF80
000000
000000
FFFF80
FFFF80
00C000
00C000
00C000
00C000
00C000
00C000
00C000
00C000
00C000
00C000
00C000
ENDCHAR
STARTCHAR SF480000
ENCODING 9573
SWIDTH 708 0
DWIDTH 17 0
BBX 17 15 0 -7
BITMAP
FFFF80
FFFF80
033000
033000
033000
033000
033000
033000
033000
033000
033000
033000
033000
033000
033000
ENDCHAR
STARTCHAR SF410000
ENCODING 9574
SWIDTH 708 0
DWIDTH 17 0
BBX 17 17 0 -7
BITMAP
FFFF80
FFFF80
000000
000000
FF3F80
FF3F80
033000
033000
033000
033000
033000
033000
033000
033000
033000
033000
033000
ENDCHAR
STARTCHAR SF450000
ENCODING 9575
SWIDTH 708 0
DWIDTH 17 0
BBX 17 18 0 4
BITMAP
00C000
00C000
00C000
00C000
00C000
00C000
00C000
00C000
00C000
00C000
00C000
00C000
FFFF80
FFFF80
000000
000000
FFFF80
FFFF80
ENDCHAR
STARTCHAR SF460000
ENCODING 9576
SWIDTH 708 0
DWIDTH 17 0
BBX 17 16 0 6
BITMAP
033000
033000
033000
033000
033000
033000
033000
033000
033000
033000
033000
033000
033000
033000
FFFF80
FFFF80
ENDCHAR
STARTCHAR SF400000
ENCODING 9577
SWIDTH 708 0
DWIDTH 17 0
BBX 17 18 0 4
BITMAP
033000
033000
033000
033000
033000
033000
033000
033000
033000
033000
033000
033000
FF3F80
FF3F80
000000
000000
FFFF80
FFFF80
ENDCHAR
STARTCHAR SF540000
ENCODING 9578
SWIDTH 708 0
DWIDTH 17 0
BBX 17 29 0 -7
BITMAP
00C000
00C000
00C000
00C000
00C000
00C000
00C000
00C000
00C000
00C000
00C000
00C000
FFFF80
FFFF80
00C000
00C000
FFFF80
FFFF80
00C000
00C000
00C000
00C000
00C000
00C000
00C000
00C000
00C000
00C000
00C000
ENDCHAR
STARTCHAR SF530000
ENCODING 9579
SWIDTH 708 0
DWIDTH 17 0
BBX 17 29 0 -7
BITMAP
033000
033000
033000
033000
033000
033000
033000
033000
033000
033000
033000
033000
033000
033000
FFFF80
FFFF80
033000
033000
033000
033000
033000
033000
033000
033000
033000
033000
033000
033000
033000
ENDCHAR
STARTCHAR SF440000
ENCODING 9580
SWIDTH 708 0
DWIDTH 17 0
BBX 17 29 0 -7
BITMAP
033000
033000
033000
033000
033000
033000
033000
033000
033000
033000
033000
033000
FF3F80
FF3F80
000000
000000
FF3F80
FF3F80
033000
033000
033000
033000
033000
033000
033000
033000
033000
033000
033000
ENDCHAR
STARTCHAR upblock
ENCODING 9600
SWIDTH 708 0
DWIDTH 17 0
BBX 17 15 0 7
BITMAP
FFFF80
FFFF80
FFFF80
FFFF80
FFFF80
FFFF80
FFFF80
FFFF80
FFFF80
FFFF80
FFFF80
FFFF80
FFFF80
FFFF80
FFFF80
ENDCHAR
STARTCHAR dnblock
ENCODING 9604
SWIDTH 708 0
DWIDTH 17 0
BBX 17 14 0 -7
BITMAP
FFFF80
FFFF80
FFFF80
FFFF80
FFFF80
FFFF80
FFFF80
FFFF80
FFFF80
FFFF80
FFFF80
FFFF80
FFFF80
FFFF80
ENDCHAR
STARTCHAR block
ENCODING 9608
SWIDTH 708 0
DWIDTH 17 0
BBX 17 29 0 -7
BITMAP
FFFF80
FFFF80
FFFF80
FFFF80
FFFF80
FFFF80
FFFF80
FFFF80
FFFF80
FFFF80
FFFF80
FFFF80
FFFF80
FFFF80
FFFF80
FFFF80
FFFF80
FFFF80
FFFF80
FFFF80
FFFF80
FFFF80
FFFF80
FFFF80
FFFF80
FFFF80
FFFF80
FFFF80
FFFF80
ENDCHAR
STARTCHAR lfblock
ENCODING 9612
SWIDTH 708 0
DWIDTH 17 0
BBX 9 29 0 -7
BITMAP
FF80
FF80
FF80
FF80
FF80
FF80
FF80
FF80
FF80
FF80
FF80
FF80
FF80
FF80
FF80
FF80
FF80
FF80
FF80
FF80
FF80
FF80
FF80
FF80
FF80
FF80
FF80
FF80
FF80
ENDCHAR
STARTCHAR rtblock
ENCODING 9616
SWIDTH 708 0
DWIDTH 17 0
BBX 8 29 9 -7
BITMAP
FF
FF
FF
FF
FF
FF
FF
FF
FF
FF
FF
FF
FF
FF
FF
FF
FF
FF
FF
FF
FF
FF
FF
FF
FF
FF
FF
FF
FF
ENDCHAR
STARTCHAR ltshade
ENCODING 9617
SWIDTH 708 0
DWIDTH 17 0
BBX 16 26 1 -6
BITMAP
8421
0000
1084
0000
0000
8421
0000
1084
0000
8421
0000
1084
0000
0000
8421
0000
1084
0000
8421
0000
1084
0000
0000
8421
0000
1084
ENDCHAR
STARTCHAR shade
ENCODING 9618
SWIDTH 708 0
DWIDTH 17 0
BBX 17 26 0 -6
BITMAP
4AD680
000000
B5A900
B5A900
000000
4AD680
000000
B5A900
000000
4AD680
000000
B5A900
B5A900
000000
4AD680
000000
B5A900
000000
4AD680
000000
B5A900
B5A900
000000
4AD680
000000
B5A900
ENDCHAR
STARTCHAR dkshade
ENCODING 9619
SWIDTH 729 0
DWIDTH 18 0
BBX 18 27 0 -7
BITMAP
6A5AC0
FFFFC0
B5AD00
FFFFC0
FFFFC0
6A5AC0
FFFFC0
B5AD00
FFFFC0
6A5AC0
FFFFC0
B5AD00
B5AD00
FFFFC0
6A5AC0
FFFFC0
B5AD00
FFFFC0
6A5AC0
FFFFC0
FFFFC0
B5AD00
FFFFC0
6A5AC0
FFFFC0
B5AD00
FFFFC0
ENDCHAR
STARTCHAR filledbox
ENCODING 9632
SWIDTH 604 0
DWIDTH 15 0
BBX 12 12 1 1
BITMAP
FFF0
FFF0
FFF0
FFF0
FFF0
FFF0
FFF0
FFF0
FFF0
FFF0
FFF0
FFF0
ENDCHAR
STARTCHAR H22073
ENCODING 9633
SWIDTH 604 0
DWIDTH 15 0
BBX 14 14 0 0
BITMAP
FFFC
8004
8004
8004
8004
8004
8004
8004
8004
8004
8004
8004
8004
FFFC
ENDCHAR
STARTCHAR H18543
ENCODING 9642
SWIDTH 354 0
DWIDTH 9 0
BBX 6 6 1 4
BITMAP
FC
FC
FC
FC
FC
FC
ENDCHAR
STARTCHAR H18551
ENCODING 9643
SWIDTH 354 0
DWIDTH 9 0
BBX 6 6 1 4
BITMAP
FC
84
84
84
84
FC
ENDCHAR
STARTCHAR filledrect
ENCODING 9644
SWIDTH 1000 0
DWIDTH 24 0
BBX 24 7 0 0
BITMAP
FFFFFF
FFFFFF
FFFFFF
FFFFFF
FFFFFF
FFFFFF
FFFFFF
ENDCHAR
STARTCHAR triagup
ENCODING 9650
SWIDTH 989 0
DWIDTH 24 0
BBX 14 14 5 0
BITMAP
0200
0300
0300
0780
0780
0FC0
0FC0
1FE0
1FE0
3FF0
3FF0
7FF8
7FF8
FFFC
ENDCHAR
STARTCHAR triagrt
ENCODING 9658
SWIDTH 989 0
DWIDTH 24 0
BBX 14 14 5 0
BITMAP
8000
E000
F800
FE00
FF80
FFE0
FFF8
FFFC
FFE0
FF80
FE00
F800
E000
8000
ENDCHAR
STARTCHAR triagdn
ENCODING 9660
SWIDTH 989 0
DWIDTH 24 0
BBX 14 14 5 0
BITMAP
FFFC
FFF8
7FF8
7FF0
3FF0
3FE0
1FE0
1FC0
0FC0
0F80
0780
0700
0300
0200
ENDCHAR
STARTCHAR triaglf
ENCODING 9668
SWIDTH 989 0
DWIDTH 24 0
BBX 14 14 5 0
BITMAP
0004
001C
007C
01FC
07FC
1FFC
7FFC
FFFC
3FFC
0FFC
03FC
00FC
003C
000C
ENDCHAR
STARTCHAR lozenge
ENCODING 9674
SWIDTH 494 0
DWIDTH 12 0
BBX 12 17 0 0
BITMAP
0600
0F00
0F00
1F80
1980
30C0
70E0
6060
E070
6060
70E0
30C0
1980
1F80
0F00
0F00
0600
ENDCHAR
STARTCHAR circle
ENCODING 9675
SWIDTH 604 0
DWIDTH 15 0
BBX 11 11 2 1
BITMAP
1F00
2180
4040
8060
8020
8020
8020
8020
4040
2080
1F00
ENDCHAR
STARTCHAR H18533
ENCODING 9679
SWIDTH 604 0
DWIDTH 15 0
BBX 10 10 2 2
BITMAP
1E00
7F80
7F80
FFC0
FFC0
FFC0
FFC0
7F80
7F80
1E00
ENDCHAR
STARTCHAR invbullet
ENCODING 9688
SWIDTH 604 0
DWIDTH 15 0
BBX 14 14 0 0
BITMAP
FFFC
FFFC
F87C
E01C
E01C
C00C
C00C
C00C
C00C
E01C
E01C
F87C
FFFC
FFFC
ENDCHAR
STARTCHAR invcircle
ENCODING 9689
SWIDTH 604 0
DWIDTH 15 0
BBX 14 14 0 0
BITMAP
FFFC
FFFC
F87C
E79C
EFDC
DFEC
DFEC
DFEC
DFEC
EFDC
E79C
F87C
FFFC
FFFC
ENDCHAR
STARTCHAR openbullet
ENCODING 9702
SWIDTH 354 0
DWIDTH 9 0
BBX 6 6 1 4
BITMAP
78
CC
84
84
CC
78
ENDCHAR
STARTCHAR smileface
ENCODING 9786
SWIDTH 1020 0
DWIDTH 25 0
BBX 14 14 5 0
BITMAP
0FC0
1860
2010
4008
C00C
9864
9864
8004
8004
C84C
4788
2010
1860
0FC0
ENDCHAR
STARTCHAR invsmileface
ENCODING 9787
SWIDTH 1052 0
DWIDTH 25 0
BBX 14 14 5 0
BITMAP
0FC0
1FE0
3FF0
7FF8
FFFC
E79C
E79C
FFFC
FFFC
F7BC
7878
3FF0
1FE0
0FC0
ENDCHAR
STARTCHAR sun
ENCODING 9788
SWIDTH 916 0
DWIDTH 22 0
BBX 15 15 3 -2
BITMAP
0100
0100
2108
17D0
0C60
1830
1010
F01E
1010
1830
0C60
17D0
2108
0100
0100
ENDCHAR
STARTCHAR female
ENCODING 9792
SWIDTH 750 0
DWIDTH 18 0
BBX 7 13 6 1
BITMAP
38
44
82
82
82
44
38
10
10
FE
10
10
10
ENDCHAR
STARTCHAR male
ENCODING 9794
SWIDTH 750 0
DWIDTH 18 0
BBX 10 11 4 3
BITMAP
03C0
00C0
0140
0240
3C00
4400
8200
8200
8200
4400
3800
ENDCHAR
STARTCHAR spade
ENCODING 9824
SWIDTH 531 0
DWIDTH 13 0
BBX 11 14 1 0
BITMAP
0400
0400
0E00
0E00
1F00
7F80
7FC0
FFE0
FFE0
FFE0
75C0
0400
0E00
3F80
ENDCHAR
STARTCHAR club
ENCODING 9827
SWIDTH 656 0
DWIDTH 16 0
BBX 14 14 1 0
BITMAP
0780
0FC0
0FC0
0FC0
0FC0
7FF8
FFFC
FFFC
FFFC
FDFC
7978
0300
0780
1FE0
ENDCHAR
STARTCHAR heart
ENCODING 9829
SWIDTH 593 0
DWIDTH 14 0
BBX 12 12 1 1
BITMAP
79E0
FFF0
FFF0
FFF0
FFF0
7FE0
3FC0
1F80
1F80
0F00
0600
0600
ENDCHAR
STARTCHAR diamond
ENCODING 9830
SWIDTH 510 0
DWIDTH 12 0
BBX 11 15 1 0
BITMAP
0400
0400
0E00
1F00
1F00
3F80
7FC0
FFE0
7FC0
3F80
1F00
1F00
0E00
0400
0400
ENDCHAR
STARTCHAR musicalnote
ENCODING 9834
SWIDTH 500 0
DWIDTH 12 0
BBX 7 13 3 0
BITMAP
10
10
18
1C
14
12
12
12
12
14
70
F0
E0
ENDCHAR
STARTCHAR musicalnotedbl
ENCODING 9835
SWIDTH 750 0
DWIDTH 18 0
BBX 11 15 3 -1
BITMAP
0060
07E0
1E20
10E0
17E0
1E20
1020
1020
1020
1020
10E0
11E0
71C0
F000
E000
ENDCHAR
STARTCHAR uniF001
ENCODING 61441
SWIDTH 610 0
DWIDTH 14 0
BBX 12 17 0 0
BITMAP
1F70
3F70
3870
3800
FF70
FF70
3870
3870
3870
3870
3870
3870
3870
3870
3870
3870
3870
ENDCHAR
STARTCHAR uniF002
ENCODING 61442
SWIDTH 610 0
DWIDTH 14 0
BBX 12 17 0 0
BITMAP
1F70
3F70
3870
3870
FF70
FF70
3870
3870
3870
3870
3870
3870
3870
3870
3870
3870
3870
ENDCHAR
STARTCHAR uniF005
ENCODING 61445
SWIDTH 333 0
DWIDTH 8 0
BBX 4 5 2 -5
BITMAP
60
70
30
F0
E0
ENDCHAR
STARTCHAR uniF001.dup6
ENCODING 64257
SWIDTH 610 0
DWIDTH 14 0
BBX 12 17 0 0
BITMAP
1F70
3F70
3870
3800
FF70
FF70
3870
3870
3870
3870
3870
3870
3870
3870
3870
3870
3870
ENDCHAR
STARTCHAR uniF002.dup7
ENCODING 64258
SWIDTH 610 0
DWIDTH 14 0
BBX 12 17 0 0
BITMAP
1F70
3F70
3870
3870
FF70
FF70
3870
3870
3870
3870
3870
3870
3870
3870
3870
3870
3870
ENDCHAR
STARTCHAR .notdef
ENCODING -1
SWIDTH 750 0
DWIDTH 18 0
BBX 14 17 2 0
BITMAP
FFFC
8004
8004
8004
8004
8004
8004
8004
8004
8004
8004
8004
8004
8004
8004
8004
FFFC
ENDCHAR
STARTCHAR .null
ENCODING -1
SWIDTH 0 0
DWIDTH 0 0
BBX 1 1 0 0
BITMAP
00
ENDCHAR
STARTCHAR nonmarkingreturn
ENCODING -1
SWIDTH 277 0
DWIDTH 7 0
BBX 1 1 0 0
BITMAP
00
ENDCHAR
STARTCHAR middot
ENCODING -1
SWIDTH 333 0
DWIDTH 8 0
BBX 3 4 2 6
BITMAP
E0
E0
E0
E0
ENDCHAR
STARTCHAR commaaccent
ENCODING -1
SWIDTH 333 0
DWIDTH 8 0
BBX 3 4 1 -5
BITMAP
E0
E0
60
C0
ENDCHAR
STARTCHAR foursuperior
ENCODING -1
SWIDTH 333 0
DWIDTH 8 0
BBX 6 8 1 9
BITMAP
38
38
78
58
D8
FC
18
18
ENDCHAR
STARTCHAR fivesuperior
ENCODING -1
SWIDTH 333 0
DWIDTH 8 0
BBX 6 8 1 9
BITMAP
FC
C0
F8
CC
0C
CC
CC
78
ENDCHAR
STARTCHAR sevensuperior
ENCODING -1
SWIDTH 333 0
DWIDTH 8 0
BBX 6 8 1 9
BITMAP
FC
08
18
30
30
60
60
60
ENDCHAR
STARTCHAR eightsuperior
ENCODING -1
SWIDTH 333 0
DWIDTH 8 0
BBX 6 8 1 9
BITMAP
78
CC
CC
78
CC
CC
CC
78
ENDCHAR
STARTCHAR cyrillicbreve
ENCODING -1
SWIDTH 333 0
DWIDTH 8 0
BBX 8 4 0 14
BITMAP
E7
E7
7E
3C
ENDCHAR
STARTCHAR caroncommaaccent
ENCODING -1
SWIDTH 222 0
DWIDTH 5 0
BBX 3 5 1 12
BITMAP
E0
E0
60
60
C0
ENDCHAR
STARTCHAR commaaccentrotate
ENCODING -1
SWIDTH 222 0
DWIDTH 5 0
BBX 3 5 1 14
BITMAP
40
C0
E0
E0
E0
ENDCHAR
STARTCHAR grave.uc
ENCODING -1
SWIDTH 333 0
DWIDTH 8 0
BBX 6 3 1 18
BITMAP
F0
38
1C
ENDCHAR
STARTCHAR acute.uc
ENCODING -1
SWIDTH 333 0
DWIDTH 8 0
BBX 6 3 1 18
BITMAP
3C
70
E0
ENDCHAR
STARTCHAR circumflex.uc
ENCODING -1
SWIDTH 333 0
DWIDTH 8 0
BBX 8 3 0 18
BITMAP
3C
7E
E7
ENDCHAR
STARTCHAR caron.uc
ENCODING -1
SWIDTH 333 0
DWIDTH 8 0
BBX 8 3 0 18
BITMAP
E7
7E
3C
ENDCHAR
STARTCHAR dieresis.uc
ENCODING -1
SWIDTH 333 0
DWIDTH 8 0
BBX 8 3 0 18
BITMAP
E7
E7
E7
ENDCHAR
STARTCHAR tilde.uc
ENCODING -1
SWIDTH 333 0
DWIDTH 8 0
BBX 8 3 0 18
BITMAP
73
FF
CE
ENDCHAR
STARTCHAR hungarumlaut.uc
ENCODING -1
SWIDTH 333 0
DWIDTH 8 0
BBX 10 3 -1 18
BITMAP
39C0
7380
C600
ENDCHAR
STARTCHAR breve.uc
ENCODING -1
SWIDTH 333 0
DWIDTH 8 0
BBX 8 3 0 18
BITMAP
C3
7E
3C
ENDCHAR
ENDFONT
